<?xml version="1.0" standalone="no"?>
<!DOCTYPE svg PUBLIC "-//W3C//DTD SVG 20010904//EN"
 "http://www.w3.org/TR/2001/REC-SVG-20010904/DTD/svg10.dtd">
<svg version="1.0" xmlns="http://www.w3.org/2000/svg"
 width="700.000000pt" height="700.000000pt" viewBox="0 0 700.000000 700.000000"
 preserveAspectRatio="xMidYMid meet">
<metadata>
Created by potrace 1.11, written by Peter Selinger 2001-2013
</metadata>
<g transform="translate(0.000000,700.000000) scale(0.100000,-0.100000)"
fill="#000000" stroke="none">
<path d="M3095 6862 c-282 -14 -597 -110 -808 -245 -31 -20 -60 -37 -62 -37
-3 0 -42 -28 -87 -62 -74 -57 -218 -193 -294 -279 -53 -59 -170 -225 -209
-296 -21 -38 -43 -75 -49 -83 -38 -48 -416 -926 -466 -1080 -5 -14 -21 -56
-35 -95 -66 -173 -185 -575 -199 -675 -3 -19 -12 -66 -20 -105 -8 -38 -17 -88
-20 -110 -2 -22 -12 -87 -20 -145 -16 -112 -23 -168 -30 -240 -3 -25 -10 -88
-15 -140 -6 -52 -13 -124 -15 -160 -3 -36 -8 -108 -11 -160 -4 -52 -8 -115
-10 -140 -12 -155 -19 -514 -19 -970 0 -470 2 -535 19 -625 20 -109 67 -229
124 -315 36 -56 163 -188 214 -225 127 -89 339 -171 492 -190 28 -3 61 -8 75
-10 14 -2 52 -7 85 -10 33 -3 75 -8 93 -11 17 -2 47 -6 65 -8 17 -3 59 -8 92
-11 33 -3 67 -8 75 -10 8 -2 44 -7 80 -10 36 -3 76 -8 90 -10 32 -5 178 -23
255 -30 33 -3 74 -8 90 -10 17 -2 57 -7 90 -10 33 -3 71 -8 85 -10 14 -3 54
-7 90 -10 36 -3 82 -8 103 -10 82 -11 115 -14 177 -20 36 -3 81 -8 100 -10 36
-5 81 -10 185 -20 33 -3 76 -8 95 -10 19 -2 62 -6 95 -10 33 -3 78 -8 100 -10
22 -3 69 -7 105 -11 36 -3 75 -7 88 -9 12 -2 57 -7 100 -10 42 -4 86 -9 97
-11 10 -2 51 -6 90 -9 38 -3 81 -8 95 -10 14 -3 57 -7 95 -10 39 -4 81 -8 95
-10 14 -2 57 -7 95 -10 39 -4 95 -10 127 -14 105 -14 426 3 583 30 33 6 71 13
85 14 54 8 183 45 257 75 185 74 319 175 439 331 82 107 176 309 199 428 35
183 40 509 11 691 -3 14 -7 43 -10 65 -52 398 -194 863 -375 1225 -81 161 -79
159 -160 280 -65 97 -163 215 -215 259 -15 14 -33 30 -40 35 -6 6 -40 36 -76
66 -178 150 -270 268 -270 346 0 85 77 172 258 291 65 42 149 97 187 122 86
56 190 159 230 226 53 92 73 220 51 335 -37 193 -265 571 -531 880 -16 19 -79
85 -140 145 -275 276 -563 471 -955 648 -183 83 -485 175 -665 202 -27 5 -57
9 -65 10 -82 13 -289 22 -385 17z m475 -1222 c25 -5 60 -12 79 -15 92 -15 233
-78 317 -140 149 -112 243 -295 236 -459 -4 -85 -96 -231 -195 -307 -79 -61
-481 -270 -972 -504 -66 -32 -185 -89 -264 -127 -79 -38 -145 -67 -147 -65 -3
3 -9 55 -19 177 -8 99 -17 201 -20 240 -18 199 -23 469 -12 605 15 174 69 302
172 409 106 107 281 177 490 193 39 3 71 6 73 8 7 6 223 -6 262 -15z m-854
-3035 c23 -2 68 -6 100 -9 33 -3 91 -8 129 -11 39 -3 95 -7 125 -10 30 -3 84
-7 120 -10 36 -3 88 -7 115 -10 28 -3 79 -7 115 -10 85 -6 183 -14 245 -20 28
-2 84 -7 125 -10 41 -3 98 -8 125 -10 28 -3 84 -8 125 -11 41 -3 89 -7 105 -9
17 -1 73 -6 125 -11 52 -4 100 -9 105 -9 6 -1 20 -3 32 -3 13 -1 21 -7 18 -14
-2 -7 -7 -31 -10 -53 -4 -22 -9 -53 -11 -70 -18 -108 -79 -259 -142 -353 -100
-147 -276 -265 -458 -307 -10 -2 -37 -9 -59 -14 -130 -33 -498 -36 -700 -6
-197 28 -259 40 -324 61 -234 77 -303 210 -277 534 6 65 15 126 30 207 3 11 8
43 12 70 5 26 9 51 10 56 1 4 2 17 3 28 1 21 4 21 89 14 48 -4 106 -9 128 -10z"/>
</g>
</svg>
