<?xml version="1.0" encoding="utf-8"?>
<!-- Generator: Adobe Illustrator 16.0.0, SVG Export Plug-In . SVG Version: 6.00 Build 0)  -->
<!DOCTYPE svg PUBLIC "-//W3C//DTD SVG 1.1//EN" "http://www.w3.org/Graphics/SVG/1.1/DTD/svg11.dtd">
<svg version="1.1" id="Layer_1" xmlns="http://www.w3.org/2000/svg" xmlns:xlink="http://www.w3.org/1999/xlink" x="0px" y="0px"
	 width="85px" height="85px" viewBox="0 0 85 85" enable-background="new 0 0 85 85" xml:space="preserve">
<g>
	<path fill="#FFFFFF" d="M48.314,22.8c0.126,0.05,0.05-0.076,0.073-0.151c0.1-0.024,0.053-0.2,0.177-0.2
		c0.078,0.15-0.124,0.277-0.1,0.402c-0.252-0.05-0.15,0.251-0.252,0.376c0,0.051,0.048,0,0.048-0.025
		c-0.022,0.152,0.104,0.277-0.022,0.427c0-0.05-0.05-0.075-0.125-0.075c-0.102,0.101-0.052,0.251,0.048,0.277
		c0,0.075-0.125,0.075-0.149,0.15c-0.076-0.025-0.05-0.025-0.1,0.026c0,0.077,0.022,0.077,0.074,0.077c0,0.1-0.074,0.1-0.024,0.201
		c-0.05,0-0.076,0.025-0.1,0.025c0.05,0.3-0.302,0.376-0.453,0.576c0,0.077,0.052,0.077,0.052,0.126
		c-0.074,0.024-0.152,0.05-0.202,0.101c0,0.05,0.15,0.05,0.127,0c0,0.126-0.253,0.251-0.276,0.478c-0.075,0,0.05-0.175-0.075-0.125
		c-0.1,0.051,0.049,0.201-0.027,0.252c-0.072,0.025-0.15-0.076-0.25,0.025c-0.026,0.099,0.025,0.099,0.025,0.176
		c-0.127-0.076-0.429,0.201-0.429,0.351c-0.177,0.077-0.301,0.202-0.4,0.352c-0.377,0.05-0.501,0.402-0.854,0.402
		c-0.051,0.05-0.1,0.101-0.151,0.15c-0.979,0.426-2.312,0.779-3.265,0.353c-0.077-0.025-0.077,0.024-0.151,0.024
		c-0.226-0.151-0.504-0.277-0.778-0.401c-0.653-0.528-1.382-1.004-1.708-1.859c-0.125-0.101-0.15-0.301-0.276-0.402
		c-0.226-1.28,0.227-2.688,0.704-3.668c-0.027-0.099-0.126-0.15-0.078-0.226c0-0.024-0.077-0.024-0.125-0.024
		c-0.052-0.15-0.077-0.376-0.177-0.503c0.604-3.064,1.862-6.027,3.291-8.54c0.05-0.351,0.024-0.83,0-1.18
		c-0.174-0.353-0.126-0.704,0.327-0.652c0.226,0.024,0.4,0.226,0.479,0.426c0.251-0.226,0.428-0.503,0.576-0.828
		c1.106-1.382,2.209-2.79,3.744-3.718C47.685,6,47.761,5.85,47.81,5.925c0.076,0.025,0.1-0.025,0.123-0.075
		c0.079,0.101,0.155,0,0.305,0.024c0.677-0.2,1.379,0.126,1.684,0.628c0.1,0.024,0.148,0.075,0.198,0.125
		c0.026,0.075,0.051,0.125,0.051,0.201c0.504,0.904,0.451,1.809,0.251,2.763c-0.024,0-0.048,0-0.074,0c0.05,0.125,0,0.301-0.1,0.351
		c0.025,0.05,0.075,0.024,0.1,0.05c-0.074,0.176-0.074,0.426-0.277,0.502c0.15,0.25-0.176,0.276-0.049,0.478
		c-0.077,0-0.077,0.05-0.152,0.05c0.025,0.1,0.025,0.1,0,0.176c-0.126,0-0.126,0.176-0.228,0.101c0,0.05,0,0.1,0.076,0.1
		c-0.076,0.075-0.101,0.176-0.2,0.226c0.025,0.05,0.052,0.05,0.1,0.024c-0.022,0.1-0.1,0.15-0.174,0.15
		c0.1,0.125-0.129,0.151-0.026,0.227c-0.176,0.099-0.253,0.452-0.452,0.602c0,0.024,0.027,0.05,0.052,0.05
		c-1.106,1.281-2.338,2.562-4.12,3.239c0.477,0.251,1.054,0.452,1.506,0.804c0.05,0,0.05-0.024,0.101-0.024c0,0.024,0,0.05,0,0.076
		c0.352,0.075,0.577,0.452,0.854,0.678c0,0.2,0.228,0.376,0.403,0.503c0.101,0.401,0.353,0.552,0.327,0.929
		c0.025,0.05,0.072,0.077,0.072,0.126c0.053,0.125-0.1,0.024-0.072,0.101c0.05,0.1,0.1,0.076,0.174,0.076
		c0.126,0.327,0.126,0.653,0.153,0.98c0.099,0.026,0.05-0.101,0.15-0.077c-0.076,0.275,0.126,0.503-0.026,0.602
		c0.075,0.201-0.025,0.176,0.026,0.402c0.148,0.05,0.101,0.226,0.126,0.326c-0.378,0.226-0.227,0.829-0.304,1.231
		C48.314,22.674,48.314,22.749,48.314,22.8z M39.069,23.805c-0.101-0.326,0.15-0.705,0.053-1.005
		c-0.077,0.426-0.125,0.703-0.178,1.13C39.069,23.956,39.021,23.83,39.069,23.805z M39.219,22.598
		c0.153-0.426,0.404-0.903,0.452-1.33C39.447,21.645,39.319,22.122,39.219,22.598C39.122,22.598,39.246,22.724,39.219,22.598z
		 M39.671,18.981c0,0.051,0,0.126,0.027,0.126C39.698,19.058,39.8,18.981,39.671,18.981z M41.809,18.831
		c0.149-0.025,0.149-0.202,0.301-0.202c0,0.101-0.201,0.202-0.153,0.301c-0.024,0.101-0.173,0.077-0.199,0.176
		c-0.054,0.325-0.402,0.603-0.606,0.903c-0.073-0.1-0.101,0.024-0.125,0.076c0.052,0.051,0.102-0.076,0.125,0
		c-0.173,0.202-0.274,0.477-0.375,0.703c0.024-0.05,0-0.05-0.05-0.05c-0.027,0.377-0.327,0.401-0.278,0.753
		c-0.024-0.024-0.049-0.05-0.073-0.075c-0.051,0.126-0.026,0.276-0.102,0.427c-0.052-0.1-0.052,0-0.152,0
		c-0.05,0.125,0.101,0.075,0.101,0.176c-0.149,0.325-0.274,0.627-0.351,1.005c0,0.024-0.05,0.05-0.074,0.05
		c-0.177,1.081-0.153,2.009,0.324,3.04c0.278,0.076,0.303,0.402,0.605,0.428c0,0.074,0.024,0.074,0.024,0.125
		c0.399,0.099,0.805,0.251,1.156,0.176c-0.024-0.025-0.077,0-0.101-0.05c0.123,0.05,0.175-0.025,0.25,0.024
		c0.024,0.075-0.151-0.024-0.126,0.051c0.151,0.024,0.226,0,0.303-0.051c0.072,0-0.077,0.075,0.049,0.051
		c0.327-0.025,0.452-0.101,0.804-0.101c0.053,0,0.024-0.099,0.075-0.099c0.25-0.05,0.525-0.05,0.678-0.201
		c1.18-0.402,1.985-1.18,2.711-2.06c0.027,0.024,0.052,0.024,0.077,0.024c0.024-0.076-0.048-0.049-0.025-0.15
		c1.508-1.808,1.532-5.35-0.103-7.059c-0.601-0.326-1.229-0.627-2.056-0.804c-0.103-0.101-0.252-0.125-0.352-0.251
		c-0.051,0-0.125,0-0.202,0c-0.124-0.251-0.753-0.527-0.451-0.979c0.25,0,0.604-0.05,0.803-0.227c1.334-0.4,2.364-1.355,3.293-2.26
		c1.004-1.256,1.883-2.838,2.107-4.597c-0.024-0.653-0.125-1.256-0.5-1.733c-0.053,0.025-0.103,0.025-0.103-0.026
		c-0.124,0-0.201,0.026-0.273,0.077c-0.053-0.077-0.078,0.026-0.178,0c-1.81,1.004-2.99,2.637-4.194,4.269
		c-0.05,0.026-0.075,0.075-0.177,0.049c0.077,0.101,0.048,0.101,0,0.226c-0.025-0.025-0.05-0.025-0.126-0.025
		c-0.052,0.077,0.048,0.051,0.048,0.151c-0.249,0.326-0.422,0.829-0.725,1.255c-0.025,0.804-0.274,1.532-0.401,2.286
		c-0.052,0-0.052,0.027-0.076,0.027c0.024,0.151-0.051,0.2-0.051,0.351c-0.251,0.552-0.251,1.23-0.627,1.683
		c0.102,0.478-0.427,0.979-0.476,1.507c0.452-0.325,0.954-0.728,1.555-0.854c0.027-0.05-0.05-0.075,0-0.075
		c0.077,0.05,0.177-0.026,0.202,0.025C42.938,17.775,42.337,18.279,41.809,18.831C41.785,18.856,41.809,18.882,41.809,18.831z
		 M39.8,18.682c-0.027,0-0.027,0-0.027,0c-0.024,0.05,0,0.1,0.053,0.1C39.824,18.731,39.8,18.731,39.8,18.682
		c0.049-0.027,0.073-0.077,0.024-0.126c0.049,0,0-0.024,0,0C39.749,18.579,39.8,18.605,39.8,18.682z M39.849,21.946
		c0-0.024,0-0.05,0-0.075c-0.024,0-0.024,0-0.049,0c0,0.025,0,0.051,0,0.075C39.824,21.946,39.824,21.946,39.849,21.946z
		 M39.951,18.026c-0.052,0.126-0.052,0.277-0.125,0.352C39.951,18.354,40.076,18.078,39.951,18.026z M41.433,14.26
		c-0.025-0.024-0.025-0.05-0.077-0.05c-0.401,1.18-1.107,2.462-1.356,3.767C40.402,16.697,40.955,15.566,41.433,14.26z
		 M40.302,21.419c-0.077,0-0.077,0.075-0.077,0.125C40.302,21.544,40.326,21.493,40.302,21.419z M40.378,21.368
		c0-0.024,0-0.05,0-0.074c-0.027,0-0.051,0-0.077,0c0,0.024,0,0.05,0,0.074C40.326,21.368,40.35,21.368,40.378,21.368z
		 M40.552,20.991c0,0,0-0.024,0-0.05c-0.024,0-0.049,0-0.077,0c0,0.024,0,0.05,0,0.05C40.503,20.991,40.528,20.991,40.552,20.991z
		 M40.729,20.639c-0.101,0.027-0.153,0.102-0.153,0.201C40.677,20.84,40.652,20.69,40.729,20.639z M40.826,18.555
		c0.078,0.05,0.078-0.1,0.027-0.075c0,0,0,0.025-0.027,0.025C40.826,18.531,40.826,18.531,40.826,18.555z M40.979,18.203
		c-0.024,0.05-0.101,0.151-0.052,0.177C40.955,18.354,41.052,18.254,40.979,18.203z M41.181,18.48
		c-0.153,0.025-0.127,0.251-0.253,0.326C41.08,18.856,41.153,18.605,41.181,18.48z M41.181,16.471c0,0.125-0.226,0.275-0.101,0.351
		C41.104,16.697,41.28,16.597,41.181,16.471z M41.732,16.268c-0.026-0.024-0.026-0.024-0.074-0.024
		c-0.125,0.603-0.478,1.131-0.53,1.708C41.356,17.349,41.582,16.872,41.732,16.268z M41.23,19.786c-0.05-0.025-0.126,0.1-0.05,0.1
		C41.181,19.836,41.23,19.836,41.23,19.786z M41.153,18.405c0.125,0.024,0.125-0.075,0.077-0.151c0.149,0-0.024-0.175,0,0
		C41.153,18.254,41.205,18.379,41.153,18.405z M41.332,26.717c-0.024,0.075-0.151,0.025-0.151-0.024
		C41.255,26.669,41.255,26.743,41.332,26.717z M41.506,17.676c-0.226,0-0.15,0.3-0.226,0.426
		C41.407,18.026,41.458,17.854,41.506,17.676z M41.458,15.767c-0.024,0-0.078,0.127,0,0.152c0.022-0.05,0.022-0.1,0.022-0.152
		c0.052-0.049,0.102-0.074,0.102-0.2c-0.102,0-0.077,0.126-0.102,0.2H41.458z M41.63,17.147c0.053,0.251-0.251,0.301-0.173,0.479
		C41.557,17.549,41.759,17.248,41.63,17.147z M41.63,13.732c-0.048,0.175-0.274,0.351-0.125,0.553
		C41.506,14.059,41.759,13.883,41.63,13.732z M41.785,13.556c-0.101,0-0.077,0.076-0.125,0.126
		C41.732,13.683,41.785,13.632,41.785,13.556z M41.759,26.792c0,0.024-0.053,0.024-0.076,0.024
		C41.707,26.792,41.732,26.792,41.759,26.792z M41.809,16.018c-0.077-0.025-0.151,0.2-0.024,0.2
		C41.759,16.119,41.785,16.119,41.809,16.018z M42.083,13.055c0.076-0.226,0.279-0.327,0.153-0.529
		c-0.101,0.327-0.327,0.604-0.452,1.005C41.958,13.406,41.985,13.179,42.083,13.055C42.059,13.179,42.184,13.055,42.083,13.055z
		 M41.809,16.747C41.857,16.747,41.809,16.721,41.809,16.747C41.785,16.772,41.809,16.798,41.809,16.747z M41.91,15.717
		c-0.077-0.025-0.15,0.099-0.077,0.099C41.857,15.767,41.884,15.767,41.91,15.717z M41.91,16.244c0,0.074,0,0.151-0.024,0.175
		C41.985,16.471,42.01,16.218,41.91,16.244z M41.884,16.545c0.024,0,0.048,0,0.048-0.024C41.91,16.522,41.884,16.522,41.884,16.545z
		 M41.932,18.43c0.024,0,0.053,0,0.053-0.024C41.985,18.43,41.932,18.405,41.932,18.43z M42.236,15.165
		c0.024,0.102-0.077,0.15,0.024,0.176C42.236,15.24,42.337,15.189,42.236,15.165z M42.362,12.376c-0.053,0-0.078,0.027-0.103,0.076
		C42.309,12.452,42.337,12.427,42.362,12.376z M42.535,17.801c0.027,0,0.054,0,0.054-0.024
		C42.587,17.775,42.535,17.775,42.535,17.801z M42.712,17.65c0,0.075-0.101,0.025-0.075,0.1
		C42.712,17.775,42.813,17.676,42.712,17.65z M42.813,27.372c-0.052,0-0.102,0-0.102,0.05
		C42.761,27.422,42.789,27.396,42.813,27.372z M43.039,27.372c-0.024-0.051-0.103-0.051-0.103,0.024
		C42.962,27.396,43.039,27.396,43.039,27.372z M43.165,27.372c0-0.051-0.022-0.075-0.075-0.075c0,0.024,0,0.05,0,0.075
		C43.114,27.372,43.142,27.372,43.165,27.372z M43.238,26.92c-0.023,0.05,0.102,0.05,0.077,0
		C43.314,26.895,43.238,26.868,43.238,26.92z M44.019,27.096c0.053,0.049,0.225,0.049,0.176-0.101
		c-0.328,0.126-0.755,0.201-0.956,0.326C43.414,27.347,43.792,27.271,44.019,27.096z M43.617,26.792c-0.023,0-0.023,0-0.051,0
		c0,0.024-0.024,0.024-0.024,0.05C43.592,26.842,43.643,26.842,43.617,26.792z M43.643,26.792c0.024,0,0.075,0,0.075-0.025
		C43.689,26.767,43.667,26.767,43.643,26.792z M43.843,26.92c-0.051,0.024-0.176,0-0.153,0.074
		C43.742,26.97,43.843,26.995,43.843,26.92z M44.071,26.617c-0.126,0.051-0.205-0.026-0.229,0.101
		C43.945,26.717,44.019,26.669,44.071,26.617z M43.866,26.92c0.025-0.025,0.05,0,0.05-0.05
		C43.893,26.895,43.866,26.895,43.866,26.92z M44.019,26.868c0.176,0,0.3-0.202,0.429-0.076c0.226-0.301,0.626-0.527,0.98-0.602
		c0.024-0.05-0.025-0.05-0.052-0.101c0.25-0.151,0.429-0.402,0.654-0.603c-0.024,0-0.024-0.024-0.076-0.024
		C45.427,26.065,44.695,26.443,44.019,26.868z M44.494,26.467c0-0.025,0-0.05,0-0.075c-0.023,0-0.023-0.027-0.047-0.027
		c-0.026,0.101-0.18,0.101-0.229,0.178C44.345,26.543,44.395,26.467,44.494,26.467z M44.295,27.02
		c0.149,0.049,0.149-0.176,0.25-0.075c0-0.101,0.127-0.126,0-0.151c-0.075,0.101-0.15,0.101-0.25,0.151
		C44.295,26.97,44.295,26.995,44.295,27.02z M44.494,15.642c0.028,0,0.053,0,0.053-0.024C44.547,15.616,44.494,15.616,44.494,15.642
		z M44.521,26.391c0.102-0.027,0.175-0.051,0.228-0.125c0.073,0.025,0.199-0.075,0.097-0.15c0.028,0.125-0.126,0.076-0.097,0.15
		C44.597,26.266,44.57,26.341,44.521,26.391z M44.695,9.965c-0.046,0-0.148,0.15-0.072,0.176
		C44.649,10.09,44.672,10.04,44.695,9.965z M44.649,26.817c0.099,0,0.148,0.051,0.249,0c-0.125,0-0.025-0.05-0.051-0.125
		c0.075,0.024,0.128,0,0.128-0.051c-0.053,0-0.103,0-0.128,0.051C44.798,26.767,44.649,26.693,44.649,26.817z M44.771,10.116
		c0-0.024,0-0.075-0.077-0.05c0.024,0.024,0,0.076,0.052,0.076C44.748,10.14,44.748,10.116,44.771,10.116z M44.798,9.914
		c0-0.05,0.023-0.05,0.023-0.099c-0.05-0.025-0.126,0.125-0.05,0.125C44.771,10.04,44.898,9.914,44.798,9.914z M44.798,9.914
		c0,0.025,0,0.025-0.026,0.025C44.771,9.914,44.771,9.914,44.798,9.914z M45.047,9.664c-0.124-0.075,0.101-0.075,0.052-0.202
		c-0.025,0-0.052,0-0.101,0c0,0.077-0.075,0.126-0.075,0.202C44.976,9.639,45.023,9.764,45.047,9.664z M44.947,26.115
		c0.076,0.025,0.126,0,0.126-0.075c0.051-0.024,0.127-0.024,0.127-0.1c-0.076,0-0.102,0.05-0.127,0.1
		C45.047,26.091,44.923,26.04,44.947,26.115z M44.976,14.913c0.023,0,0.072,0,0.072-0.025
		C45.023,14.887,44.976,14.887,44.976,14.913z M45.047,15.415C45.147,15.415,45.023,15.291,45.047,15.415
		C44.998,15.44,45.047,15.465,45.047,15.415z M45.147,14.813c0,0-0.023,0-0.049,0c0,0.05-0.025,0.05-0.025,0.075
		C45.124,14.887,45.173,14.887,45.147,14.813z M45.273,9.312c0,0-0.023,0-0.023-0.024c-0.025,0-0.05,0-0.05,0
		c0.024,0.1-0.102,0.024-0.076,0.1C45.2,9.388,45.25,9.363,45.273,9.312z M45.2,26.467c0.174,0,0.324-0.125,0.525-0.251
		c-0.023,0-0.076,0-0.076-0.024c0-0.101,0.129-0.05,0.202-0.075c-0.101-0.126,0.1-0.05,0.153-0.101c0.048-0.075,0-0.05,0-0.125
		c0.199,0,0.098-0.175,0.274-0.125c-0.022-0.178,0.175-0.152,0.175-0.301c-0.377,0.176-0.603,0.502-0.9,0.729
		C45.399,26.266,45.273,26.341,45.2,26.467z M45.452,9.161c0.1-0.125,0-0.125,0.047-0.251c-0.125,0-0.125,0.176-0.202,0.226
		C45.399,9.11,45.399,9.161,45.452,9.161z M45.499,25.738c-0.072,0-0.226,0.074-0.149,0.151
		C45.374,25.839,45.477,25.813,45.499,25.738z M45.399,8.03c0.026,0,0.053,0,0.053,0c0.047-0.023,0.047-0.049-0.025-0.075
		c0,0.025,0,0.025-0.027,0.025C45.399,8.007,45.399,8.03,45.399,8.03z M45.524,14.586c0,0.025-0.048,0.075,0,0.075
		C45.524,14.637,45.576,14.612,45.524,14.586z M45.649,25.614c-0.073,0-0.125,0.025-0.125,0.101
		C45.6,25.713,45.624,25.664,45.649,25.614z M45.6,15.189c0,0.025-0.048,0.076,0,0.076C45.624,15.24,45.676,15.214,45.6,15.189z
		 M45.726,14.436c0,0.025-0.05,0.075,0,0.075C45.726,14.485,45.778,14.461,45.726,14.436z M45.852,25.337
		c0,0.076-0.1,0.076-0.1,0.151C45.852,25.486,45.978,25.362,45.852,25.337z M45.852,15.113c0,0,0-0.025,0-0.05
		c-0.026,0-0.049,0-0.049,0c0,0.024,0,0.05,0,0.05S45.828,15.113,45.852,15.113z M45.828,14.436c0.024,0,0.05,0,0.05-0.026
		C45.852,14.41,45.828,14.41,45.828,14.436z M45.852,8.533c-0.049,0.075,0.102,0.075,0.102,0.025
		C45.902,8.558,45.902,8.508,45.852,8.533z M46.053,8.433c0.023-0.028,0.05-0.077,0-0.103c0.023-0.051,0.177-0.125,0.076-0.202
		c-0.053,0.126-0.201,0.176-0.227,0.352c0.048,0,0.073,0.05,0.102,0.05c0-0.074-0.054-0.126,0.026-0.151
		C46.03,8.407,46.053,8.433,46.053,8.433z M46.053,8.332c0.023,0.05,0,0.05-0.025,0.05C46.03,8.357,46.03,8.332,46.053,8.332z
		 M46.053,25.161C46.103,25.136,46.053,25.136,46.053,25.161C46.03,25.186,46.078,25.21,46.053,25.161z M46.905,24.231
		c-0.15,0.503-0.676,0.803-0.803,1.23c0.176-0.05,0.251-0.301,0.401-0.325c0,0.101-0.053,0.152,0.05,0.201
		c0-0.049,0.101,0,0.101-0.049c0.051-0.201-0.203-0.227-0.101-0.403c0.051,0,0.027,0.076,0.077,0.076
		c0.199-0.352,0.451-0.653,0.575-1.055c0.148-0.101,0.228-0.377,0.201-0.528c0.15-0.151,0.3-0.578,0.228-0.754
		c-0.127,0.629-0.452,1.055-0.628,1.608C46.957,24.206,46.957,24.182,46.905,24.231z M46.254,14.109
		c-0.077-0.027-0.1,0.05-0.124,0.074C46.202,14.186,46.229,14.133,46.254,14.109z M46.329,14.788
		c0.027-0.101-0.075-0.051-0.075-0.125c0.075,0.025,0.05-0.076,0.15-0.051c0,0.051-0.051,0.051-0.051,0.101
		c0.175-0.026,0.302-0.151,0.252-0.276c0.102,0.076,0.075-0.1,0.202-0.075c0-0.05,0-0.125-0.077-0.1
		c-0.149,0.15-0.301,0.301-0.552,0.376C46.154,14.763,46.254,14.864,46.329,14.788z M46.356,7.931
		C46.406,7.906,46.356,7.88,46.356,7.931C46.329,7.931,46.38,7.956,46.356,7.931z M46.505,14.133c0,0.027-0.148,0.077-0.053,0.126
		C46.452,14.21,46.605,14.186,46.505,14.133z M46.555,7.831c0,0.05-0.05,0.074,0,0.1C46.555,7.88,46.605,7.856,46.555,7.831z
		 M46.583,13.958c0,0.024-0.055,0.05,0,0.076C46.583,14.008,46.631,13.982,46.583,13.958z M46.78,17.074c0-0.025,0-0.051,0-0.075
		c-0.05,0-0.103,0-0.125,0.05C46.707,17.074,46.73,17.099,46.78,17.074z M47.007,24.859c-0.127-0.025,0-0.1-0.05-0.201
		c0.202-0.1,0.326-0.376,0.377-0.577c0.052,0,0.1,0,0.125-0.025c-0.051-0.024-0.073-0.05-0.073-0.101
		c0.098,0.024,0.123-0.024,0.149-0.099c-0.052-0.101,0.174-0.452,0.149-0.655c0.05,0,0.05,0.051,0.101,0.026
		c0-0.125-0.051-0.151,0-0.275c-0.024,0-0.076,0-0.101,0c-0.125,0.905-0.779,1.456-0.979,2.185
		C46.857,25.111,46.883,24.935,47.007,24.859z M46.78,25.21c0.027,0,0.076,0,0.076-0.024C46.833,25.21,46.78,25.186,46.78,25.21z
		 M46.905,7.502c0,0.077-0.125,0.026-0.098,0.126C46.883,7.628,46.982,7.528,46.905,7.502z M47.233,14.008
		c-0.102,0.05,0-0.125-0.074-0.125c-0.05,0.075-0.076,0.125-0.152,0.15c-0.024,0.05,0.026,0.05,0.026,0.1
		c-0.026,0.051-0.153,0-0.153,0.051c0.101,0-0.073,0.101,0.025,0.101c0.052-0.05,0.102-0.152,0.177-0.075
		C47.057,14.059,47.209,14.133,47.233,14.008C47.283,13.982,47.233,13.982,47.233,14.008z M47.007,7.252
		c0,0.051-0.151,0.101-0.074,0.151C46.935,7.353,47.083,7.302,47.007,7.252z M47.034,24.71c-0.151,0.176,0.149-0.051,0-0.025V24.71z
		 M47.007,7.403c0.026,0,0.05,0,0.05-0.024C47.034,7.378,47.007,7.378,47.007,7.403z M47.106,13.506
		c0.024,0.05-0.149,0.101-0.05,0.151C47.057,13.582,47.209,13.556,47.106,13.506z M47.083,17.676c0.023,0,0.076,0,0.076-0.025
		C47.132,17.676,47.083,17.65,47.083,17.676z M47.256,17.6c0-0.025,0-0.05,0-0.075c0,0-0.022,0-0.047,0c0,0.025,0,0.05,0,0.075
		C47.233,17.6,47.256,17.6,47.256,17.6z M47.256,17.877c-0.022,0.026-0.022,0.176,0.079,0.15
		C47.334,17.952,47.334,17.877,47.256,17.877z M47.386,13.883c0-0.025,0-0.025,0-0.05c-0.028,0-0.028,0-0.052,0
		c0,0.024,0,0.024,0,0.05C47.357,13.883,47.357,13.883,47.386,13.883z M47.535,18.102c-0.077,0-0.127,0.1-0.127-0.05
		c-0.023,0-0.053,0-0.076,0c0.023,0.077,0.102,0.125,0.151,0.201C47.459,18.177,47.583,18.229,47.535,18.102z M47.357,13.757
		c0.052-0.074,0.102-0.151,0.253-0.151c0-0.125,0.177-0.276,0.252-0.176c0-0.05-0.077-0.125,0.073-0.125
		c-0.073-0.077,0.076-0.202-0.073-0.226c-0.077,0.101,0,0.276-0.178,0.202C47.66,13.506,47.309,13.556,47.357,13.757z
		 M47.459,17.827c0,0,0-0.026,0-0.05c-0.023,0-0.05,0-0.073,0c0,0.024,0,0.05,0,0.05C47.409,17.827,47.434,17.827,47.459,17.827z
		 M47.409,24.658c0.251-0.501,0.627-1.029,0.729-1.583c0.023-0.15-0.05-0.327,0.101-0.452c-0.05,0-0.025-0.099-0.101-0.076
		c-0.126,0.302-0.102,0.577-0.202,0.93C47.761,23.855,47.459,24.231,47.409,24.658z M47.535,13.281c0-0.027,0-0.027,0-0.051
		c-0.024,0-0.024,0-0.052,0c0,0.024,0,0.024,0,0.051C47.512,13.281,47.512,13.281,47.535,13.281z M47.862,18.981
		c0.073-0.099-0.025-0.325-0.153-0.351c0.078-0.075,0.025-0.125-0.049-0.15c0.077-0.075-0.025-0.175-0.101-0.226
		c0,0.076,0,0.151,0,0.226c0.051,0,0.075,0,0.101,0C47.535,18.629,47.862,18.755,47.862,18.981z M47.66,13.08
		c0.149-0.025,0.202-0.151,0.252-0.276c0.176-0.201,0.451-0.426,0.476-0.703c-0.199,0.2-0.35,0.451-0.476,0.703
		C47.787,12.854,47.761,13.005,47.66,13.08z M47.685,22.423c-0.024,0.025-0.024,0.101,0.025,0.126
		C47.709,22.499,47.737,22.423,47.685,22.423z M47.912,22.047c-0.075,0.351-0.103,0.527-0.203,0.854
		C47.862,22.7,48.012,22.247,47.912,22.047z M47.761,22.122c0,0.05-0.101,0.125,0,0.151C47.737,22.223,47.84,22.147,47.761,22.122z
		 M47.84,21.896c0-0.025,0-0.05-0.053-0.05c0,0.05,0,0.076,0.022,0.1C47.81,21.922,47.81,21.896,47.84,21.896z M47.912,19.786
		c-0.075,0.1,0,0.176,0.05,0.226C48.036,19.936,47.936,19.862,47.912,19.786z M48.138,19.484c0-0.126-0.076-0.174-0.126-0.25
		c0.024-0.077-0.05-0.103-0.025-0.202c-0.149,0.025-0.052,0.151,0.025,0.202C48.062,19.357,47.962,19.484,48.138,19.484z
		 M48.113,20.313c-0.149,0.024-0.052,0.276,0,0.352c0-0.151,0-0.177-0.024-0.302c0.05,0.051,0.074,0.051,0.074-0.025
		c-0.074-0.024,0.053-0.099,0-0.176c-0.102,0.075-0.074,0.05-0.175-0.024c-0.053,0.05,0.025,0.05,0,0.151
		C48.036,20.289,48.113,20.262,48.113,20.313z M47.988,24.055c0-0.05,0.023-0.05,0.023-0.075
		C48.138,23.956,48.088,24.081,47.988,24.055z M48.062,12.854c-0.023,0.051-0.098,0.176-0.048,0.201
		C48.036,13.005,48.138,12.903,48.062,12.854z M48.514,12.299c0.026,0,0.026,0.025,0.076,0.025c0.023-0.1-0.025-0.125-0.076-0.15
		c-0.149,0.301-0.351,0.426-0.4,0.779C48.188,12.752,48.564,12.627,48.514,12.299z M48.113,20.766
		c0.05,0.151,0.025,0.126,0.126,0.049c0,0.05-0.05,0.076-0.023,0.128c0.126-0.051,0.048-0.252,0.023-0.354
		c0.049-0.024,0.126-0.024,0.148-0.074c-0.022-0.126,0-0.326-0.124-0.479c-0.074,0.101,0.25,0.452-0.101,0.479
		C48.138,20.639,48.286,20.791,48.113,20.766z M48.138,23.378c-0.05,0.101,0.075,0.151,0.101,0.075
		C48.188,23.453,48.213,23.378,48.138,23.378z M48.138,21.141c0.148,0,0.075,0.201,0.177,0.226c0.023-0.177,0-0.426-0.153-0.326
		c0.052,0,0.077,0.05,0.103,0.076C48.213,21.117,48.161,21.117,48.138,21.141z M48.213,21.544c-0.024,0-0.052,0.026-0.075,0.026
		c0.023,0.276,0.177,0.426,0.075,0.677c0.175-0.125,0.125-0.402,0-0.579c0.073,0,0.073,0.05,0.151,0
		c-0.078-0.15-0.023-0.276-0.203-0.325c-0.023,0.1,0.103,0.05,0.077,0.151C48.213,21.493,48.213,21.519,48.213,21.544z
		 M48.161,19.56c-0.023,0.024,0,0.126,0.077,0.126C48.238,19.61,48.213,19.583,48.161,19.56z M48.161,22.322
		c0.027,0.1-0.023,0.226,0.077,0.226C48.286,22.499,48.238,22.348,48.161,22.322z M48.213,23.755c-0.075-0.025,0-0.126,0.025-0.126
		C48.286,23.678,48.213,23.678,48.213,23.755z M48.264,21.57c-0.025,0-0.051,0-0.051-0.026c0.025,0,0.025-0.025,0.025-0.051
		C48.264,21.493,48.264,21.544,48.264,21.57z M48.314,23.304c0-0.077,0.023-0.126,0.101-0.126
		C48.415,23.226,48.415,23.304,48.314,23.304z M48.364,20.615c-0.023,0.024-0.05,0.2,0.051,0.2
		C48.415,20.74,48.415,20.665,48.364,20.615z M48.44,21.392c0-0.025,0.047-0.025,0.072-0.025c-0.072-0.074,0.077-0.177-0.072-0.177
		c0-0.049,0-0.099-0.026-0.099c0,0.026,0,0.026-0.026,0.026c-0.023,0.049,0.026,0.073,0.053,0.073
		C48.415,21.217,48.388,21.368,48.44,21.392z M48.415,12.049c0.025,0,0.05,0,0.05-0.025C48.465,12.024,48.415,12.024,48.415,12.049z
		 M48.44,22.147c-0.026-0.126,0.072-0.152,0.072-0.277c0.1-0.024,0.077,0.051,0.151,0.075c-0.024,0.101-0.074,0.024-0.127,0
		c0,0.024,0,0.05,0,0.076C48.465,22.021,48.564,22.197,48.44,22.147z M48.54,22.298c0,0.024-0.026,0.024-0.026,0.05
		c-0.026,0-0.049-0.024-0.073-0.024c0.024-0.024,0.024-0.024,0.024-0.05C48.487,22.272,48.514,22.298,48.54,22.298z M48.614,11.624
		c0.028,0.15-0.174,0.251-0.101,0.325C48.54,11.875,48.767,11.698,48.614,11.624z M48.54,21.668c0.05-0.025,0.05-0.125,0.152-0.125
		C48.667,21.621,48.59,21.719,48.54,21.668z M48.667,21.041c0,0.026-0.053,0.026-0.077,0.026
		C48.59,21.041,48.643,21.041,48.667,21.041z M48.667,22.197c0,0.025,0,0.051,0,0.075c-0.024,0-0.053,0-0.077,0
		c0-0.024,0-0.05,0-0.075C48.614,22.197,48.643,22.197,48.667,22.197z M48.84,11.722c0.076,0,0.102,0,0.153-0.024
		c0.048-0.126-0.077-0.075-0.077-0.15c0.077-0.075,0.103,0.025,0.149-0.05c0-0.075,0.025-0.201-0.073-0.201
		c-0.076,0.3-0.452,0.603-0.326,0.904C48.715,12,48.941,11.924,48.84,11.722z M48.84,11.296c-0.125,0.074-0.101,0.15-0.147,0.299
		C48.792,11.572,48.864,11.37,48.84,11.296z M49.168,11.296c0.025-0.076,0.025-0.177-0.05-0.202
		c-0.026,0.05-0.077,0.075-0.077,0.176C49.118,11.271,49.118,11.296,49.168,11.296z M49.118,11.447c0.026,0,0.05,0,0.05-0.025
		C49.143,11.421,49.118,11.421,49.118,11.447z M49.168,10.517c0,0.025-0.05,0.075,0,0.075
		C49.168,10.566,49.221,10.542,49.168,10.517z M49.316,10.994c-0.096-0.151,0.153-0.402,0-0.478c0,0.226-0.198,0.377-0.148,0.53
		C49.168,10.944,49.243,10.97,49.316,10.994z M49.47,10.217c-0.025,0.099-0.053,0.15-0.101,0.226
		C49.519,10.467,49.57,10.241,49.47,10.217z M49.619,10.341c0-0.025,0-0.05,0-0.075c-0.025,0-0.049,0-0.049,0
		c0,0.026,0,0.05,0,0.075C49.57,10.341,49.597,10.341,49.619,10.341z M49.895,8.181c0,0.051-0.099,0.402,0.026,0.452
		C49.845,8.484,50.022,8.307,49.895,8.181z M49.923,8.985c0.022,0,0.048,0.026,0.048,0C49.971,8.934,49.923,8.934,49.923,8.985z
		 M49.971,9.061c0.024,0.125,0.024,0.1,0,0.226c0.15,0,0.078-0.202,0.126-0.277c0.101,0-0.023-0.125,0,0
		C49.995,8.959,50.073,9.11,49.971,9.061z M50.073,9.487c-0.025-0.099,0.124-0.2,0-0.2c0,0.024,0,0.074-0.051,0.05
		C50.022,9.388,50.022,9.461,50.073,9.487z"/>
	<path fill="#FFFFFF" d="M49.325,36.54c-0.023,0,0,0.024,0,0.024c0.024,0.101,0.077-0.024,0.127,0c0.025,0.151,0,0.252-0.05,0.352
		c0.024,0.049,0.173,0,0.227,0.024c-0.177,0.276-0.079,0.602-0.227,0.803c0.1,0.102-0.053,0.102,0.05,0.225
		c-0.026,0.025-0.103,0.025-0.127,0.076c0.024,0.05,0.051,0.05,0.101,0.027c-0.076,0.175-0.101,0.476-0.327,0.401
		c0,0.099,0.177,0.05,0.203,0.125c0,0.176-0.102,0.302-0.226,0.351c0.124,0.125-0.103,0.125,0,0.3
		c-0.079,0.051-0.178,0.051-0.228,0.126c0.05,0.077,0.201-0.075,0.274,0.026c-0.073,0.25-0.126,0.504-0.175,0.754
		c-0.05-0.176-0.149,0.05-0.251,0.1c0.025,0.076,0.174-0.076,0.227,0.024c-0.251,0.125-0.025,0.478-0.279,0.654
		c0,0.077,0.053,0.126,0.027,0.226c-0.077-0.101-0.227-0.126-0.253-0.277c-0.049,0,0,0.125-0.049,0.15
		c0.102,0,0.127,0.025,0.202,0.101c-0.027,0.075-0.077,0.125-0.027,0.226c-0.023,0.051-0.149,0.024-0.149,0.101
		c0,0.074,0.149-0.025,0.1,0.074c0.103,0.051,0-0.125,0.127-0.074c0.1,0.126-0.077,0.15-0.077,0.277c0.027,0.048,0.053-0.026,0.1,0
		c-0.021,0.1-0.047,0.048-0.171,0.048c0,0.077,0.05,0.128,0.023,0.202c-0.177,0.2-0.35,0.023-0.551,0.2
		c0.022-0.101,0.022-0.075,0-0.15c-0.025,0.125-0.127-0.101-0.176,0.049c0.024-0.854,0.453-1.481,0.327-2.386
		c0.073,0,0.049,0.075,0.097,0.075c0.053-0.351,0.253-0.627,0.205-1.054c0.074-0.025,0.051-0.102,0.147-0.077
		c-0.124-0.077,0.129-0.303-0.074-0.351c0.074-0.101,0.103-0.202,0.024-0.253c0.05,0,0.026-0.1,0.126-0.05
		c0.179-0.753,0.377-1.683,0.603-2.511c0.027-0.101-0.1-0.026-0.072-0.126c0.199-0.1,0.199-0.326,0.124-0.478
		c0-0.024,0-0.024,0-0.05c-0.1-0.024-0.1,0.077-0.1,0.175c0.076,0,0.025-0.125,0.1-0.125c-0.177,0.202-0.226,0.678-0.201,1.03
		c-0.05,0-0.05-0.026-0.1-0.026c-0.051,0.1,0.023,0.1,0.023,0.201c-0.148,0.025-0.099,0.151-0.074,0.277
		c-0.201,0.251-0.151,0.602-0.301,0.779c0.024,0.024,0.052,0.049,0.077,0.076c0,0.075-0.077,0.075-0.127,0.102
		c0.024,0.049,0.05,0.075,0.102,0.075c-0.052,0.074-0.13,0.101-0.102,0.226c-0.028,0-0.05,0-0.075,0
		c-0.177,0.878-0.429,1.632-0.554,2.538c-0.024,0-0.024,0.049-0.024,0.073c0.024,0,0.024-0.049,0.024-0.073
		c0.125,0,0,0.073,0.025,0.151c-0.05,0-0.05-0.025-0.099-0.025c-0.178,1.105-0.452,2.034-0.577,3.114
		c-0.178,0.428-0.129,0.931-0.326,1.306c-0.227,1.959-0.631,4.019-0.806,6.129c-0.101,1.383-0.254,2.915-0.052,4.07
		c0.024-0.329,0.103-0.604,0-0.931c0.152-0.353,0-0.704,0.103-1.029c0-0.076-0.025-0.103-0.103-0.103
		c0.024-0.176,0.152-0.25,0.103-0.477c-0.025-0.075,0.05-0.051,0.05-0.128c0-0.575,0.073-0.853,0.125-1.405
		c0.026-0.025,0.049-0.025,0.074-0.025c-0.048-0.151-0.126-0.401,0.052-0.553c-0.1-0.126-0.077-0.229-0.052-0.451
		c0.102-0.025,0.178-0.025,0.227-0.05c0.025-0.152-0.148,0.05-0.175-0.075c0-0.126,0.2-0.053,0.3-0.103
		c-0.048,0.025-0.025,0.125-0.075,0.178c0.127,0.024,0.075-0.152,0.127-0.178c-0.077-0.023-0.077-0.149-0.151-0.199
		c-0.074,0.024,0,0.149-0.025,0.199c-0.075,0-0.075-0.075-0.149-0.05c0.077-0.476,0-0.878,0.199-1.156
		c-0.074-0.124,0-0.274,0.103-0.376c0-0.025-0.103-0.025-0.103,0c-0.026-0.301,0.152-0.855,0.152-1.203c0.024,0,0.077,0,0.102,0
		c0.022-0.102-0.102-0.026-0.102-0.128c0.149-0.654,0.226-1.154,0.3-1.682c0.05,0,0.074,0,0.126,0
		c-0.052-0.228,0.103-0.379-0.052-0.452c0.052-0.178,0.154-0.505,0.077-0.628c0.174-0.175,0.05-0.451,0.226-0.728
		c0.078,0,0.05,0.127,0.05,0.226c0.051,0.025,0.178-0.148,0.35-0.099c-0.149,0-0.097-0.228-0.227-0.277
		c-0.05,0.026-0.023,0.075-0.023,0.125c-0.102,0-0.203,0.025-0.203-0.101c0.077,0.024,0.13,0,0.153-0.025
		c-0.176-0.251,0.023-0.603,0.102-0.93c0.251,0.075-0.052,0.477-0.028,0.628c0.053,0.076,0.078,0.125,0.028,0.226
		c0.124-0.025,0.102-0.201,0.049-0.276c0.202,0.025,0.053-0.077,0.127-0.125c0.125,0,0.099,0.149,0.151,0.201
		c0.126-0.051-0.026-0.277,0.126-0.351c0.024,0,0.024-0.026,0.024-0.05c-0.024,0-0.024,0.025-0.024,0.05
		c-0.053,0-0.077-0.026-0.103-0.026c-0.023,0.026-0.05,0.076-0.05,0.151c-0.075,0.026-0.103-0.075-0.125,0
		c-0.074,0-0.052-0.125-0.052-0.226c0.15,0,0,0.125,0.074,0.15c0.053-0.1,0.053-0.226,0.129-0.3c0.15,0,0.15,0.149,0.275,0.149
		c0.026,0.125-0.125,0.05-0.1,0.15c0.047,0.125,0.126-0.1,0.126,0c0.051,0.149-0.126,0.25,0,0.277c0,0.05,0.023,0.075,0.023,0.1
		c0,0.126-0.103,0.126-0.199,0.177c0.024,0.098,0.074-0.049,0.149,0c0.024,0.203-0.249,0.077-0.249,0.277
		c-0.026,0-0.053,0-0.053,0.025c0.026,0.052,0.076,0.026,0.053-0.025c0.072,0,0.072-0.051,0.124-0.024
		c-0.052,0.102,0.05,0.2-0.052,0.3c-0.049,0-0.025-0.051-0.072-0.073c-0.103,0.073,0.149,0.298-0.053,0.225
		c-0.05,0.176,0.177,0.1,0.125,0.325c-0.049-0.149-0.175-0.024-0.3-0.1c0.024,0.178,0.202,0.151,0.3,0.126
		c-0.025,0.151-0.125,0.2-0.228,0.3c0.027,0.026,0.103,0.051,0.13,0c0.098,0.076-0.027,0.176,0,0.278
		c-0.077,0.024-0.077-0.053-0.152-0.026c0-0.073,0.053-0.1,0.022-0.201c-0.148,0-0.097,0.125-0.148,0.201
		c-0.078,0.076-0.05-0.049-0.15-0.049c-0.053,0.049,0.05,0.149,0,0.249c0.075,0,0.075-0.074,0.075-0.15
		c0.075,0.026,0.326-0.05,0.276,0.176c-0.101,0.024-0.101-0.051-0.149,0c-0.075,0.227,0.227,0.605-0.052,0.577
		c0.126-0.05,0.052-0.201-0.075-0.176c-0.128,0.151,0.127,0.126,0.075,0.302c-0.075,0.074-0.023-0.078-0.101,0
		c0.075,0.074-0.024,0.174,0.101,0.199c-0.023,0.102-0.075,0.102,0.052,0.153c-0.152,0.049-0.127,0.226-0.279,0.248
		c0,0.076,0.076,0.076,0.076,0.127c-0.124,0.051-0.023,0.2-0.05,0.253c0,0.148-0.074,0.023-0.126,0
		c-0.025,0.125-0.198,0.073-0.175,0.25c0.1,0.026,0.05-0.102,0.1-0.125c0.026,0.075,0.175,0.023,0.199,0.125
		c-0.1,0.124-0.224,0.228-0.124,0.4c-0.072,0-0.072-0.05-0.149-0.073c-0.025-0.102,0.05-0.102,0.024-0.204
		c-0.149,0.027-0.05,0.328-0.149,0.43c-0.077,0-0.127-0.052-0.203-0.079c0-0.097,0.051-0.146,0.026-0.273
		c0.125-0.025,0.05,0.127,0.125,0.149c0.127-0.075-0.026-0.226-0.099-0.3c-0.179,0.3-0.102,0.803-0.201,1.18
		c0.048,0.102,0.249,0.127,0.3,0.026c-0.075-0.026-0.15-0.051-0.099-0.176c-0.076,0,0,0.176-0.153,0.149
		c0.077-0.149,0.024-0.199,0.127-0.277c-0.075-0.024-0.075-0.273-0.025-0.349c0.075,0.076,0.1,0,0.202,0.05
		c0,0.05,0.022,0.126-0.052,0.103c0.127,0.047,0.025,0.149,0.127,0.173c0.1-0.173-0.027-0.298,0-0.502
		c0.177,0.076,0.251,0.528,0.074,0.578c0.076,0.075,0.024,0.177,0,0.251c-0.024,0-0.05-0.051-0.074-0.051
		c-0.127,0.126-0.027,0.25-0.1,0.428c0.124,0.025,0.024-0.178,0.1-0.178c0.05,0,0.05,0.026,0.127,0.026
		c-0.027,0.077-0.053,0.177-0.103,0.227c-0.077-0.026-0.151,0-0.177-0.075c-0.05,0.099-0.125,0.099-0.227,0.049
		c0,0.05,0.024,0.076,0.052,0.103c0.025,0,0.175,0.05,0.175-0.026c0.152,0.152-0.1,0.228,0,0.401
		c-0.05,0.077-0.125-0.05-0.149,0.077c0.149,0.1,0.202-0.077,0.302-0.179c0.097,0.126-0.13,0.102-0.027,0.252
		c-0.072,0.026-0.175,0.102-0.251,0.05c0,0.201,0.203,0.052,0.251,0.226c-0.025,0.077-0.125,0.127,0,0.152
		c-0.025,0.052-0.048,0.074-0.125,0.074c0.152,0.102,0.025,0.252,0,0.401c-0.149,0.027-0.073-0.199-0.175-0.227
		c-0.027-0.1,0.075-0.1,0.102-0.149c-0.255-0.127-0.076,0.352-0.179,0.626c0.077,0.05,0.179,0.05,0.251,0.102
		c-0.024,0.1-0.049,0.176-0.148,0.202c0-0.103-0.053-0.127-0.076-0.177c-0.103,0.024-0.026,0.352-0.203,0.226
		c0,0.076,0.053,0.076,0.053,0.1c0.124,0.026,0.101-0.1,0.201-0.1c-0.051,0.15-0.201,0.327-0.124,0.502
		c0.196,0.026-0.027-0.376,0.173-0.351c0.051,0.126-0.023,0.176,0.051,0.278c-0.127,0.023,0.025,0.299-0.051,0.401
		c-0.049,0.024-0.202,0.073-0.25,0.024c0,0.101-0.025,0.225-0.025,0.352c0.05,0,0.025-0.077,0.126-0.051
		c0.05-0.126-0.076-0.101-0.053-0.176c0.053-0.026,0.053-0.101,0.153-0.077c0,0.253,0,0.452-0.051,0.753
		c-0.073,0.027-0.073-0.022-0.103-0.074c-0.126,0.052-0.101,0.226-0.073,0.351c0,0.026,0,0.05,0,0.076
		c0.05-0.026,0.05-0.076,0-0.076c0-0.05,0-0.1,0-0.149c0.073,0,0.149,0,0.149-0.05c-0.022,0.401,0.05,0.651-0.076,1.03
		c0,0.05,0.076,0,0.076,0.05c0.05,0.201-0.124,0.151-0.177,0.252c0.027,0.023,0.101,0.023,0.13,0.073
		c-0.027,0.453,0.047,0.806-0.077,1.182c-0.025,0.103,0.124,0.025,0.102,0.103c0,0.073-0.054,0.099-0.127,0.073
		c0.025,0.073,0.149,0.023,0.149,0.073c0,0.103,0.05,0.255-0.076,0.229c0.28,0.074,0.201,0.477,0.226,0.729
		c-0.072-0.028-0.196-0.126-0.273-0.053c-0.654-0.451-1.006-1.556-0.904-2.562c-0.05-1.783,0.25-3.44,0.403-4.948
		c0-0.601,0.124-1.155,0.199-1.758c0.05,0,0.074,0,0.1,0c-0.126-0.376,0.124-0.854,0.124-1.28c0.025,0,0.078,0,0.126,0
		c-0.023-0.052-0.048-0.052-0.101-0.052c0.177-1.003,0.354-1.933,0.506-2.963c0-0.101,0.1-0.101,0.125-0.126
		c-0.077-0.326,0.05-0.503,0.074-0.829c0.075,0,0.05,0.05,0.099,0c0-0.05-0.073,0-0.073-0.075c0.024-0.527,0.276-0.98,0.276-1.458
		c0.051-0.076,0.152-0.252,0.077-0.351c0.274-0.854,0.397-2.009,0.703-2.711c-0.026-0.05-0.05-0.076-0.026-0.152
		c0.352-1.18,0.627-2.437,0.854-3.742c0.025-0.149,0-0.251-0.05-0.351c-0.149,0.125-0.401,0.176-0.451,0.402
		c-0.127,0.05,0-0.125-0.101-0.101c-0.05-0.024-0.101,0.151,0,0.101c-0.026,0.101-0.126,0.177-0.202,0.074
		c0,0.077-0.102,0.077-0.102,0.152c0.027,0.073,0.078-0.05,0.125,0c-0.073,0.125-0.249,0.125-0.323,0.276
		c0.024,0.05,0.05-0.025,0.1,0c-0.026,0.125-0.149,0.125-0.149,0.25c0.124,0.025,0.224-0.25,0.349-0.327
		c-0.126,0.302-0.376,0.503-0.556,0.754c0.078,0.127,0.078-0.076,0.154-0.049c-0.023,0.098-0.053,0.201-0.178,0.201
		c0-0.024,0-0.05,0-0.076c-0.072,0.076-0.099,0.177-0.201,0.227c-0.023,0.1,0.103,0.077,0.053,0.176
		c-0.076,0.024-0.103,0-0.076-0.074c-0.126,0.074,0.023,0.201-0.05,0.275c-0.103-0.049-0.201,0.05-0.201-0.101
		c-0.102-0.026-0.05,0.126-0.149,0.101c-0.026-0.125,0.072-0.177,0-0.25c-0.052,0-0.026,0.1-0.102,0.1c0-0.1,0.102-0.1,0.077-0.226
		c0.024,0,0.024-0.025,0.024-0.05c0.048-0.024,0-0.05,0,0c-0.024,0-0.024,0.024-0.024,0.05c-0.077,0.026-0.103,0.125-0.155,0.176
		c0,0.05,0.053,0.024,0.078,0.05c-0.053,0.101-0.126,0.277-0.251,0.226c0,0.076,0.026,0.149,0.073,0.176
		c0.125-0.226,0.279-0.176,0.477-0.201c0.051,0.101,0.027,0.077,0,0.176c-0.048,0-0.098,0-0.149,0
		c0.052,0.277-0.174,0.277-0.174,0.528c-0.102,0.024-0.025-0.1-0.126-0.1c0.048,0.226,0,0.226-0.051,0.402c-0.05,0-0.103,0-0.149,0
		c0,0.05,0,0.1,0,0.174c-0.103,0.024-0.126-0.05-0.179-0.074c-0.102,0.1-0.025,0.15,0.025,0.227
		c-0.025,0.25-0.225,0.325-0.276,0.578c-0.075,0-0.102,0.125-0.175,0.048c-0.301,0.88-0.805,1.533-1.158,2.387
		c-0.048,0-0.048,0.101-0.149,0.075c-0.023,0.327-0.101,0.603-0.35,0.705c0,0.274-0.274,0.501-0.302,0.878
		c-0.199,0.073-0.199,0.528-0.398,0.602c0.074,0.151-0.178,0.227-0.15,0.503c-0.327,0.351-0.379,1.004-0.78,1.305
		c0,0.052,0,0.126,0,0.176c-0.577,1.155-1.106,2.414-2.011,3.267c-0.097-0.026-0.125,0.05-0.25,0.024
		c-0.024,0.027-0.024,0.103-0.073,0.126c-0.202,0-0.303-0.099-0.452-0.05c-0.153-0.253-0.327-0.328-0.427-0.627
		c-0.327,0.023-0.226-0.376-0.376-0.528c-0.052-3.191,0.679-6.331,1.281-9.495c-1.584,2.061-2.564,4.748-3.542,7.409
		c0,0.074,0,0.127,0,0.203c-0.051,0.047-0.051,0.149-0.149,0.176c0.024,0.074,0.098,0.05,0.074,0.124
		c-0.125,0.152-0.101,0.451-0.251,0.628c-0.351,1.731-0.854,3.267-1.179,5.05c-0.125,0.451-0.101,1.104-0.375,1.507
		c-0.101,0.05-0.202,0.125-0.279,0.225c-0.048-0.023-0.125-0.023-0.1-0.1c0,0.076-0.101,0.076-0.149,0.149
		c-0.101-0.05-0.101-0.2-0.252-0.2c-0.023-0.051-0.076-0.101-0.076-0.2c-0.024,0-0.048,0.025-0.048,0.05
		c-0.052-0.1-0.178-0.126-0.153-0.326c-0.05-0.05-0.074,0.025-0.149-0.023c-0.024-0.053-0.076-0.129-0.101-0.179
		c0.177-2.158,0.528-4.546,0.727-6.757c0.178-0.604,0.101-1.331,0.354-1.782c0-1.758,0.603-3.516,0.728-5.201
		c0.302-0.727,0.326-1.708,0.854-2.209c0.528,0.076,0.677,0.527,0.879,0.931c0,0.149-0.178,0.201-0.049,0.276
		c-0.153,0.1-0.178,0.352-0.178,0.602c-0.501,1.132-0.601,2.738-0.903,3.944c0.052,0.1-0.102,0.023-0.078,0.1
		c-0.024,0-0.024,0-0.048,0.024c-0.024,0-0.024,0-0.024,0.024c0.024,0.05,0.048,0,0.024-0.024c0.048,0,0.048,0,0.048-0.024
		c0.028,0,0.028,0.024,0.054,0.024c0,0.125-0.054,0.202-0.025,0.326c-0.052,0.05-0.101-0.025-0.153,0.074
		c0,0.126,0.077-0.024,0.125,0.051c-0.048,0.25-0.048,0.426-0.096,0.729c-0.101,0.025-0.053,0.025-0.153,0
		c0.125,0.149,0.101,0.375,0.026,0.578c-0.026-0.025-0.026-0.05-0.026-0.101c-0.101,0.026,0,0.101-0.05,0.176
		c0,0.05,0.05,0.05,0.077,0.024c0,0.077-0.051,0.101-0.026,0.202c-0.024,0.023-0.074,0.023-0.151,0.023
		c0.276,0.026,0,0.352,0.102,0.479c0.375-0.979,0.751-2.008,1.079-2.913c1.007-2.061,1.761-4.371,3.542-5.628
		c0.278,0.075,0.602,0.075,0.804,0.101c0.052,0.051-0.024,0.051-0.051,0.125c0.604-0.101,0.679,0.729,0.502,1.029
		c0.227,0.377-0.15,1.082-0.125,1.356c0,0.049-0.024,0.049-0.101,0.049c0.052,0.277-0.174,0.806-0.151,1.207
		c-0.076,0.025-0.101,0.077-0.153,0.127c-0.024,0.098,0.129,0.024,0.101,0.149c-0.199,0,0,0.101-0.023,0.202
		c-0.051,0-0.102,0-0.126,0c0,0.126,0.024,0.25,0.076,0.301c-0.153,0.101-0.027,0.478-0.153,0.603c-0.073,0-0.049-0.1-0.149-0.025
		c0,0.077,0.075,0.077,0.149,0.102c-0.049,0.175-0.352-0.052-0.323,0.175c0.024,0.051,0.097-0.077,0.222-0.026
		c-0.048,0.128-0.097,0.177,0.052,0.202c0,0.024,0,0.075-0.024,0.101c0,0.125-0.053,0-0.101,0c0,0.024,0,0.048-0.024,0.048
		c0,0.101,0.126,0.077,0.126,0.152c-0.052,0.101-0.052,0.226-0.101,0.327c-0.024,0-0.024-0.076-0.024-0.125
		c-0.077,0.1-0.077,0.226,0.024,0.251c0.049,0.327-0.149,0.375-0.202,0.603c0.024,0.128,0.125,0.152,0.077,0.327
		c-0.077,0-0.024-0.103-0.101-0.126c-0.052,0.126,0.024,0.152,0.076,0.201c0,0.077-0.1,0.05-0.128,0.152
		c0.052,0.074,0.101-0.05,0.128,0.024c0,0.1-0.076,0.151-0.052,0.302c-0.049,0-0.076-0.026-0.076-0.078
		c-0.199,0.253-0.073,0.479-0.073,0.805c-0.101-0.049-0.125-0.023-0.153,0.051c0,0.05,0.077,0.025,0.128,0.025
		c-0.153,0.1-0.053,0.376-0.202,0.399c0.101,0.076,0.125,0.202,0,0.302c0.049,0.075,0.101-0.051,0.202,0
		c0,0.251-0.178,0.151-0.279,0.277c0,0.023,0.226,0.05,0.178-0.05c0.073,0.15-0.077,0.226,0.024,0.375c-0.077,0-0.077-0.049-0.15,0
		c0,0.151,0.073,0.227,0.125,0.302c-0.077-0.026-0.226-0.078-0.201,0.05c0.023,0.075,0.1-0.025,0.174,0.024
		c-0.05,0.127-0.126,0.202-0.151,0.352c0.101,0,0.125-0.051,0.125-0.15c0.277-0.176,0.553-0.854,0.804-1.306
		c0.125-0.228,0.302-0.429,0.327-0.704c0.024,0,0.077,0,0.102,0c0.251-0.553,0.501-1.08,0.827-1.559
		c0.251-0.727,0.703-1.255,0.905-1.983c0.478-0.628,0.778-1.432,1.179-2.109c0.101-0.024-0.023,0.126,0.076,0.126
		c0.127-0.076-0.05-0.15,0-0.301c0.047-0.025,0.103-0.075,0.149-0.101c0.202-0.602,0.605-1.03,0.855-1.557c0.025,0,0.025,0,0.05,0
		c0,0.025,0.024,0.025,0.052,0.025c0-0.025-0.026-0.025-0.052-0.025c0.553-0.954,1.179-1.809,1.859-2.637c0.024,0.051,0.05,0,0,0
		c0.451-0.427,0.778-0.98,1.455-1.179c0.202,0.176,0.452,0.1,0.681,0.226c0.047,0.073-0.05,0.05-0.127,0.05
		c0.227,0.05,0.375,0.15,0.501,0.301c-0.023,0.1-0.1,0-0.149,0c0,0.227,0.327,0.352,0.201,0.529c0.301,0.326,0,1.055-0.025,1.583
		c-0.05,0.024-0.05,0.049-0.126,0.024c0.201,0.302-0.152,0.628-0.025,0.854c-0.149,0-0.024,0.277-0.176,0.277
		c0.099,0.15,0,0.325-0.123,0.426c0.024,0.051,0.047-0.05,0.072,0.025c0,0.101-0.025,0.177-0.025,0.301
		c-0.177-0.027-0.023,0.3-0.275,0.226c0.024-0.327,0.152-0.503,0.152-0.829c-0.026,0.15-0.126,0.252-0.103,0.451
		c-0.05,0.05-0.126,0.05-0.203,0.074C49.325,36.564,49.325,36.564,49.325,36.54z M34.257,49.575c0.25-1.732,0.427-3.415,0.653-5.196
		c0.049-0.58,0.199-1.132,0.175-1.686C34.757,45.029,34.456,47.09,34.257,49.575C34.18,49.575,34.305,49.7,34.257,49.575z
		 M34.785,47.19c0,0.047-0.077,0.226,0,0.326C34.785,47.416,34.857,47.265,34.785,47.19z M34.857,46.462
		c0.051,0.252-0.149,0.528-0.024,0.703C34.81,47.016,34.982,46.587,34.857,46.462z M34.934,46.033
		c-0.052,0.077-0.024,0.228-0.077,0.302C35.035,46.335,34.91,46.086,34.934,46.033z M34.958,45.834c0.052,0.075-0.077,0.125,0,0.15
		C34.982,45.959,35.035,45.834,34.958,45.834z M34.982,45.456c0.027,0.101-0.073,0.226,0,0.277
		C34.982,45.658,35.083,45.532,34.982,45.456z M35.136,45.859c0.024,0,0.073,0,0.073-0.026
		C35.185,45.834,35.136,45.834,35.136,45.859z M35.209,43.798c0.076,0.051,0.076-0.1,0.026-0.075c0,0.026,0,0.026-0.026,0.026
		C35.209,43.775,35.209,43.798,35.209,43.798z M35.285,43.247c-0.023,0.023-0.023,0.1-0.023,0.174
		C35.361,43.474,35.333,43.247,35.285,43.247z M35.261,46.913c0.023,0,0.048,0,0.048,0c0.024-0.024,0.024-0.024,0.051-0.024
		c0-0.025,0-0.05,0-0.075c-0.027,0-0.053,0-0.077,0c0,0.025,0,0.05-0.024,0.05C35.261,46.863,35.261,46.886,35.261,46.913z
		 M35.736,45.356c-0.076,0.076-0.051,0.2-0.024,0.301C35.712,45.557,35.837,45.431,35.736,45.356z M38.927,37.167
		c-0.253,0.25-0.351,0.654-0.553,0.956c-0.052-0.05-0.125-0.05-0.149,0c-0.027,0.1,0.097,0.049,0.097,0.149
		c-0.049,0,0,0.101-0.073,0.076c0.024-0.151-0.178,0.024-0.078,0.024c0.024-0.024,0.054-0.024,0.078-0.024
		c0.024,0.126-0.078,0.151-0.126,0.101c0,0.101-0.027,0.15-0.053,0.202c0.024,0,0.077,0,0.077,0.025
		c-0.024,0.101-0.101,0.101-0.177,0.077c0.125,0.202-0.074,0.3-0.175,0.375c-0.024,0.101,0.101,0.074,0.049,0.202
		c-0.024,0.024-0.073,0.024-0.149,0.024c0.101,0.101,0.024,0.251-0.126,0.277c0.102,0.226-0.277,0.528-0.177,0.677
		c-0.024,0.076-0.074,0.1-0.149,0.126c0.125,0.201-0.101,0.302-0.178,0.351c0.128,0.152-0.048,0.578-0.199,0.528
		c0.125,0.327-0.278,0.702-0.226,1.056c-0.101-0.026-0.077,0.101-0.177,0.077c0,0.603-0.399,1.204-0.452,1.758
		c0-0.026,0.027-0.026,0.027,0c-0.077,0.023-0.128,0.1-0.051,0.176c-0.05,0-0.05,0.026-0.102,0.026c0,0.249-0.073,0.426-0.149,0.601
		c0.025,0,0.025,0.052,0.025,0.077c0,0,0,0-0.025,0c0,0.074,0,0.177,0.077,0.177c-0.027-0.053,0.024-0.053,0.024-0.103h0.024
		c-0.024-0.3,0.25-0.628,0.202-1.004c0.173,0,0.125-0.126,0.072-0.201c0.178-0.126,0.254-0.476,0.226-0.704
		c0.075,0.053,0.051-0.025,0.101-0.05c0-0.076-0.05-0.076-0.05-0.15c0.05-0.051,0.05,0.023,0.102-0.025
		c0.024-0.103-0.028-0.152-0.028-0.227c0.052-0.024,0.076,0.024,0.128,0.024c0.024-0.1,0-0.176-0.027-0.25
		c0.052,0,0.101-0.05,0.153-0.075c0.024-0.428,0.324-0.705,0.299-1.057c0.153-0.024,0.153-0.226,0.125-0.351
		c0.027,0,0.077-0.025,0.101-0.05c0.024-0.501,0.403-0.727,0.452-1.256c0.149-0.225,0.302-0.477,0.302-0.828
		c0.175,0.024,0.202-0.152,0.149-0.277c0.149,0.026,0.149-0.125,0.125-0.251c0.226-0.078,0.302-0.402,0.302-0.554
		c0.202-0.125,0.202-0.351,0.299-0.552c0,0.049,0.027,0.076,0.027,0.076c0.073-0.076,0.049-0.101,0.049-0.227
		c0.077-0.049,0.101-0.125,0.202-0.175c-0.051-0.076,0-0.125,0.024-0.202c0.023,0,0.05,0.025,0.1,0.025
		c0.125-0.351,0.303-0.502,0.478-0.854c-0.1,0-0.077,0.076-0.174,0.051c-0.027,0.201-0.227,0.452-0.428,0.601
		c0.024,0.277-0.25,0.277-0.202,0.553C38.953,37.167,38.953,37.167,38.927,37.167z M35.837,43.145c0,0.053-0.077,0.025-0.077,0.103
		C35.837,43.271,35.912,43.171,35.837,43.145z M35.837,45.156c-0.052,0-0.077-0.025-0.077-0.075
		C35.837,45.079,35.837,45.106,35.837,45.156z M35.886,43.474c-0.024,0.05-0.101,0.175,0,0.175
		C35.862,43.573,35.99,43.523,35.886,43.474z M36.014,42.341c0.053-0.075-0.101-0.101-0.101-0.05c0.026,0,0.051,0.026,0.051,0.05
		C35.964,42.341,35.99,42.341,36.014,42.341z M36.041,44.402c-0.027,0-0.051,0-0.051-0.023
		C36.014,44.379,36.041,44.379,36.041,44.402z M36.893,41.915c-0.048-0.025,0-0.051,0-0.101
		C36.942,41.84,36.893,41.865,36.893,41.915z M37.495,41.312c0.025,0,0.051,0,0.051-0.024C37.52,41.289,37.495,41.289,37.495,41.312
		z M37.847,40.608c-0.024,0-0.024-0.025-0.073-0.025c0,0.078-0.052,0.078-0.052,0.151C37.822,40.734,37.847,40.685,37.847,40.608z
		 M37.847,40.483c0.024,0,0.077,0,0.077-0.026C37.897,40.458,37.847,40.458,37.847,40.483z M37.923,40.308c0,0.026,0,0.076,0,0.1
		C38,40.458,38,40.258,37.923,40.308z M38.072,39.931c0.024,0.075-0.049,0.101-0.049,0.176
		C38.123,40.157,38.123,39.931,38.072,39.931z M38.424,39.33C38.549,39.33,38.424,39.202,38.424,39.33
		C38.299,39.303,38.424,39.428,38.424,39.33z M38.375,37.847c0,0.05-0.024,0.101,0.024,0.125
		C38.424,37.922,38.424,37.847,38.375,37.847z M38.549,38.952c-0.098-0.05-0.126,0.125-0.074,0.125
		C38.501,39.026,38.525,39.001,38.549,38.952z M39.505,36.867c0.024-0.05,0.073-0.077,0.073-0.151c0.027,0,0-0.024,0,0
		C39.479,36.691,39.454,36.84,39.505,36.867z M39.529,36.943c0,0.024-0.052,0.074,0,0.074
		C39.554,36.992,39.606,36.968,39.529,36.943z M39.656,45.156c0,0.074-0.024,0-0.05-0.025c-0.026,0.201-0.077,0.504,0.026,0.629
		C39.68,45.607,39.781,45.28,39.656,45.156z M39.68,45.129c0.026-0.075,0.052-0.1,0.052-0.201c-0.202,0.026,0-0.151-0.076-0.226
		c-0.101,0.1-0.05,0.202-0.077,0.401C39.68,45.079,39.632,45.079,39.68,45.129z M39.906,41.789c0,0.378-0.173,0.83-0.173,1.306
		c0,0.026,0.073,0,0.073,0.053c-0.226,0.377-0.125,0.978-0.199,1.53c0.05,0,0.05-0.023,0.125-0.023
		c0.024-0.126-0.101-0.102-0.077-0.202c0.149-0.276,0.101-0.604,0.149-0.953c0,0.05-0.048,0.074-0.048,0.05
		c0.226-0.226,0.023-0.679,0.201-1.055c-0.052-0.026-0.052-0.05-0.052-0.126c0.052,0,0.052-0.024,0.077-0.024
		c0.125-0.703,0.25-1.358,0.275-1.959c0.101-0.026-0.024-0.126,0,0C39.958,40.784,40.132,41.312,39.906,41.789z M39.805,45.229
		c0.077,0,0.077,0.025,0.125,0.025c0.028-0.126,0.028-0.399-0.099-0.251C40.007,45.054,39.805,45.156,39.805,45.229z M39.805,45.884
		c0.051,0,0.101,0,0.101-0.024C39.856,45.859,39.805,45.859,39.805,45.884z M39.832,45.431c0.024,0,0.074,0,0.074-0.025
		C39.88,45.406,39.856,45.406,39.832,45.431z M39.93,45.607c-0.099,0-0.125,0.126-0.024,0.126
		C39.906,45.682,39.93,45.682,39.93,45.607z M39.93,44.553c-0.024,0.125-0.024,0.177-0.05,0.302
		C39.958,44.854,40.007,44.628,39.93,44.553z M39.958,44.149c0.024,0.076-0.078,0.151,0,0.201
		C39.958,44.276,40.083,44.176,39.958,44.149z M39.982,44.075c-0.024-0.151,0.101-0.125,0.125-0.2
		c-0.178-0.103,0.05-0.302-0.077-0.379c-0.049,0.051,0,0.202-0.101,0.202C40.083,43.825,39.88,43.95,39.982,44.075z M40.059,35.612
		c-0.077,0-0.153,0.125-0.101,0.149C39.982,35.687,40.059,35.711,40.059,35.612z M40.083,43.321c-0.024,0-0.077,0-0.101,0.027
		c0.077,0,0,0.148,0.101,0.101C40.083,43.396,40.083,43.371,40.083,43.321z M40.032,43.271c0.077,0.05,0.077-0.101,0.027-0.101
		c0,0.026,0,0.05-0.027,0.026C40.032,43.221,40.032,43.247,40.032,43.271z M40.083,44.452c0,0.023-0.051,0.051,0,0.076
		C40.083,44.503,40.132,44.479,40.083,44.452z M40.108,35.561c0.102,0,0.102-0.075,0.126-0.125
		C40.132,35.408,40.156,35.51,40.108,35.561C40.083,35.561,40.108,35.585,40.108,35.561z M40.132,42.568
		c-0.024,0.075-0.048,0.326,0.053,0.326C40.132,42.769,40.185,42.669,40.132,42.568z M40.132,43.497
		c0.078,0.05,0.103-0.101,0.053-0.076c0,0.028,0,0.028-0.053,0.028C40.132,43.474,40.132,43.497,40.132,43.497z M40.208,43.095
		c-0.052,0.025-0.102,0.176,0.024,0.176C40.208,43.221,40.282,43.095,40.208,43.095z M40.208,42.216
		c-0.025,0.024-0.078,0.201,0,0.226C40.258,42.394,40.282,42.292,40.208,42.216z M40.233,44.528c0-0.077,0.125-0.103,0-0.152
		c0,0.024-0.024,0.05-0.05,0.024C40.185,44.479,40.185,44.503,40.233,44.528z M40.233,41.991c0,0.05-0.05,0.075-0.024,0.125
		C40.282,42.167,40.282,41.991,40.233,41.991z M40.233,42.693c0,0.051-0.024,0.152,0.048,0.125
		C40.309,42.743,40.282,42.693,40.233,42.693z M40.282,41.89c0.052-0.05,0.052-0.075-0.024-0.101c0,0.051,0,0.077-0.023,0.101
		C40.258,41.89,40.282,41.89,40.282,41.89z M40.258,40.157c0.202-0.351,0.25-1.081,0.25-1.533c0.226-0.277,0.202-0.855,0.354-1.331
		c-0.101,0.051-0.129,0.176-0.177,0.277c-0.024,0.552-0.327,1.154-0.303,1.758C40.357,39.629,40.208,39.931,40.258,40.157z
		 M40.282,42.418c0.052,0.077-0.072,0.126,0,0.152C40.309,42.568,40.357,42.444,40.282,42.418z M40.282,36.013
		C40.258,36.013,40.309,36.037,40.282,36.013c0.052,0,0.052-0.026,0.052-0.051c0.024,0,0-0.025,0,0
		C40.309,35.962,40.309,35.987,40.282,36.013z M40.282,45.607C40.334,45.607,40.282,45.582,40.282,45.607
		C40.258,45.632,40.309,45.658,40.282,45.607z M40.41,44.678c0.024-0.076-0.101-0.05-0.129-0.125c0,0.049,0,0.1,0,0.125
		C40.334,44.678,40.382,44.678,40.41,44.678z M40.357,43.95c-0.048,0.05-0.024,0.125,0.024,0.149
		C40.382,44.05,40.458,43.974,40.357,43.95z M40.41,41.689c0,0.05-0.028,0.074-0.053,0.126C40.434,41.84,40.484,41.713,40.41,41.689
		z M40.51,40.407c0,0.05-0.074,0.202,0,0.226C40.535,40.559,40.609,40.458,40.51,40.407z M40.535,40.784
		c-0.051,0.101,0.125,0.101,0.125,0.05C40.609,40.809,40.609,40.784,40.535,40.784z M40.661,40.333
		c0.048-0.075-0.101-0.075-0.101-0.025c0.024,0,0.049,0,0.024,0.025C40.609,40.333,40.636,40.333,40.661,40.333z M40.636,43.749
		c-0.077,0.023-0.077-0.051-0.077-0.101C40.609,43.673,40.636,43.698,40.636,43.749z M40.636,44.075
		c-0.101-0.052-0.028-0.125-0.052-0.227C40.661,43.875,40.609,44,40.636,44.075z M40.71,42.492c0,0.025,0,0.049,0,0.076
		C40.811,42.618,40.811,42.444,40.71,42.492z M40.811,36.766c0.024,0.05-0.048,0.201,0.052,0.176
		C40.887,36.84,40.863,36.79,40.811,36.766z M40.835,36.992c0.027,0.074-0.024,0.2,0.027,0.226
		C40.912,37.167,40.937,36.992,40.835,36.992z M40.937,41.84c-0.074,0-0.024-0.149-0.05-0.226
		C41.037,41.614,40.887,41.74,40.937,41.84z M40.961,38.047c0,0.051-0.024,0.125,0.027,0.125
		C41.037,38.124,41.037,38.072,40.961,38.047z M41.187,36.263c-0.048,0-0.124,0-0.15,0.077
		C41.087,36.364,41.214,36.364,41.187,36.263z M41.113,37.521h0.026c0-0.026,0.076-0.125,0-0.125
		C41.113,37.419,41.113,37.469,41.113,37.521C41.061,37.521,41.113,37.544,41.113,37.521z M41.164,40.308
		c-0.024,0-0.024,0.026-0.024,0.026c-0.026,0-0.026-0.051-0.026-0.076C41.164,40.231,41.164,40.282,41.164,40.308z M41.187,44.904
		c0,0.023-0.023,0.05-0.023,0.1C41.262,45.029,41.287,44.904,41.187,44.904z M41.441,44.479c-0.053,0.074-0.254,0.251-0.103,0.349
		C41.338,44.678,41.539,44.602,41.441,44.479z M41.465,44.452c0.151-0.073,0.251-0.227,0.251-0.452c0.048,0,0.101,0,0.149,0
		c0.054-0.125-0.073-0.201,0-0.25c0.054,0,0.024,0.075,0.054,0.1c0.101-0.276,0.275-0.576,0.326-0.804
		c0.024,0.049,0,0.099,0.05,0.099c0.023-0.124,0.101-0.199,0.149-0.299c-0.101,0.024-0.074-0.05-0.149-0.026
		C42.042,43.271,41.715,43.875,41.465,44.452z M41.639,36.064c0-0.05,0.125-0.126,0.052-0.152c0,0.05-0.1,0.025-0.1,0.101
		C41.639,36.013,41.614,36.064,41.639,36.064z M45.711,36.189c0.1,0.051,0,0.226-0.076,0.125c0,0.277-0.126,0.402-0.252,0.553
		c-0.023,0,0-0.077-0.052-0.077c-0.026,0.05-0.072,0.077-0.072,0.152c-0.026,0-0.076,0-0.103,0
		c-0.023,0.151,0.126,0.101,0.103,0.226c-0.202,0.024-0.126,0.3-0.302,0.352c0.023,0.176-0.05,0.277-0.175,0.327
		c-0.253,0.727-0.704,1.255-0.957,1.984c-0.327,0.503-0.603,1.029-0.829,1.633c-0.048,0-0.022,0.075-0.1,0.051
		c0.025,0.2-0.15,0.426-0.275,0.577c-0.024,0.099,0.074,0.051,0.048,0.149c-0.199,0.025-0.173,0.277-0.3,0.402
		c0.101-0.025,0.024,0.152,0.101,0.176c0.098-0.176,0.223-0.325,0.3-0.527c-0.151,0.025,0.024-0.101-0.077-0.149
		c0.202-0.078,0.354-0.403,0.506-0.629c0-0.05-0.053-0.05-0.053-0.126c0.153-0.125,0.301-0.251,0.278-0.529
		c0.101,0,0.072,0.05,0.123,0c-0.023-0.2,0.15-0.2,0.024-0.324c0.076-0.025,0.076-0.128,0.179-0.101
		c0.047-0.101-0.077-0.025-0.053-0.126c0.053-0.051,0.053,0,0.126,0c0.053-0.201,0.075-0.402,0.276-0.502
		c0-0.102-0.075-0.152,0.026-0.176c0,0.101,0.024,0,0.076,0.024c0.073-0.125,0.049-0.176,0-0.302
		c0.198-0.201,0.301-0.578,0.452-0.701c-0.052,0.024-0.052-0.026-0.052-0.051c0.076-0.074,0.026,0,0.102,0.025
		c-0.025-0.15,0.1-0.1,0.1-0.276c0.025,0,0.025,0,0.049,0c0.126-0.302,0.278-0.603,0.452-0.954c0.024,0,0.053,0.024,0.076,0.024
		c0-0.176,0.076-0.3,0.226-0.352c-0.024-0.3,0.329-0.477,0.352-0.828c0.049,0,0.049,0.024,0.102,0.024
		c-0.026-0.101,0-0.226,0.072-0.149c0-0.152,0.052-0.178-0.024-0.253c0.1,0.025,0.076-0.024,0.155,0.025
		c0.023-0.176,0.097-0.226,0.172-0.277c-0.125-0.125,0.179-0.125,0.102-0.301c0.025,0.024,0.05,0.024,0.077,0.024
		c0.072-0.301,0.451-0.426,0.377-0.78c0.148-0.049,0.124-0.201,0.299-0.274c0-0.05-0.051-0.05-0.024-0.127
		c0.199-0.025,0.176-0.352,0.349-0.226c-0.025-0.126,0.053-0.201,0-0.252c-0.05,0.026-0.149,0.026-0.175,0.076
		c0.072,0.15-0.177,0.252-0.224,0.376c-0.053,0-0.053-0.076-0.103-0.076c-0.023,0.076,0.05,0.076,0.05,0.149
		c-0.073,0.101-0.15,0-0.252,0.077c0.051,0.048,0.152,0.024,0.152,0.099c-0.051,0.077-0.127,0.077-0.201,0.026
		c0.1,0.25-0.101,0.351-0.203,0.351c0.103,0.024,0.05,0.226-0.077,0.2c0-0.074,0.027-0.1,0.027-0.125
		c-0.074,0.025-0.126,0.102-0.151,0.176c0.076,0,0.1-0.051,0.1,0c0.024,0.125-0.048,0.125-0.125,0.152
		c0-0.05-0.024-0.075-0.049-0.101c0.049,0.277-0.28,0.504-0.327,0.854c-0.052,0-0.075,0-0.1,0c0-0.05,0.048-0.074,0.022-0.125
		c-0.1,0.025-0.076,0.151-0.048,0.226c-0.027,0.024-0.076,0.024-0.154,0.024C45.783,36.114,45.733,36.138,45.711,36.189
		C45.685,36.213,45.733,36.213,45.711,36.189z M42.972,41.664c0,0.025,0,0.049,0,0.076c-0.024,0-0.024,0-0.052,0
		c0-0.026,0-0.05,0-0.076C42.946,41.664,42.946,41.664,42.972,41.664z M43.649,41.338c-0.077,0-0.102,0.048-0.126,0.1
		C43.573,41.413,43.649,41.413,43.649,41.338z M43.725,40.734c0,0.025-0.127,0.125-0.025,0.151
		C43.699,40.858,43.823,40.759,43.725,40.734z M44.102,40.231c0.024-0.024,0.049,0,0.049-0.05
		C44.128,40.207,44.102,40.181,44.102,40.231z M44.176,40.407c0-0.05,0-0.074-0.048-0.074c0,0.05,0,0.101,0.024,0.101
		C44.15,40.407,44.15,40.407,44.176,40.407z M44.402,39.478C44.3,39.478,44.43,39.604,44.402,39.478c0.026,0,0.026-0.05,0.026-0.074
		h0.023c0.025-0.025,0.073-0.151,0-0.176c0.025,0.101-0.023,0.101-0.023,0.176C44.402,39.403,44.402,39.453,44.402,39.478z
		 M44.402,38.875c0-0.05,0-0.101,0-0.125C44.502,38.726,44.502,38.902,44.402,38.875z M44.555,39.654c0-0.025,0-0.05,0-0.075
		c-0.027,0-0.053,0-0.076,0c0,0.024,0,0.051,0,0.075C44.502,39.654,44.527,39.654,44.555,39.654z M44.578,39.051
		c0.026,0,0.026,0,0.05,0c0.026,0,0.051,0,0.026-0.025c-0.026,0-0.026-0.05-0.05-0.074c0,0.024,0,0.049-0.026,0.024
		C44.578,39.001,44.578,39.026,44.578,39.051z M44.654,38.8c0.05,0,0.05,0.05,0.074,0C44.729,38.776,44.679,38.776,44.654,38.8z
		 M44.751,39.127c-0.047,0.024-0.097,0-0.097,0.074C44.729,39.202,44.751,39.178,44.751,39.127z M44.751,38.323
		c0.029,0,0.054,0,0.054,0.026C44.805,38.349,44.751,38.349,44.751,38.323z M44.881,38.475c-0.053,0.051-0.053,0.099,0.025,0.125
		C44.906,38.524,44.956,38.499,44.881,38.475z M45.104,38.6c-0.023-0.125,0.155-0.05,0.103-0.176
		c-0.126,0.024-0.126,0.05-0.199,0.101C45.057,38.524,45.03,38.624,45.104,38.6z M45.255,38.273c-0.053-0.024-0.099,0-0.099,0.05
		C45.183,38.374,45.282,38.349,45.255,38.273z M45.255,37.898c-0.075-0.025-0.125,0.125-0.053,0.149
		C45.232,37.997,45.282,37.972,45.255,37.898z M45.255,36.968c0.05,0,0.026-0.024,0-0.024V36.968z M45.357,37.117
		c0,0.025,0,0.05,0,0.05c-0.026,0-0.053,0-0.053,0s0-0.024,0-0.05C45.305,37.117,45.331,37.117,45.357,37.117z M45.305,37.922
		c0.024,0,0.053,0,0.053-0.024C45.331,37.898,45.305,37.898,45.305,37.922z M45.482,36.49c0.024,0.101-0.153,0.15-0.075,0.226
		C45.432,36.641,45.608,36.49,45.482,36.49z M45.531,36.84c0,0.025,0,0.051,0,0.078c-0.024,0-0.024,0-0.049,0
		c0-0.027,0-0.051,0-0.078C45.509,36.84,45.509,36.84,45.531,36.84z M45.509,37.444C45.457,37.469,45.509,37.495,45.509,37.444
		c0.023,0,0.023-0.026,0.023-0.05c0.026,0,0.026,0,0.026,0c0.026-0.026,0.076-0.125,0-0.125c0,0.024-0.026,0.076-0.026,0.125
		C45.509,37.395,45.509,37.419,45.509,37.444z M45.783,37.217c-0.072-0.152-0.026-0.152,0.026-0.276
		c-0.053,0-0.076,0.025-0.126,0.025C45.685,37.093,45.685,37.192,45.783,37.217z M45.811,37.293
		c-0.053-0.024-0.126,0.075-0.053,0.101C45.758,37.344,45.811,37.344,45.811,37.293z M45.783,36.164
		c0.026-0.125,0.202-0.1,0.202,0.026C45.96,36.138,45.86,36.164,45.783,36.164z M45.908,37.067c-0.025,0-0.072,0.1,0,0.1
		C45.908,37.167,45.985,37.067,45.908,37.067z M45.96,36.943c0.149-0.077,0.227-0.25,0.275-0.428c0.052-0.025,0-0.025,0,0
		C46.085,36.616,46.037,36.766,45.96,36.943z M46.062,35.637c-0.024,0.025-0.126,0.101-0.053,0.125
		C46.009,35.711,46.135,35.661,46.062,35.637z M46.062,36.49c0.023,0,0.048,0,0.048-0.024C46.085,36.466,46.062,36.466,46.062,36.49
		z M46.312,36.239c-0.05,0-0.024-0.101-0.076-0.125c-0.049,0.074-0.102,0.176-0.126,0.25C46.209,36.338,46.235,36.263,46.312,36.239
		z M46.262,53.695c0.025,0.075-0.026,0.251,0.025,0.276C46.312,53.896,46.361,53.721,46.262,53.695z M46.287,53.519
		c0.024,0.1-0.078,0.127,0.024,0.149C46.312,53.618,46.411,53.493,46.287,53.519z M46.287,36.088
		c0.024-0.051,0.101-0.051,0.074-0.152c0.026,0,0.05-0.024,0.075-0.024c0,0.152-0.125,0.202-0.075,0.402
		c0.075-0.125,0.127-0.25,0.202-0.376c0-0.075-0.103-0.048-0.103-0.149c-0.073,0-0.1,0.074-0.1,0.149
		C46.312,35.962,46.235,36.064,46.287,36.088z M46.287,53.22c0.074,0.048,0.101-0.103,0.024-0.103c0,0.024,0,0.051-0.024,0.024
		C46.287,53.168,46.287,53.192,46.287,53.22z M46.312,52.514c0.025,0.152-0.076,0.252,0.05,0.327
		C46.437,52.815,46.411,52.562,46.312,52.514z M46.411,52.062c-0.05,0.05-0.124,0.252,0.025,0.252
		C46.411,52.214,46.461,52.112,46.411,52.062z M46.461,51.61c-0.024,0.073-0.124,0.05-0.1,0.177
		C46.461,51.812,46.615,51.66,46.461,51.61z M46.411,51.988c0.025-0.025,0.05,0,0.05-0.052
		C46.461,51.963,46.411,51.937,46.411,51.988z M46.514,51.41c0-0.075,0-0.176,0.074-0.176c0.053-0.151-0.1-0.352,0.075-0.352
		c-0.048,0.2,0.077,0.076,0,0c-0.075-0.201-0.075-0.555,0.103-0.677c0-0.1-0.025,0.05-0.078,0.023
		c-0.1-0.149,0.025-0.275,0.126-0.352c-0.101,0.027-0.101-0.049-0.15-0.074c0,0.051-0.022,0.074-0.075,0.102
		c0.027,0.148,0.027,0.148-0.024,0.277c0,0.174,0.024,0.25-0.023,0.399c0.075,0.352-0.152,0.654-0.104,0.879
		C46.437,51.41,46.461,51.41,46.514,51.41C46.49,51.537,46.587,51.41,46.514,51.41z M46.514,48.924c0,0.05-0.053,0.024-0.077,0.05
		C46.437,48.924,46.49,48.948,46.514,48.924z M46.461,35.661c0,0.025,0,0.05,0,0.073c0.077,0,0.077-0.023,0.077-0.073
		c0.05,0,0.149-0.125,0.077-0.177c-0.027,0.076-0.077,0.1-0.077,0.177C46.514,35.661,46.49,35.661,46.461,35.661z M46.514,52.214
		c0,0.076,0,0.126,0.05,0.15C46.563,52.314,46.615,52.188,46.514,52.214z M46.615,53.545c0,0.076,0.025,0.201-0.027,0.251
		C46.686,53.82,46.663,53.57,46.615,53.545z M46.764,49.123c0.026-0.076,0.126-0.199,0-0.226c0.026,0.076-0.101,0.026-0.148,0.026
		C46.663,49.021,46.764,48.997,46.764,49.123z M46.663,53.142c0,0.051-0.025,0.051-0.048,0.078
		C46.663,53.294,46.738,53.168,46.663,53.142z M46.615,53.344c0,0.025,0,0.05,0,0.075C46.713,53.469,46.713,53.294,46.615,53.344z
		 M46.813,35.761c-0.101,0.025-0.073-0.049-0.15-0.025c0,0.051-0.1,0.126,0,0.152C46.663,35.811,46.788,35.838,46.813,35.761z
		 M46.764,52.666c-0.076,0-0.126,0.022-0.101,0.125C46.713,52.791,46.788,52.766,46.764,52.666z M46.738,52.815
		c-0.026,0.077-0.125,0.179,0.025,0.179C46.738,52.918,46.89,52.815,46.738,52.815z M46.713,49.201c0,0.023-0.025,0-0.025,0.023
		C46.713,49.375,46.866,49.073,46.713,49.201z M46.738,51.937c-0.053,0.076,0,0.052,0,0.126
		C46.866,52.089,46.866,51.913,46.738,51.937z M47.039,48.748c-0.226-0.027-0.173-0.303-0.149-0.504
		c0.05-0.05,0.179-0.026,0.149-0.126c-0.1,0.05-0.073,0.05-0.199,0c-0.026,0.252-0.026,0.427-0.1,0.654
		C46.913,48.797,46.966,48.772,47.039,48.748z M46.764,35.585c0,0.126,0.229,0.15,0.229,0.026
		C46.966,35.585,46.866,35.612,46.764,35.585z M46.813,51.133c-0.025,0.075,0.026,0.102,0.1,0.102
		C46.966,51.133,46.89,51.133,46.813,51.133z M46.866,51.335c0,0,0-0.026,0-0.053c-0.026,0-0.053,0-0.053,0c0,0.025,0,0.053,0,0.053
		S46.84,51.335,46.866,51.335z M46.913,35.459c0-0.024,0-0.05,0-0.05s-0.025,0-0.05,0c0,0,0,0.025,0,0.05
		C46.89,35.459,46.913,35.459,46.913,35.459z M47.039,50.026c0,0.025-0.023,0-0.047,0C46.992,49.977,47.039,49.977,47.039,50.026z
		 M47.164,50.129c0,0.077-0.098,0.077-0.175,0.077c0-0.026,0-0.077,0-0.103c0.024-0.024,0.077-0.024,0.151-0.024
		C47.142,50.106,47.142,50.129,47.164,50.129z M47.039,49.375c-0.023,0.048-0.023,0.124,0.027,0.124
		C47.066,49.45,47.092,49.399,47.039,49.375z M47.418,46.186c0.05,0.023,0.075-0.025,0.098-0.025c0.028-0.1-0.048-0.1-0.149-0.1
		c-0.048-0.052,0.052-0.102,0-0.201c-0.1-0.026-0.1,0.024-0.199-0.026c0.025,0.327-0.128,0.505-0.128,0.931
		c0.153-0.101,0.077,0.1,0.178,0.125c0-0.1,0.05-0.125,0.05-0.226c-0.1,0-0.15-0.076-0.125-0.229c0.075,0.027,0.075-0.05,0.15-0.023
		c-0.15-0.126,0.026-0.202-0.125-0.298c0.1,0.022,0.125-0.053,0.201-0.053C47.391,46.086,47.418,46.136,47.418,46.186z
		 M47.164,35.158c0,0.024-0.05,0.074,0,0.101C47.164,35.209,47.217,35.183,47.164,35.158z M47.164,47.691
		c-0.023,0.051-0.023,0.127,0.027,0.127C47.24,47.769,47.24,47.716,47.164,47.691z M47.217,48.621c0-0.025,0-0.05,0-0.076
		C47.318,48.495,47.318,48.671,47.217,48.621z M47.366,45.506c-0.024-0.05-0.048-0.125-0.1-0.149c0.025,0.126,0,0.149,0,0.301
		C47.341,45.632,47.366,45.557,47.366,45.506z M47.318,47.793c0-0.024,0-0.051,0-0.077c-0.026,0-0.052,0-0.052,0
		c0,0.026,0,0.053,0,0.077C47.264,47.793,47.292,47.793,47.318,47.793z M47.292,46.261c0.024,0,0.049,0.024,0.049,0
		C47.341,46.209,47.292,46.209,47.292,46.261z M47.442,45.054c-0.052,0-0.102-0.026-0.126-0.05c0,0.05,0,0.1,0,0.149
		C47.391,45.156,47.442,45.129,47.442,45.054z M47.492,44.553c-0.024,0.025-0.102,0-0.126,0.049
		c0.178,0.101-0.025,0.253,0.052,0.353C47.617,44.979,47.567,44.652,47.492,44.553z M47.468,34.831c0.149,0,0.125-0.149,0.178-0.251
		c-0.101-0.025-0.078,0.076-0.178,0.076c0-0.05,0-0.076,0-0.101c0.048,0,0.125,0,0.125-0.098c-0.048,0.024-0.125,0.024-0.125,0.098
		C47.341,34.605,47.442,34.757,47.468,34.831z M47.418,42.971c-0.025-0.075,0-0.125,0.025-0.151
		C47.492,42.819,47.492,43.021,47.418,42.971z M47.468,45.456c0,0,0-0.025,0-0.05c-0.024,0-0.05,0-0.05,0c0,0.026,0,0.05,0,0.05
		S47.442,45.456,47.468,45.456z M47.468,47.315c-0.024-0.025-0.024-0.051-0.024-0.101c0.024-0.024,0.101-0.024,0.174-0.024
		C47.567,47.215,47.567,47.315,47.468,47.315z M47.646,45.079c-0.028-0.175,0.149-0.1,0.124-0.252c-0.077,0-0.102,0.051-0.152,0
		c0.025,0.152-0.05,0.202-0.151,0.252C47.544,45.129,47.567,45.054,47.646,45.079z M47.468,46.412c0.025,0,0.048,0.022,0.048,0
		C47.516,46.36,47.468,46.36,47.468,46.412z M47.492,44.379c0.023,0.05,0,0.124,0.023,0.124
		C47.567,44.452,47.567,44.402,47.492,44.379z M47.77,43.924c-0.027-0.126,0.022-0.175,0.022-0.275
		c-0.199,0.074-0.05-0.202-0.175-0.202c0.025,0.252-0.125,0.452-0.102,0.628C47.617,43.974,47.593,43.875,47.77,43.924z
		 M47.617,44.402h0.025c-0.025-0.201,0.076-0.177,0.149-0.075c0-0.051,0.05-0.151-0.022-0.151c-0.052,0.025-0.152-0.026-0.254,0.05
		C47.544,44.327,47.617,44.327,47.617,44.402C47.567,44.429,47.617,44.452,47.617,44.402z M47.516,45.456
		c0.027,0.076-0.023,0.226,0.077,0.202C47.593,45.557,47.617,45.48,47.516,45.456z M47.646,41.939c0,0.025,0,0.05,0,0.05
		c-0.028,0-0.028,0-0.053,0c0,0,0-0.024,0-0.05C47.617,41.939,47.617,41.939,47.646,41.939z M47.742,45.884c0-0.024,0-0.024,0-0.05
		c0-0.074-0.125,0-0.149,0.025C47.668,45.859,47.668,45.909,47.742,45.884z M47.617,33.449c0,0.026-0.05,0.051,0,0.076
		C47.617,33.5,47.668,33.476,47.617,33.449z M47.718,43.723c-0.025,0.103,0.052,0.103,0,0.152c-0.101,0-0.101-0.076-0.101-0.152
		C47.646,43.723,47.668,43.723,47.718,43.723z M47.742,34.38c0,0.076-0.073,0.1-0.097,0.174
		C47.718,34.554,47.871,34.38,47.742,34.38z M47.668,33.675c0.124-0.024,0.15-0.25,0.253-0.175c-0.05-0.151,0.147-0.2,0.046-0.277
		c0,0.051-0.046,0.051-0.072,0.077C47.921,33.5,47.593,33.5,47.668,33.675z M47.718,34.154c0.024,0,0.052,0.05,0.052,0
		C47.77,34.128,47.718,34.128,47.718,34.154z M47.77,43.449c0,0.025,0,0.048,0,0.098C47.871,43.573,47.871,43.396,47.77,43.449z
		 M47.967,34.128c-0.122,0-0.122,0.125-0.172,0.226C47.895,34.304,47.967,34.254,47.967,34.128z M47.818,43.749
		c-0.023,0.076,0.148,0.076,0.126,0.023C47.921,43.775,47.895,43.749,47.818,43.749z M48.068,43.6
		c-0.102-0.026-0.102-0.125-0.199-0.125c-0.027,0.099,0.049,0.125,0.075,0.174C47.944,43.6,48.068,43.723,48.068,43.6z
		 M47.921,43.145c0.023-0.126,0.2,0.025,0.2-0.126c-0.154,0.076-0.024-0.051-0.154-0.051c0.028,0.127-0.072-0.024-0.096,0.051
		C47.871,43.071,47.871,43.121,47.921,43.145z M48.045,33.601c-0.026,0-0.026,0-0.026,0c-0.023,0.024-0.052,0.05-0.052,0.074
		c-0.022,0-0.022,0.026-0.022,0.026c-0.073,0.024-0.073,0.201,0.022,0.149c0.078-0.051-0.022-0.051-0.022-0.149
		c0.022,0.024,0.022,0,0.022-0.026C48.019,33.675,48.045,33.651,48.045,33.601c0.026,0,0.026-0.026,0.026-0.05c0.05,0,0-0.026,0,0
		C48.045,33.551,48.045,33.575,48.045,33.601z M48.097,41.939c-0.052-0.05-0.101,0.074-0.13,0c0.052-0.075,0.052-0.101,0-0.176
		c0.13,0,0.102-0.1,0.052-0.125c0.103-0.025,0.026-0.202,0.103-0.252c-0.053,0.025-0.053-0.024-0.103-0.024
		c0,0.251-0.124,0.351-0.098,0.604C47.967,42.015,48.097,42.015,48.097,41.939z M48.119,33.952c-0.101-0.024-0.124,0.05-0.101,0.152
		C48.097,34.104,48.119,34.027,48.119,33.952z M48.045,33.074c0,0.074,0.076,0.151,0.124,0.099
		C48.169,33.098,48.097,33.098,48.045,33.074z M48.097,33.828c0-0.026,0-0.026,0-0.05c-0.028,0-0.028,0-0.052,0
		c0,0.024,0,0.024,0,0.05C48.068,33.828,48.068,33.828,48.097,33.828z M48.193,41.289c-0.097,0.024-0.049-0.102-0.148-0.077
		c0,0.176,0.226,0.126,0.302,0.026c-0.103,0-0.126-0.101-0.178-0.152c-0.025-0.149,0.102-0.125,0.178-0.201
		c-0.026-0.05,0.05-0.201-0.076-0.176c0.048,0.125,0.023,0.075-0.078,0.048C48.097,40.935,48.097,41.161,48.193,41.289z
		 M48.271,41.789c0.025,0,0.025-0.226-0.023-0.274c0,0.048-0.076,0.024-0.126,0.024C48.221,41.589,48.193,41.765,48.271,41.789z
		 M48.221,41.89c0.05-0.075-0.102-0.101-0.102-0.05c0.024,0,0.05,0.025,0.05,0.05C48.169,41.89,48.193,41.89,48.221,41.89z
		 M48.193,33.35c0,0.026-0.049,0.077,0,0.101C48.193,33.399,48.247,33.375,48.193,33.35z M48.193,33.049
		c0.153-0.075,0.254-0.201,0.352-0.327c-0.023-0.075-0.126,0.025-0.198-0.024c0,0.05,0.05,0.076,0.023,0.176
		C48.247,32.873,48.193,32.923,48.193,33.049z M48.271,34.104c-0.102-0.025,0-0.101,0-0.15
		C48.347,33.952,48.297,34.077,48.271,34.104z M48.32,42.719c0-0.05,0-0.101-0.073-0.077c0,0,0,0.025,0,0.05
		C48.297,42.693,48.297,42.719,48.32,42.719z M48.271,40.583c0.025-0.024,0.05-0.024,0.103-0.024
		c-0.026-0.351,0.024-0.476,0.174-0.729c-0.127,0-0.05,0.253-0.199,0.101C48.271,40.157,48.271,40.483,48.271,40.583z
		 M48.347,41.966c0.023-0.025,0.023-0.077-0.026-0.077c0,0.025-0.023,0.05-0.05,0.077C48.297,41.966,48.32,41.966,48.347,41.966z
		 M48.373,42.87c0-0.05,0-0.1-0.053-0.074c0,0,0,0.024,0,0.05C48.347,42.846,48.347,42.87,48.373,42.87z M48.347,41.161
		c-0.026,0.101,0.101,0.126,0.125,0.026C48.42,41.187,48.396,41.137,48.347,41.161z M48.497,40.709
		c0.025-0.126-0.127-0.101-0.15-0.025C48.447,40.661,48.42,40.784,48.497,40.709z M48.497,39.403c0,0.05-0.025,0.074-0.025,0.125
		C48.545,39.58,48.545,39.403,48.497,39.403z M48.573,39.705c0-0.024,0-0.074-0.051-0.05c0,0.025,0,0.077,0.024,0.077
		C48.545,39.73,48.545,39.705,48.573,39.705z M48.673,38.902c-0.025,0-0.025-0.077-0.052-0.077c0,0.05,0,0.077,0,0.101
		c-0.099,0.05-0.099,0.176-0.05,0.251c0.026-0.152,0.199-0.152,0.253-0.075c0-0.15-0.054-0.201-0.054-0.302
		c-0.048,0.077-0.048,0.201-0.149,0.176c0,0,0-0.024,0-0.048C48.647,38.926,48.673,38.926,48.673,38.902z M48.699,39.955
		c0-0.049,0-0.098-0.052-0.125c-0.024,0.077-0.101,0.101-0.101,0.176C48.647,40.032,48.621,39.931,48.699,39.955z M48.621,40.258
		C48.749,40.231,48.573,40.083,48.621,40.258C48.573,40.282,48.621,40.282,48.621,40.258z M48.699,38.374
		c0.05,0.176-0.152,0.226-0.052,0.351C48.799,38.776,48.749,38.323,48.699,38.374z M48.673,32.596c0.024-0.023,0.126,0,0.098-0.099
		C48.699,32.498,48.673,32.521,48.673,32.596C48.621,32.621,48.673,32.621,48.673,32.596z M48.771,39.229
		c-0.048,0.05-0.126,0.125,0,0.149C48.723,39.303,48.849,39.253,48.771,39.229z M48.924,32.773c-0.053,0-0.025-0.076-0.1-0.051
		c0.024,0.077-0.18,0.077-0.054,0.152C48.771,32.797,48.924,32.873,48.924,32.773z M48.824,37.997
		c-0.025,0.025-0.077,0.201,0.024,0.174C48.924,38.148,48.849,38.021,48.824,37.997z M48.924,39.98c0-0.025,0-0.074-0.053-0.101
		c0,0.05-0.072,0.026-0.047,0.101C48.849,39.98,48.871,39.98,48.924,39.98z M48.849,33.173c0.025-0.074,0.077-0.098,0.102-0.149
		C49.076,33.049,48.948,33.173,48.849,33.173z M49.023,37.821c0.053-0.101-0.075-0.077-0.075-0.126s0-0.101-0.024-0.101
		c0.024,0.126-0.075,0.101-0.075,0.176C48.901,37.821,48.974,37.871,49.023,37.821z M48.924,38.449c0,0.026,0,0.049,0,0.077
		C48.998,38.573,48.998,38.398,48.924,38.449z M48.998,39.705c-0.05,0-0.074,0.025-0.074,0.077
		C48.974,39.78,48.998,39.755,48.998,39.705z M48.948,37.469c0,0.075,0.05,0.125,0.075,0.151c0.026-0.077,0.152,0.074,0.152-0.049
		c-0.025-0.025-0.053-0.025-0.077-0.051c0-0.076,0.024-0.125,0.052-0.151c0.072,0,0.05,0.126,0.151,0.077
		c0-0.101-0.05-0.176-0.126-0.226c0,0.101-0.1,0.125-0.202,0.074C49.023,37.395,49.123,37.544,48.948,37.469z M48.948,39.026
		c0.025,0,0.025,0,0.05,0c0.052-0.05,0.052-0.074-0.024-0.1c0,0.026,0,0.026-0.025,0.026C48.948,38.976,48.948,39.001,48.948,39.026
		z M49.023,37.142c-0.026,0.075,0.127,0.1,0.1,0.024C49.099,37.167,49.076,37.142,49.023,37.142z M49.023,32.999
		c0.053-0.051,0.053-0.101,0.127-0.101C49.123,32.948,49.123,32.999,49.023,32.999z M49.223,36.968
		c-0.022-0.126,0.053-0.151,0.103-0.201c0,0-0.023-0.026-0.023-0.049c-0.024,0-0.024-0.025-0.05-0.025
		c-0.026,0.048-0.026,0.074-0.076,0.099c-0.053-0.024,0.076-0.226-0.025-0.276c-0.052,0.127-0.027,0.3-0.077,0.428
		C49.176,36.867,49.123,36.891,49.223,36.968z M49.099,39.33c-0.022-0.077,0.024-0.101,0.024-0.128
		C49.176,39.178,49.176,39.378,49.099,39.33z M49.223,32.797c0.079,0.024,0,0.125-0.072,0.101
		C49.176,32.848,49.2,32.848,49.223,32.797z M49.223,37.571c-0.022,0.074,0,0.125,0.053,0.125
		C49.275,37.621,49.275,37.571,49.223,37.571z M49.252,37.72c0,0.049-0.052,0.049-0.026,0.125
		C49.302,37.898,49.302,37.72,49.252,37.72z M49.252,34.807c0.124,0,0.174-0.202,0.124-0.277c-0.051,0.024,0,0.152-0.124,0.125
		C49.252,34.707,49.252,34.757,49.252,34.807z M49.252,36.213c0.073,0,0.124,0.077,0.15-0.023
		C49.35,36.189,49.252,36.138,49.252,36.213z M49.302,34.154c0.023,0.05,0,0.126,0.023,0.126
		C49.35,34.254,49.402,34.128,49.302,34.154z M49.325,35.887c0,0.024,0,0.05,0,0.074C49.426,36.013,49.426,35.838,49.325,35.887z
		 M49.376,35.734c-0.026,0.077,0,0.102,0.076,0.077C49.478,35.734,49.402,35.761,49.376,35.734z M49.402,34.304
		c0,0.049-0.053,0.076-0.026,0.125C49.449,34.48,49.449,34.304,49.402,34.304z M49.527,37.093c-0.078-0.025-0.05-0.126-0.151-0.126
		c-0.026,0.101,0.05,0.101,0.026,0.178C49.449,37.142,49.502,37.117,49.527,37.093z M49.678,33.927c-0.05,0-0.073,0-0.103,0
		c-0.023,0.024-0.048,0.201,0,0.227C49.55,34.054,49.651,34.054,49.678,33.927z M49.55,34.23c0,0.074,0,0.175,0.079,0.175
		C49.628,34.329,49.575,34.28,49.55,34.23z M49.73,33.902c-0.026-0.074-0.026-0.125-0.053-0.151c0,0.027-0.126,0.078-0.05,0.103
		C49.651,33.778,49.678,33.902,49.73,33.902C49.704,34.077,49.828,33.952,49.73,33.902z M49.73,35.862
		c-0.053,0-0.079-0.024-0.103-0.05c0.023,0.077-0.023,0.176,0.05,0.202C49.651,35.911,49.754,35.937,49.73,35.862z M49.678,32.773
		c-0.05,0.077,0.1,0.15,0.1,0.077C49.73,32.848,49.754,32.747,49.678,32.773z M49.754,35.561c0.074,0,0.074-0.075,0.148-0.051
		c-0.1-0.076,0.025-0.201-0.074-0.301c-0.051,0.101-0.074,0.2-0.124,0.277C49.73,35.484,49.777,35.51,49.754,35.561z M49.704,35.612
		c0,0.05,0,0.101,0,0.149C49.803,35.811,49.803,35.561,49.704,35.612z M49.828,33.098c-0.027,0.025-0.074,0.152,0,0.152
		C49.828,33.199,49.926,33.125,49.828,33.098z M50.054,34.554c0-0.048-0.025-0.074-0.052-0.098c0,0.05-0.023,0.05-0.023,0.074
		C50.004,34.53,50.004,34.554,50.054,34.554z M50.13,32.747c0,0.024-0.05,0.024-0.073,0.024
		C50.054,32.747,50.104,32.747,50.13,32.747z"/>
	<path fill="#FFFFFF" d="M42.494,67.572c0,0.023-0.025,0.073-0.075,0.05c0.051,0.076,0.25,0.099,0.25-0.05
		c0.101-0.026,0.052,0.126,0.153,0.073c0.074,0-0.153-0.149,0.025-0.149c0,0.149,0.073,0.05,0.101,0.149
		c-0.027-0.125,0.251,0.053,0.299-0.073c0.077-0.026,0.053,0.05,0.077,0.073c0.351-0.1,0.955,0.053,1.204,0.352
		c-0.124-0.074-0.299-0.1-0.451-0.15c-0.074,0.076,0.05,0,0.05,0.1c-0.201,0-0.629,0-0.803,0c-0.103,0,0-0.1-0.05-0.1
		c-0.075,0-0.102,0.1-0.152,0.15c-0.479-0.1-1.054,0-1.557,0c-0.101-0.051-0.152-0.127-0.202-0.2
		c-0.278-0.102-0.351,0.126-0.602,0.05c-0.226,1.305-0.326,3.466-0.503,4.897c0.101,2.237-0.3,4.773,0.904,6.131
		c0.427-0.05,0.627-0.351,0.903-0.557c0.149-0.273,0.274-0.625,0.553-0.774c0,0.023,0,0.074,0.048,0.05
		c-0.073,0.627-0.399,1.129-0.399,1.73c-0.125,0.102-0.251,0.351-0.477,0.301c-0.101,0.252-0.327-0.075-0.428,0.127
		c-0.554-0.227-0.929-0.604-1.207-1.032c-0.05,0-0.098,0-0.174,0c-0.427-0.877-0.828-2.159-0.779-3.34
		c-0.15-2.109,0.025-4.496,0.275-6.779c-0.151,0.099-0.324,0.075-0.478,0.049c-0.903,0.149-1.382,0.302-2.083,0.325
		c-0.452,0.177-0.853,0.177-1.358,0.326c-0.452,1.331-1.056,2.464-1.304,3.996c-0.149,0.349-0.202,0.804-0.452,1.054
		c-0.399,0.025-0.625,0.225-0.805,0.479c-0.173-0.052-0.475,0.023-0.702-0.102c0.25-1.559,0.929-2.964,1.358-4.42
		c0.3-0.076,0.199-0.578,0.424-0.729c-0.803,0.051-1.608,0.353-2.461,0.427c-0.125,0-0.1,0.101-0.201,0.125
		c-0.375-0.175-0.652-0.805-0.375-1.179c0.375-0.025,0.528-0.075,0.803-0.05c0.981-0.277,2.209-0.252,2.864-0.704
		c-0.024-0.351,0.201-0.527,0.126-0.854c0.177-0.152,0.375-0.279,0.402-0.606c-0.027,0.578-0.303,1.132-0.452,1.634
		c0.049,0.074,0.125-0.101,0.226-0.073c0.226-0.758,0.649-1.409,0.776-2.188c0.052,0,0.026,0.076,0.077,0.1
		c0.101-0.249,0.275-0.525,0.202-0.776c0.072-0.076,0.049,0,0.101,0.025c0.174-0.126-0.027-0.478,0.226-0.527
		c0-0.227,0.073-0.401,0.226-0.479c0.073-0.378,0.351-0.552,0.45-0.905c-0.023-0.376,0.227-0.476,0.277-0.804
		c0.024-0.024,0.103-0.024,0.151-0.074c0.052-0.378,0.351-0.478,0.302-0.954c0.024,0,0.024,0.025,0.073,0.025
		c0.153-0.578,0.452-1.032,0.706-1.533c0.05-0.024,0.074-0.024,0.125,0c0-0.501,0.327-0.704,0.452-1.08
		c0.048-0.125,0.226-0.151,0.173-0.402c0.024,0,0.077,0,0.125,0c0.202-0.525,0.504-0.929,0.702-1.43
		c0.177-0.027,0.153-0.229,0.302-0.252c0.226-0.502,0.351-1.004,1.006-1.004c0.072,0.101,0.251,0.073,0.251,0.251
		c0.125-0.076,0.149,0.099,0.351,0.126c0.577,1.456-0.101,3.015-0.251,4.57c-0.024,0.076-0.052,0.152-0.075,0.228
		c-0.176,1.506-0.479,3.265-0.704,4.697c0,0.102-0.049,0.176-0.077,0.275c0.052,0.504-0.074,0.93-0.201,1.408
		c0.551,0.05,1.003,0,1.354,0C42.244,67.572,42.342,67.622,42.494,67.572z M33.903,70.912c0.202-0.426,0.477-0.98,0.577-1.457
		c-0.024,0.05-0.076,0.025-0.125,0.05C34.231,69.983,33.979,70.36,33.903,70.912z M34.708,68.827
		c0.048-0.077-0.101-0.077-0.077-0.024c0,0,0.025,0,0.025,0.024C34.683,68.827,34.683,68.827,34.708,68.827z M35.535,66.518
		c-0.101,0-0.077-0.227-0.048-0.276C35.612,66.268,35.487,66.391,35.535,66.518z M35.612,66.215
		c-0.024-0.023-0.024-0.073-0.024-0.126C35.688,66.065,35.636,66.19,35.612,66.215z M35.688,66.039c-0.1-0.101,0-0.276,0.05-0.3
		C35.813,65.812,35.688,65.914,35.688,66.039z M37.042,68.349c-0.399,0.076-0.903,0.026-1.28,0.276c0.051,0.051,0,0.202,0.101,0.202
		c0.048-0.05,0.048-0.151,0.177-0.151c0,0.052-0.027,0.074-0.027,0.102c0.153-0.05,0.25,0.023,0.327-0.102
		c0.125,0.201,0.375-0.051,0.554,0.074c0.077-0.149,0.351-0.1,0.452-0.049c0.077-0.025-0.078-0.076,0.024-0.101
		c0.149,0.149,0.476-0.125,0.653,0.024c0.025-0.074,0.074-0.124,0.176-0.1c0.077,0.05-0.05,0.151,0.101,0.151
		c0-0.102,0.024-0.176,0.052-0.229c0.101,0.077,0.173-0.023,0.274,0.077c0.177-0.15,0.303-0.024,0.577-0.077
		c0,0.027,0,0.077,0.024,0.077c0.052-0.127,0.077,0.05,0.226-0.024c0.052-0.152,0.101-0.329,0.077-0.555
		c-0.855,0.103-1.507,0.226-2.411,0.303C37.042,68.252,37.094,68.349,37.042,68.349z M36.139,67.496
		c0,0.126-0.149,0.199-0.074,0.275c0.025-0.051,0.05-0.076,0.101-0.076c-0.052,0.203-0.101,0.329-0.153,0.479
		c1.181-0.149,2.112-0.301,3.592-0.428c0.226-2.359,0.703-4.47,0.955-6.779c0.226-0.878,0.399-1.859,0.503-2.863
		c0.075-0.202,0.226-0.528,0.101-0.728c-0.327,0.502-0.728,0.903-0.929,1.506c-0.05,0-0.078,0-0.126,0
		c-0.15,0.301-0.226,0.679-0.478,0.853c-0.125,0.73-0.629,1.109-0.778,1.81c-0.077,0.053-0.151,0.076-0.25,0.128
		c0.073,0.628-0.427,0.93-0.553,1.458c-0.076,0-0.049-0.05-0.1,0c0,0.149-0.05,0.224-0.05,0.376c-0.052,0-0.077,0.05-0.153,0.075
		c-0.3,1.206-1.003,2.158-1.281,3.29c0.024-0.075,0.101-0.225,0.153-0.175c-0.153,0.326-0.278,0.704-0.452,1.002
		C36.139,67.622,36.188,67.521,36.139,67.496z M36.291,68.653c0,0.023-0.052,0.023-0.077,0.023
		C36.215,68.653,36.264,68.653,36.291,68.653z M36.44,66.944c-0.149,0.05-0.25,0.328-0.202,0.476
		C36.291,67.244,36.365,67.097,36.44,66.944z M36.641,65.01c0-0.025-0.023-0.051-0.052-0.025c-0.102,0.127-0.174,0.301-0.226,0.503
		C36.591,65.463,36.542,65.161,36.641,65.01z M36.742,63.553c0,0.128-0.051,0.225-0.153,0.251c-0.023-0.1,0-0.176,0.027-0.251
		C36.641,63.553,36.691,63.553,36.742,63.553z M36.742,68.551c0,0.026,0,0.053,0,0.076c-0.027,0-0.051,0-0.077,0
		c0-0.023,0-0.05,0-0.076C36.691,68.551,36.715,68.551,36.742,68.551z M36.691,66.518c-0.072-0.227,0.153-0.402,0.202-0.576
		C36.968,66.14,36.715,66.291,36.691,66.518z M36.893,64.784c-0.101,0-0.101,0.05-0.101,0.126
		C36.869,64.934,36.869,64.859,36.893,64.784z M36.893,64.382c0.077,0,0.101-0.052,0.077-0.126c0.049-0.024,0.074-0.052,0.098-0.101
		c-0.072,0-0.098,0.024-0.098,0.101C36.893,64.232,36.869,64.282,36.893,64.382z M36.994,65.789
		c-0.101-0.126,0.126-0.227,0.102-0.351C37.167,65.535,37.019,65.663,36.994,65.789z M37.094,68.525
		c0,0.025-0.027,0.025-0.052,0.025C37.042,68.525,37.066,68.525,37.094,68.525z M37.143,64.082c0.051,0.098-0.077,0.074-0.049,0.174
		C37.167,64.256,37.244,64.082,37.143,64.082z M40.41,57.525c-0.077,0.176-0.254,0.252-0.254,0.477
		c-0.098,0.025-0.25,0.125-0.226,0.378c-0.274,0.275-0.375,0.704-0.676,0.952c0,0.076,0,0.129,0,0.176
		c-0.379,0.303-0.427,0.957-0.779,1.308c0,0.076,0,0.151,0,0.253c-0.1,0-0.076-0.129-0.152-0.053
		c-0.227,0.78-0.452,1.56-0.954,2.062c-0.077,0.05,0.024,0.125,0.024,0.199c-0.024,0.125-0.125,0.151-0.125,0.276
		c0.101,0.025,0.077-0.201,0.153-0.125c0,0.2-0.177,0.399-0.153,0.552c0.024-0.05,0.052-0.1,0.153-0.1
		c-0.051-0.227,0.199-0.451,0.149-0.678c0.049,0,0.049,0.024,0.101,0.024c0.274-0.428,0.375-1.002,0.678-1.381
		c-0.026-0.124-0.101-0.252,0-0.327c0.149,0.025,0.199-0.024,0.226-0.148c-0.052-0.026-0.125,0-0.125-0.053
		c0.149-0.126,0.125-0.426,0.323-0.476c-0.073-0.103,0.028-0.328,0.125-0.178c0-0.226,0.101-0.275,0.027-0.477
		c0.125-0.052,0.2-0.126,0.375-0.176c0-0.577,0.351-0.778,0.553-1.132c-0.051-0.025-0.101,0.1-0.101,0
		c-0.024-0.176,0.05-0.252,0.149-0.301c0,0.05-0.024,0.126,0.024,0.126c-0.049-0.426,0.352-0.552,0.452-0.903
		c0.302-0.077,0.202-0.529,0.427-0.704c-0.048,0-0.048-0.025-0.101-0.025c-0.073,0.152-0.201,0.301-0.175,0.553
		C40.458,57.625,40.51,57.496,40.41,57.525z M37.345,64.91c0.077-0.201,0.125-0.452,0.302-0.604
		C37.57,64.558,37.495,64.759,37.345,64.91z M37.495,63.276c0,0.025,0,0.05,0,0.075c-0.024,0-0.049,0-0.073,0
		c0-0.025,0-0.05,0-0.075C37.446,63.276,37.47,63.276,37.495,63.276z M37.747,63.979c0.051,0.077-0.048,0.276-0.098,0.326
		C37.619,64.155,37.72,64.105,37.747,63.979z M37.847,62.522c0,0.026,0,0.053,0,0.076c-0.024,0-0.049,0-0.049,0
		c0-0.023,0-0.05,0-0.076C37.798,62.522,37.822,62.522,37.847,62.522z M38.299,60.062c0-0.075,0-0.178,0.024-0.201
		C38.375,59.86,38.399,60.086,38.299,60.062z M38.602,68.398c-0.024,0.053-0.024,0-0.052,0
		C38.549,68.376,38.602,68.376,38.602,68.398z M38.65,61.241c0-0.026,0-0.05,0-0.076c0,0-0.024,0-0.049,0c0,0.026,0,0.05,0,0.076
		C38.626,61.241,38.65,61.241,38.65,61.241z M38.701,68.376c-0.026,0.05-0.026,0-0.077,0C38.626,68.349,38.701,68.349,38.701,68.376
		z M38.701,61.065c-0.026,0.025-0.077,0.05,0,0.076C38.701,61.115,38.751,61.065,38.701,61.065z M39.632,69.104
		c-0.101,0.98-0.125,1.934-0.25,2.687c0.024,1.733-0.177,3.19,0.149,4.695c-0.101-0.575,0-1.179-0.149-1.707
		c0.174-0.452,0-0.954,0.125-1.48c0-0.103-0.077,0.075-0.052-0.077c-0.025-0.349,0.152-0.704,0.024-0.979
		c0.202-0.903,0.226-2.158,0.303-3.166c0.052-0.174,0.101-0.525,0.052-0.552c-0.052,0-0.052-0.023-0.127-0.023
		c-0.026,0.276-0.05,0.451,0.052,0.703C39.656,69.229,39.705,69.104,39.632,69.104z M39.38,68.302c-0.076-0.027,0-0.13,0.074-0.104
		C39.454,68.275,39.38,68.252,39.38,68.302z M39.505,71.34c0.048-0.077,0.024-0.276,0.024-0.402
		C39.58,70.964,39.656,71.29,39.505,71.34z M39.606,70.61c-0.101-0.05,0.026-0.124,0-0.253C39.68,70.41,39.632,70.536,39.606,70.61z
		 M39.781,68.777c-0.077-0.027-0.024-0.152,0-0.152C39.856,68.625,39.781,68.751,39.781,68.777z M39.906,68.376
		c-0.05-0.101,0.052-0.299,0.052-0.478c-0.302,0.049-0.078,0.326-0.177,0.403C39.832,68.275,39.832,68.478,39.906,68.376z
		 M40.282,64.583c-0.174,1.03-0.376,2.158-0.426,3.138c0.3-0.099,0.126-0.624,0.276-0.853c-0.024-0.077-0.024-0.15-0.024-0.276
		c0.024-0.1,0.077-0.152,0.048-0.301c0-0.05-0.073,0.05-0.073-0.05c0.327-0.102-0.051-0.505,0.126-0.706
		c0.072,0.077-0.054,0.128,0.048,0.151c0.077-0.827,0.327-1.631,0.352-2.435c-0.024,0-0.049,0-0.073,0
		c-0.125,0.377-0.153,0.728-0.125,1.18C40.41,64.508,40.258,64.458,40.282,64.583z M39.982,57.323c0-0.101,0.101-0.075,0.077-0.176
		C40.185,57.147,40.083,57.351,39.982,57.323z M39.982,66.944c0-0.076,0.049-0.076,0.024-0.15
		C40.108,66.794,40.083,66.944,39.982,66.944z M40.007,73.274c0,0.05,0,0.1,0,0.149C40.108,73.448,40.108,73.223,40.007,73.274z
		 M40.007,74.204c0,0.047,0,0.097,0,0.149C40.108,74.405,40.108,74.152,40.007,74.204z M40.007,74.58
		c0.024,0.1-0.024,0.252,0.052,0.276C40.083,74.832,40.132,74.58,40.007,74.58z M40.007,75.41c0,0.076,0,0.126,0,0.2
		C40.156,75.632,40.108,75.41,40.007,75.41z M40.083,76.29c-0.051,0.148,0,0.451,0.074,0.551
		C40.132,76.664,40.156,76.413,40.083,76.29z M40.132,72.144c-0.024,0.076-0.073,0.251,0.026,0.274
		C40.108,72.294,40.258,72.144,40.132,72.144z M40.233,57.072c-0.102-0.024,0.024-0.05,0-0.125
		C40.309,56.971,40.233,57.049,40.233,57.072z M40.434,56.846c-0.077-0.022-0.077-0.123-0.024-0.149
		C40.484,56.696,40.484,56.796,40.434,56.846z M40.51,65.812c-0.05,0.05-0.074,0.253,0,0.276
		C40.484,66.014,40.585,65.889,40.51,65.812z M40.609,65.062c-0.049,0.123,0,0.326-0.049,0.449
		C40.661,65.463,40.661,65.135,40.609,65.062z M40.887,61.42c0-0.026-0.024-0.026-0.052-0.026c0,0.502-0.327,1.105-0.149,1.556
		C40.761,62.473,40.786,61.971,40.887,61.42z M40.811,57.248c0.077,0.024,0.101-0.023,0.077-0.101c0.125-0.024-0.024-0.177,0,0
		C40.835,57.173,40.786,57.173,40.811,57.248z M40.961,60.815c-0.048,0.151-0.074,0.326-0.099,0.502
		C40.937,61.165,41.061,60.939,40.961,60.815z M40.961,56.872c0,0.099-0.074,0.126,0.027,0.15
		C40.937,56.948,41.087,56.872,40.961,56.872z M41.061,68.05c0,0.024-0.024,0.024-0.048,0.024
		C41.013,68.05,41.037,68.05,41.061,68.05z M41.262,59.133c-0.077,0.076-0.024,0.249-0.077,0.328
		C41.311,59.484,41.311,59.107,41.262,59.133z M41.311,68.174c-0.049,0-0.073-0.05-0.125-0.024
		C41.187,68.074,41.363,68.074,41.311,68.174z M41.262,67.999c0-0.052,0-0.074,0-0.101C41.338,67.849,41.338,68.024,41.262,67.999z
		 M41.338,58.605c-0.027,0.05-0.051,0.227,0,0.251C41.363,58.78,41.465,58.629,41.338,58.605z M41.465,68.174
		c-0.023,0-0.052,0-0.101,0c0-0.024,0-0.05,0-0.074C41.441,68.1,41.465,68.124,41.465,68.174z M41.614,67.898
		c0.023-0.102-0.15-0.127-0.15-0.025C41.514,67.999,41.514,67.797,41.614,67.898z M42.09,67.797
		c-0.149-0.025-0.375-0.05-0.452,0.076C41.815,67.898,42.018,67.947,42.09,67.797z M42.167,67.572c0,0-0.024,0.023-0.052,0.023
		C42.115,67.572,42.143,67.572,42.167,67.572z M42.115,67.849c0.052,0.024,0.101,0.024,0.153,0.024
		C42.318,67.771,42.115,67.797,42.115,67.849z M42.568,67.572c0,0.023-0.024,0.023-0.048,0.023
		C42.52,67.572,42.542,67.572,42.568,67.572z M43.977,67.873c0.024-0.024,0.05,0,0.05-0.024
		C44.001,67.849,43.977,67.849,43.977,67.873z M44.3,68.05c-0.072,0-0.097-0.051-0.149-0.051
		C44.176,67.925,44.327,67.975,44.3,68.05z"/>
</g>
</svg>
