<?xml version="1.0" encoding="utf-8"?>
<!-- Generator: Adobe Illustrator 16.0.0, SVG Export Plug-In . SVG Version: 6.00 Build 0)  -->
<!DOCTYPE svg PUBLIC "-//W3C//DTD SVG 1.1//EN" "http://www.w3.org/Graphics/SVG/1.1/DTD/svg11.dtd">
<svg version="1.1" id="Layer_1" xmlns="http://www.w3.org/2000/svg" xmlns:xlink="http://www.w3.org/1999/xlink" x="0px" y="0px"
	 width="85px" height="85px" viewBox="0 0 85 85" enable-background="new 0 0 85 85" xml:space="preserve">
<g>
	<path fill="#FFFFFF" d="M42.5,0C65.973,0,85,19.028,85,42.5C85,65.973,65.973,85,42.5,85C19.028,85,0,65.973,0,42.5
		C0,19.028,19.028,0,42.5,0z"/>
</g>
<g>
	<path fill="#070793" d="M46.677,27.124c0.099,0.039,0.039-0.059,0.058-0.118c0.078-0.019,0.041-0.157,0.138-0.157
		c0.06,0.118-0.097,0.217-0.078,0.315c-0.197-0.039-0.118,0.197-0.197,0.295c0,0.04,0.037,0,0.037-0.02
		c-0.018,0.119,0.081,0.217-0.018,0.335c0-0.039-0.039-0.059-0.098-0.059c-0.079,0.079-0.04,0.197,0.038,0.217
		c0,0.059-0.098,0.059-0.117,0.118c-0.06-0.02-0.039-0.02-0.079,0.02c0,0.06,0.018,0.06,0.059,0.06c0,0.078-0.059,0.078-0.019,0.157
		c-0.04,0-0.06,0.02-0.079,0.02c0.039,0.235-0.236,0.295-0.354,0.452c0,0.06,0.04,0.06,0.04,0.099
		c-0.058,0.019-0.119,0.039-0.159,0.079c0,0.039,0.119,0.039,0.1,0c0,0.099-0.198,0.197-0.217,0.374
		c-0.058,0,0.04-0.137-0.058-0.098c-0.079,0.04,0.038,0.157-0.021,0.197c-0.058,0.02-0.119-0.059-0.197,0.02
		c-0.02,0.078,0.02,0.078,0.02,0.138c-0.099-0.059-0.335,0.157-0.335,0.275c-0.139,0.06-0.236,0.158-0.315,0.275
		c-0.295,0.039-0.393,0.315-0.669,0.315c-0.04,0.039-0.078,0.079-0.119,0.118c-0.767,0.334-1.811,0.61-2.558,0.276
		c-0.06-0.02-0.06,0.019-0.118,0.019c-0.177-0.118-0.395-0.217-0.61-0.314c-0.512-0.414-1.083-0.787-1.339-1.457
		c-0.098-0.079-0.117-0.236-0.216-0.315c-0.177-1.003,0.177-2.106,0.551-2.874c-0.021-0.078-0.099-0.118-0.061-0.177
		c0-0.019-0.06-0.019-0.098-0.019c-0.041-0.118-0.06-0.295-0.139-0.394c0.474-2.401,1.459-4.723,2.579-6.692
		c0.039-0.275,0.019-0.65,0-0.925c-0.137-0.276-0.099-0.551,0.256-0.511c0.177,0.019,0.314,0.177,0.375,0.334
		c0.197-0.177,0.335-0.394,0.452-0.649c0.866-1.083,1.731-2.186,2.934-2.913c0.137,0.02,0.197-0.098,0.235-0.039
		c0.06,0.02,0.079-0.02,0.097-0.059c0.061,0.079,0.121,0,0.238,0.019c0.531-0.157,1.081,0.099,1.319,0.492
		c0.079,0.019,0.117,0.059,0.156,0.098c0.021,0.059,0.04,0.098,0.04,0.158c0.394,0.708,0.354,1.417,0.196,2.165
		c-0.019,0-0.037,0-0.058,0c0.039,0.098,0,0.236-0.077,0.275c0.019,0.039,0.058,0.019,0.077,0.039
		c-0.058,0.138-0.058,0.334-0.217,0.394c0.118,0.196-0.138,0.216-0.038,0.374c-0.061,0-0.061,0.039-0.119,0.039
		c0.019,0.078,0.019,0.078,0,0.138c-0.099,0-0.099,0.138-0.179,0.079c0,0.039,0,0.078,0.06,0.078
		c-0.06,0.059-0.079,0.138-0.157,0.177c0.019,0.039,0.04,0.039,0.078,0.019c-0.018,0.078-0.078,0.118-0.136,0.118
		c0.077,0.098-0.101,0.118-0.021,0.177c-0.137,0.078-0.198,0.354-0.354,0.472c0,0.019,0.021,0.039,0.04,0.039
		c-0.866,1.004-1.831,2.007-3.228,2.538c0.373,0.197,0.825,0.354,1.18,0.63c0.039,0,0.039-0.019,0.079-0.019
		c0,0.019,0,0.039,0,0.059c0.275,0.059,0.452,0.354,0.669,0.531c0,0.157,0.177,0.295,0.315,0.394
		c0.079,0.314,0.276,0.433,0.257,0.728c0.02,0.039,0.057,0.06,0.057,0.099c0.04,0.098-0.078,0.019-0.057,0.079
		c0.039,0.078,0.078,0.059,0.136,0.059c0.099,0.256,0.099,0.512,0.12,0.768c0.077,0.02,0.039-0.079,0.118-0.06
		c-0.06,0.216,0.098,0.394-0.02,0.472c0.058,0.157-0.021,0.138,0.02,0.315c0.116,0.039,0.079,0.177,0.098,0.255
		c-0.295,0.177-0.177,0.65-0.237,0.965C46.677,27.026,46.677,27.084,46.677,27.124z M39.432,27.912
		c-0.079-0.256,0.118-0.552,0.041-0.788c-0.06,0.334-0.098,0.551-0.139,0.886C39.432,28.03,39.394,27.931,39.432,27.912z
		 M39.55,26.966c0.12-0.334,0.316-0.708,0.354-1.042C39.728,26.219,39.628,26.593,39.55,26.966
		C39.473,26.966,39.571,27.065,39.55,26.966z M39.904,24.132c0,0.04,0,0.099,0.021,0.099C39.925,24.192,40.005,24.132,39.904,24.132
		z M41.579,24.014c0.117-0.02,0.117-0.158,0.236-0.158c0,0.079-0.158,0.158-0.12,0.236c-0.019,0.079-0.136,0.06-0.156,0.138
		c-0.042,0.255-0.315,0.472-0.475,0.708c-0.057-0.078-0.079,0.019-0.098,0.059c0.041,0.04,0.08-0.059,0.098,0
		c-0.136,0.158-0.215,0.374-0.294,0.551c0.019-0.039,0-0.039-0.039-0.039c-0.021,0.295-0.256,0.314-0.218,0.59
		c-0.019-0.019-0.038-0.039-0.057-0.059c-0.04,0.099-0.021,0.217-0.08,0.335c-0.041-0.078-0.041,0-0.119,0
		c-0.039,0.098,0.079,0.059,0.079,0.138c-0.117,0.255-0.215,0.492-0.275,0.788c0,0.019-0.039,0.039-0.058,0.039
		c-0.139,0.847-0.12,1.574,0.254,2.382c0.218,0.059,0.237,0.315,0.474,0.335c0,0.058,0.019,0.058,0.019,0.098
		c0.313,0.078,0.631,0.197,0.906,0.138c-0.019-0.02-0.06,0-0.079-0.039c0.097,0.039,0.138-0.02,0.196,0.019
		c0.019,0.059-0.118-0.019-0.099,0.04c0.118,0.019,0.177,0,0.237-0.04c0.057,0-0.06,0.059,0.038,0.04
		c0.256-0.02,0.354-0.079,0.63-0.079c0.041,0,0.019-0.078,0.059-0.078c0.196-0.039,0.412-0.039,0.531-0.157
		c0.925-0.315,1.555-0.925,2.124-1.614c0.022,0.019,0.041,0.019,0.06,0.019c0.02-0.059-0.037-0.039-0.019-0.118
		c1.181-1.417,1.2-4.192-0.08-5.531c-0.471-0.255-0.964-0.492-1.612-0.63c-0.079-0.079-0.197-0.098-0.275-0.197
		c-0.04,0-0.098,0-0.158,0c-0.098-0.197-0.59-0.413-0.354-0.768c0.196,0,0.473-0.039,0.63-0.177c1.045-0.314,1.852-1.062,2.58-1.771
		c0.786-0.984,1.475-2.224,1.651-3.602c-0.019-0.512-0.098-0.984-0.392-1.358c-0.041,0.02-0.08,0.02-0.08-0.02
		c-0.098,0-0.158,0.02-0.215,0.06c-0.041-0.06-0.06,0.02-0.139,0c-1.418,0.787-2.343,2.066-3.286,3.345
		c-0.04,0.02-0.059,0.059-0.139,0.039c0.06,0.079,0.038,0.079,0,0.177c-0.019-0.02-0.039-0.02-0.099-0.02
		c-0.04,0.06,0.039,0.04,0.039,0.118c-0.196,0.256-0.332,0.65-0.569,0.984c-0.02,0.63-0.215,1.201-0.314,1.791
		c-0.041,0-0.041,0.021-0.06,0.021c0.019,0.118-0.04,0.157-0.04,0.275c-0.197,0.433-0.197,0.964-0.492,1.319
		c0.08,0.374-0.335,0.767-0.373,1.181c0.354-0.255,0.747-0.571,1.219-0.669c0.021-0.039-0.039-0.059,0-0.059
		c0.06,0.039,0.138-0.02,0.158,0.02C42.464,23.187,41.993,23.582,41.579,24.014C41.56,24.034,41.579,24.054,41.579,24.014z
		 M40.005,23.897c-0.021,0-0.021,0-0.021,0c-0.019,0.039,0,0.078,0.041,0.078C40.024,23.936,40.005,23.936,40.005,23.897
		c0.038-0.021,0.057-0.06,0.019-0.099c0.038,0,0-0.019,0,0C39.965,23.817,40.005,23.837,40.005,23.897z M40.043,26.455
		c0-0.019,0-0.039,0-0.059c-0.019,0-0.019,0-0.038,0c0,0.02,0,0.04,0,0.059C40.024,26.455,40.024,26.455,40.043,26.455z
		 M40.123,23.384c-0.041,0.099-0.041,0.217-0.098,0.275C40.123,23.64,40.221,23.424,40.123,23.384z M41.284,20.432
		c-0.02-0.019-0.02-0.039-0.06-0.039c-0.314,0.925-0.867,1.929-1.063,2.952C40.477,22.342,40.91,21.456,41.284,20.432z
		 M40.398,26.042c-0.06,0-0.06,0.059-0.06,0.098C40.398,26.14,40.417,26.1,40.398,26.042z M40.458,26.002c0-0.019,0-0.039,0-0.058
		c-0.021,0-0.04,0-0.06,0c0,0.019,0,0.039,0,0.058C40.417,26.002,40.436,26.002,40.458,26.002z M40.594,25.707c0,0,0-0.019,0-0.039
		c-0.019,0-0.038,0-0.06,0c0,0.019,0,0.039,0,0.039C40.556,25.707,40.575,25.707,40.594,25.707z M40.733,25.431
		c-0.079,0.021-0.12,0.08-0.12,0.158C40.692,25.589,40.673,25.471,40.733,25.431z M40.809,23.798
		c0.061,0.039,0.061-0.078,0.021-0.059c0,0,0,0.02-0.021,0.02C40.809,23.779,40.809,23.779,40.809,23.798z M40.929,23.522
		c-0.019,0.039-0.079,0.118-0.041,0.138C40.91,23.64,40.986,23.562,40.929,23.522z M41.087,23.739c-0.12,0.02-0.1,0.197-0.199,0.255
		C41.008,24.034,41.065,23.837,41.087,23.739z M41.087,22.165c0,0.098-0.177,0.216-0.079,0.275
		C41.027,22.342,41.165,22.263,41.087,22.165z M41.519,22.006c-0.02-0.019-0.02-0.019-0.058-0.019
		c-0.098,0.472-0.374,0.886-0.415,1.338C41.224,22.853,41.401,22.479,41.519,22.006z M41.126,24.762
		c-0.039-0.02-0.099,0.079-0.039,0.079C41.087,24.802,41.126,24.802,41.126,24.762z M41.065,23.68
		c0.098,0.019,0.098-0.059,0.06-0.118c0.117,0-0.019-0.137,0,0C41.065,23.562,41.106,23.66,41.065,23.68z M41.205,30.194
		c-0.019,0.059-0.118,0.02-0.118-0.019C41.145,30.156,41.145,30.214,41.205,30.194z M41.342,23.109
		c-0.177,0-0.118,0.235-0.177,0.334C41.264,23.384,41.304,23.248,41.342,23.109z M41.304,21.613c-0.019,0-0.061,0.1,0,0.119
		c0.018-0.039,0.018-0.078,0.018-0.119c0.041-0.039,0.08-0.058,0.08-0.157c-0.08,0-0.06,0.099-0.08,0.157H41.304z M41.439,22.695
		c0.041,0.197-0.197,0.236-0.136,0.375C41.382,23.01,41.54,22.774,41.439,22.695z M41.439,20.019
		c-0.038,0.137-0.215,0.275-0.098,0.433C41.342,20.275,41.54,20.137,41.439,20.019z M41.56,19.881c-0.079,0-0.06,0.059-0.098,0.099
		C41.519,19.98,41.56,19.94,41.56,19.881z M41.54,30.253c0,0.019-0.041,0.019-0.059,0.019C41.499,30.253,41.519,30.253,41.54,30.253
		z M41.579,21.81c-0.06-0.02-0.118,0.157-0.019,0.157C41.54,21.889,41.56,21.889,41.579,21.81z M41.794,19.488
		c0.059-0.177,0.218-0.256,0.12-0.415c-0.079,0.256-0.256,0.473-0.354,0.788C41.696,19.763,41.717,19.585,41.794,19.488
		C41.775,19.585,41.873,19.488,41.794,19.488z M41.579,22.381C41.617,22.381,41.579,22.361,41.579,22.381
		C41.56,22.401,41.579,22.421,41.579,22.381z M41.658,21.574c-0.06-0.02-0.118,0.078-0.06,0.078
		C41.617,21.613,41.638,21.613,41.658,21.574z M41.658,21.987c0,0.058,0,0.118-0.019,0.137
		C41.717,22.165,41.737,21.967,41.658,21.987z M41.638,22.223c0.019,0,0.038,0,0.038-0.019
		C41.658,22.205,41.638,22.205,41.638,22.223z M41.676,23.7c0.019,0,0.041,0,0.041-0.019C41.717,23.7,41.676,23.68,41.676,23.7z
		 M41.914,21.141c0.019,0.08-0.06,0.118,0.019,0.138C41.914,21.2,41.993,21.16,41.914,21.141z M42.012,18.956
		c-0.041,0-0.061,0.021-0.08,0.059C41.971,19.015,41.993,18.996,42.012,18.956z M42.148,23.207c0.021,0,0.042,0,0.042-0.019
		C42.189,23.187,42.148,23.187,42.148,23.207z M42.287,23.089c0,0.059-0.079,0.02-0.059,0.078
		C42.287,23.187,42.366,23.109,42.287,23.089z M42.366,30.707c-0.041,0-0.08,0-0.08,0.039
		C42.325,30.746,42.347,30.726,42.366,30.707z M42.543,30.707c-0.019-0.04-0.08-0.04-0.08,0.019
		C42.483,30.726,42.543,30.726,42.543,30.707z M42.642,30.707c0-0.04-0.018-0.059-0.059-0.059c0,0.019,0,0.039,0,0.059
		C42.602,30.707,42.623,30.707,42.642,30.707z M42.699,30.353c-0.018,0.039,0.08,0.039,0.061,0
		C42.759,30.333,42.699,30.312,42.699,30.353z M43.311,30.49c0.04,0.039,0.176,0.039,0.137-0.079
		c-0.256,0.099-0.591,0.158-0.749,0.256C42.837,30.687,43.133,30.628,43.311,30.49z M42.996,30.253c-0.018,0-0.018,0-0.04,0
		c0,0.019-0.019,0.019-0.019,0.039C42.976,30.292,43.016,30.292,42.996,30.253z M43.016,30.253c0.019,0,0.059,0,0.059-0.02
		C43.053,30.233,43.035,30.233,43.016,30.253z M43.173,30.353c-0.04,0.019-0.138,0-0.12,0.058
		C43.094,30.392,43.173,30.411,43.173,30.353z M43.351,30.115c-0.098,0.04-0.159-0.02-0.178,0.079
		C43.253,30.194,43.311,30.156,43.351,30.115z M43.191,30.353c0.02-0.02,0.039,0,0.039-0.039
		C43.212,30.333,43.191,30.333,43.191,30.353z M43.311,30.312c0.137,0,0.235-0.158,0.335-0.059c0.177-0.236,0.49-0.413,0.769-0.472
		c0.019-0.039-0.021-0.039-0.041-0.079c0.197-0.118,0.336-0.315,0.513-0.472c-0.019,0-0.019-0.019-0.06-0.019
		C44.414,29.683,43.841,29.979,43.311,30.312z M43.684,29.998c0-0.02,0-0.039,0-0.059c-0.019,0-0.019-0.021-0.038-0.021
		c-0.02,0.079-0.14,0.079-0.178,0.139C43.566,30.057,43.606,29.998,43.684,29.998z M43.527,30.431
		c0.118,0.039,0.118-0.138,0.196-0.059c0-0.079,0.099-0.099,0-0.118c-0.059,0.079-0.117,0.079-0.196,0.118
		C43.527,30.392,43.527,30.411,43.527,30.431z M43.684,21.515c0.021,0,0.04,0,0.04-0.019C43.724,21.495,43.684,21.495,43.684,21.515
		z M43.704,29.938c0.079-0.021,0.137-0.04,0.178-0.098c0.057,0.02,0.156-0.059,0.076-0.118c0.022,0.098-0.098,0.059-0.076,0.118
		C43.763,29.84,43.743,29.899,43.704,29.938z M43.841,17.067c-0.037,0-0.117,0.118-0.057,0.138
		C43.804,17.165,43.822,17.125,43.841,17.067z M43.804,30.272c0.078,0,0.117,0.04,0.196,0c-0.098,0-0.019-0.039-0.04-0.098
		c0.06,0.019,0.1,0,0.1-0.04c-0.04,0-0.079,0-0.1,0.04C43.921,30.233,43.804,30.175,43.804,30.272z M43.901,17.185
		c0-0.019,0-0.059-0.061-0.039c0.02,0.019,0,0.059,0.041,0.059C43.882,17.204,43.882,17.185,43.901,17.185z M43.921,17.027
		c0-0.039,0.018-0.039,0.018-0.078c-0.038-0.02-0.098,0.098-0.038,0.098C43.901,17.125,44,17.027,43.921,17.027z M43.921,17.027
		c0,0.02,0,0.02-0.02,0.02C43.901,17.027,43.901,17.027,43.921,17.027z M44.116,16.831c-0.097-0.059,0.079-0.059,0.041-0.158
		c-0.021,0-0.041,0-0.079,0c0,0.06-0.059,0.099-0.059,0.158C44.06,16.811,44.097,16.909,44.116,16.831z M44.038,29.722
		c0.059,0.02,0.098,0,0.098-0.059c0.041-0.019,0.101-0.019,0.101-0.078c-0.06,0-0.08,0.039-0.101,0.078
		C44.116,29.703,44.02,29.663,44.038,29.722z M44.06,20.944c0.019,0,0.057,0,0.057-0.02C44.097,20.924,44.06,20.924,44.06,20.944z
		 M44.116,21.337C44.195,21.337,44.097,21.24,44.116,21.337C44.078,21.357,44.116,21.377,44.116,21.337z M44.195,20.866
		c0,0-0.018,0-0.038,0c0,0.039-0.021,0.039-0.021,0.059C44.177,20.924,44.215,20.924,44.195,20.866z M44.294,16.555
		c0,0-0.019,0-0.019-0.019c-0.019,0-0.039,0-0.039,0c0.02,0.078-0.079,0.019-0.059,0.078C44.236,16.614,44.275,16.595,44.294,16.555
		z M44.236,29.998c0.137,0,0.254-0.098,0.413-0.197c-0.019,0-0.06,0-0.06-0.019c0-0.079,0.1-0.039,0.158-0.059
		c-0.079-0.099,0.078-0.039,0.12-0.079c0.038-0.059,0-0.039,0-0.098c0.156,0,0.077-0.138,0.215-0.098
		c-0.018-0.139,0.137-0.119,0.137-0.236c-0.295,0.138-0.472,0.394-0.706,0.571C44.393,29.84,44.294,29.899,44.236,29.998z
		 M44.433,16.437c0.079-0.098,0-0.098,0.038-0.197c-0.098,0-0.098,0.138-0.158,0.177C44.393,16.397,44.393,16.437,44.433,16.437z
		 M44.471,29.427c-0.057,0-0.177,0.058-0.117,0.118C44.373,29.506,44.453,29.486,44.471,29.427z M44.393,15.551
		c0.02,0,0.04,0,0.04,0c0.038-0.019,0.038-0.039-0.019-0.059c0,0.02,0,0.02-0.021,0.02C44.393,15.532,44.393,15.551,44.393,15.551z
		 M44.49,20.688c0,0.02-0.037,0.059,0,0.059C44.49,20.728,44.531,20.708,44.49,20.688z M44.589,29.329
		c-0.058,0-0.099,0.02-0.099,0.079C44.55,29.407,44.568,29.368,44.589,29.329z M44.55,21.16c0,0.02-0.038,0.06,0,0.06
		C44.568,21.2,44.609,21.18,44.55,21.16z M44.648,20.57c0,0.02-0.039,0.059,0,0.059C44.648,20.609,44.689,20.59,44.648,20.57z
		 M44.747,29.113c0,0.059-0.078,0.059-0.078,0.118C44.747,29.229,44.845,29.132,44.747,29.113z M44.747,21.101c0,0,0-0.02,0-0.039
		c-0.02,0-0.038,0-0.038,0c0,0.019,0,0.039,0,0.039S44.728,21.101,44.747,21.101z M44.728,20.57c0.02,0,0.039,0,0.039-0.02
		C44.747,20.55,44.728,20.55,44.728,20.57z M44.747,15.945c-0.038,0.059,0.079,0.059,0.079,0.02
		C44.787,15.964,44.787,15.925,44.747,15.945z M44.904,15.866c0.019-0.021,0.039-0.06,0-0.08c0.019-0.04,0.139-0.098,0.06-0.158
		c-0.041,0.099-0.158,0.138-0.177,0.276c0.037,0,0.057,0.039,0.079,0.039c0-0.058-0.042-0.099,0.02-0.119
		C44.886,15.846,44.904,15.866,44.904,15.866z M44.904,15.787c0.019,0.039,0,0.039-0.019,0.039
		C44.886,15.807,44.886,15.787,44.904,15.787z M44.904,28.974C44.943,28.955,44.904,28.955,44.904,28.974
		C44.886,28.994,44.925,29.013,44.904,28.974z M45.572,28.246c-0.117,0.394-0.529,0.629-0.629,0.964
		c0.138-0.039,0.198-0.236,0.315-0.255c0,0.079-0.041,0.119,0.039,0.158c0-0.039,0.079,0,0.079-0.039
		c0.04-0.157-0.159-0.177-0.079-0.315c0.04,0,0.021,0.059,0.06,0.059c0.157-0.276,0.354-0.512,0.452-0.827
		c0.116-0.079,0.177-0.295,0.157-0.414c0.118-0.118,0.235-0.453,0.178-0.591c-0.099,0.493-0.354,0.827-0.492,1.26
		C45.613,28.226,45.613,28.207,45.572,28.246z M45.062,20.314c-0.06-0.021-0.078,0.039-0.097,0.058
		C45.022,20.374,45.043,20.333,45.062,20.314z M45.121,20.846c0.021-0.079-0.059-0.04-0.059-0.098
		c0.059,0.02,0.039-0.059,0.118-0.04c0,0.04-0.039,0.04-0.039,0.079c0.137-0.02,0.236-0.118,0.197-0.216
		c0.079,0.059,0.058-0.079,0.158-0.059c0-0.039,0-0.098-0.061-0.078c-0.116,0.118-0.235,0.236-0.432,0.295
		C44.984,20.826,45.062,20.905,45.121,20.846z M45.142,15.473C45.181,15.453,45.142,15.433,45.142,15.473
		C45.121,15.473,45.161,15.492,45.142,15.473z M45.259,20.333c0,0.021-0.117,0.06-0.041,0.099
		C45.218,20.393,45.338,20.374,45.259,20.333z M45.298,15.394c0,0.039-0.039,0.058,0,0.078
		C45.298,15.433,45.338,15.414,45.298,15.394z M45.32,20.196c0,0.019-0.042,0.039,0,0.059C45.32,20.235,45.357,20.215,45.32,20.196z
		 M45.475,22.637c0-0.02,0-0.04,0-0.059c-0.039,0-0.08,0-0.098,0.039C45.417,22.637,45.436,22.657,45.475,22.637z M45.652,28.738
		c-0.099-0.02,0-0.079-0.039-0.158c0.158-0.078,0.256-0.295,0.295-0.452c0.041,0,0.079,0,0.099-0.02
		c-0.04-0.019-0.058-0.039-0.058-0.079c0.076,0.019,0.097-0.019,0.117-0.078c-0.041-0.079,0.136-0.354,0.117-0.513
		c0.04,0,0.04,0.04,0.079,0.02c0-0.098-0.039-0.118,0-0.216c-0.019,0-0.06,0-0.079,0c-0.098,0.709-0.611,1.141-0.767,1.712
		C45.535,28.935,45.554,28.797,45.652,28.738z M45.475,29.013c0.021,0,0.059,0,0.059-0.019
		C45.515,29.013,45.475,28.994,45.475,29.013z M45.572,15.137c0,0.06-0.097,0.02-0.076,0.099
		C45.554,15.236,45.633,15.157,45.572,15.137z M45.83,20.235c-0.08,0.039,0-0.098-0.058-0.098c-0.04,0.059-0.06,0.098-0.12,0.118
		c-0.019,0.039,0.021,0.039,0.021,0.078c-0.021,0.04-0.12,0-0.12,0.04c0.079,0-0.058,0.079,0.019,0.079
		c0.041-0.039,0.08-0.119,0.139-0.059C45.691,20.275,45.81,20.333,45.83,20.235C45.869,20.215,45.83,20.215,45.83,20.235z
		 M45.652,14.941c0,0.04-0.119,0.079-0.058,0.118C45.595,15.02,45.712,14.98,45.652,14.941z M45.674,28.621
		c-0.12,0.138,0.117-0.04,0-0.02V28.621z M45.652,15.059c0.021,0,0.039,0,0.039-0.019C45.674,15.04,45.652,15.04,45.652,15.059z
		 M45.73,19.842c0.019,0.039-0.117,0.079-0.039,0.118C45.691,19.901,45.81,19.881,45.73,19.842z M45.712,23.109
		c0.019,0,0.06,0,0.06-0.02C45.75,23.109,45.712,23.089,45.712,23.109z M45.848,23.05c0-0.02,0-0.039,0-0.059c0,0-0.018,0-0.038,0
		c0,0.02,0,0.039,0,0.059C45.83,23.05,45.848,23.05,45.848,23.05z M45.848,23.267c-0.018,0.02-0.018,0.138,0.061,0.118
		C45.908,23.325,45.908,23.267,45.848,23.267z M45.949,20.137c0-0.02,0-0.02,0-0.039c-0.022,0-0.022,0-0.041,0
		c0,0.019,0,0.019,0,0.039C45.927,20.137,45.927,20.137,45.949,20.137z M46.066,23.443c-0.06,0-0.099,0.078-0.099-0.039
		c-0.019,0-0.041,0-0.06,0c0.019,0.06,0.08,0.098,0.118,0.157C46.007,23.502,46.104,23.542,46.066,23.443z M45.927,20.038
		c0.041-0.058,0.08-0.118,0.198-0.118c0-0.098,0.138-0.217,0.197-0.138c0-0.039-0.06-0.098,0.058-0.098
		c-0.058-0.06,0.06-0.158-0.058-0.177c-0.06,0.079,0,0.216-0.139,0.158C46.164,19.842,45.889,19.881,45.927,20.038z M46.007,23.227
		c0,0,0-0.02,0-0.039c-0.019,0-0.039,0-0.058,0c0,0.019,0,0.039,0,0.039C45.968,23.227,45.987,23.227,46.007,23.227z M45.968,28.58
		c0.196-0.393,0.491-0.806,0.57-1.24c0.019-0.118-0.039-0.256,0.079-0.354c-0.039,0-0.019-0.078-0.079-0.059
		c-0.098,0.236-0.079,0.452-0.158,0.728C46.243,27.951,46.007,28.246,45.968,28.58z M46.066,19.665c0-0.021,0-0.021,0-0.04
		c-0.019,0-0.019,0-0.041,0c0,0.019,0,0.019,0,0.04C46.048,19.665,46.048,19.665,46.066,19.665z M46.322,24.132
		c0.058-0.078-0.019-0.255-0.12-0.275c0.061-0.059,0.021-0.098-0.038-0.118c0.06-0.059-0.02-0.137-0.079-0.177
		c0,0.059,0,0.118,0,0.177c0.04,0,0.06,0,0.079,0C46.066,23.856,46.322,23.955,46.322,24.132z M46.164,19.508
		c0.117-0.02,0.158-0.119,0.197-0.217c0.138-0.157,0.354-0.334,0.373-0.551c-0.156,0.157-0.274,0.354-0.373,0.551
		C46.263,19.33,46.243,19.449,46.164,19.508z M46.184,26.829c-0.02,0.02-0.02,0.079,0.019,0.099
		C46.202,26.888,46.224,26.829,46.184,26.829z M46.361,26.534c-0.058,0.275-0.08,0.413-0.159,0.669
		C46.322,27.046,46.44,26.691,46.361,26.534z M46.243,26.593c0,0.039-0.079,0.098,0,0.118
		C46.224,26.672,46.304,26.613,46.243,26.593z M46.304,26.416c0-0.02,0-0.039-0.041-0.039c0,0.039,0,0.059,0.018,0.078
		C46.281,26.436,46.281,26.416,46.304,26.416z M46.361,24.762c-0.058,0.079,0,0.138,0.04,0.177
		C46.459,24.88,46.38,24.822,46.361,24.762z M46.538,24.526c0-0.099-0.06-0.137-0.098-0.196c0.019-0.06-0.039-0.08-0.02-0.158
		c-0.117,0.02-0.041,0.118,0.02,0.158C46.479,24.427,46.401,24.526,46.538,24.526z M46.519,25.176c-0.117,0.019-0.04,0.216,0,0.275
		c0-0.118,0-0.138-0.019-0.236c0.039,0.04,0.058,0.04,0.058-0.02c-0.058-0.019,0.041-0.078,0-0.138
		c-0.079,0.059-0.058,0.039-0.137-0.019c-0.041,0.039,0.02,0.039,0,0.118C46.459,25.156,46.519,25.136,46.519,25.176z
		 M46.421,28.108c0-0.039,0.019-0.039,0.019-0.059C46.538,28.03,46.499,28.128,46.421,28.108z M46.479,19.33
		c-0.019,0.04-0.077,0.138-0.038,0.158C46.459,19.449,46.538,19.369,46.479,19.33z M46.833,18.896c0.02,0,0.02,0.02,0.06,0.02
		c0.018-0.078-0.02-0.098-0.06-0.118c-0.117,0.236-0.275,0.334-0.314,0.61C46.578,19.251,46.873,19.153,46.833,18.896z
		 M46.519,25.53c0.039,0.119,0.02,0.099,0.099,0.039c0,0.039-0.039,0.059-0.019,0.1c0.099-0.04,0.037-0.198,0.019-0.277
		c0.038-0.019,0.099-0.019,0.117-0.058c-0.018-0.099,0-0.256-0.099-0.375c-0.057,0.079,0.197,0.354-0.078,0.375
		C46.538,25.431,46.655,25.55,46.519,25.53z M46.538,27.577c-0.039,0.079,0.059,0.119,0.079,0.059
		C46.578,27.636,46.597,27.577,46.538,27.577z M46.538,25.824c0.117,0,0.059,0.158,0.139,0.177c0.019-0.138,0-0.334-0.12-0.255
		c0.04,0,0.06,0.039,0.079,0.059C46.597,25.805,46.557,25.805,46.538,25.824z M46.597,26.14c-0.019,0-0.04,0.02-0.059,0.02
		c0.019,0.217,0.139,0.334,0.059,0.531c0.138-0.098,0.099-0.315,0-0.453c0.058,0,0.058,0.039,0.119,0
		c-0.061-0.118-0.019-0.217-0.159-0.255c-0.019,0.078,0.079,0.039,0.06,0.118C46.597,26.1,46.597,26.12,46.597,26.14z
		 M46.557,24.585c-0.019,0.019,0,0.099,0.06,0.099C46.617,24.625,46.597,24.604,46.557,24.585z M46.557,26.75
		c0.021,0.078-0.019,0.177,0.06,0.177C46.655,26.888,46.617,26.77,46.557,26.75z M46.597,27.873c-0.059-0.02,0-0.099,0.02-0.099
		C46.655,27.812,46.597,27.812,46.597,27.873z M46.636,26.16c-0.019,0-0.039,0-0.039-0.02c0.02,0,0.02-0.02,0.02-0.04
		C46.636,26.1,46.636,26.14,46.636,26.16z M46.677,27.519c0-0.06,0.019-0.099,0.079-0.099
		C46.756,27.458,46.756,27.519,46.677,27.519z M46.716,25.412c-0.019,0.019-0.039,0.157,0.04,0.157
		C46.756,25.51,46.756,25.451,46.716,25.412z M46.775,26.021c0-0.02,0.037-0.02,0.057-0.02c-0.057-0.058,0.06-0.138-0.057-0.138
		c0-0.039,0-0.078-0.02-0.078c0,0.02,0,0.02-0.021,0.02c-0.018,0.039,0.021,0.058,0.041,0.058
		C46.756,25.884,46.734,26.002,46.775,26.021z M46.756,18.7c0.02,0,0.039,0,0.039-0.02C46.795,18.68,46.756,18.68,46.756,18.7z
		 M46.775,26.613c-0.02-0.099,0.057-0.119,0.057-0.217c0.078-0.019,0.06,0.04,0.119,0.059c-0.019,0.079-0.059,0.019-0.099,0
		c0,0.019,0,0.039,0,0.059C46.795,26.514,46.873,26.652,46.775,26.613z M46.853,26.731c0,0.019-0.02,0.019-0.02,0.039
		c-0.02,0-0.038-0.019-0.058-0.019c0.02-0.019,0.02-0.019,0.02-0.039C46.812,26.711,46.833,26.731,46.853,26.731z M46.912,18.366
		c0.021,0.118-0.137,0.197-0.079,0.255C46.853,18.563,47.031,18.425,46.912,18.366z M46.853,26.238
		c0.04-0.02,0.04-0.099,0.119-0.099C46.953,26.2,46.893,26.277,46.853,26.238z M46.953,25.746c0,0.02-0.041,0.02-0.06,0.02
		C46.893,25.746,46.933,25.746,46.953,25.746z M46.953,26.652c0,0.02,0,0.04,0,0.059c-0.02,0-0.041,0-0.06,0
		c0-0.019,0-0.039,0-0.059C46.912,26.652,46.933,26.652,46.953,26.652z M47.089,18.444c0.06,0,0.079,0,0.12-0.019
		c0.037-0.099-0.06-0.059-0.06-0.118c0.06-0.059,0.079,0.02,0.117-0.039c0-0.059,0.019-0.157-0.058-0.157
		c-0.059,0.235-0.354,0.472-0.256,0.708C46.99,18.661,47.168,18.602,47.089,18.444z M47.089,18.11
		c-0.099,0.058-0.079,0.118-0.117,0.235C47.051,18.326,47.108,18.168,47.089,18.11z M47.345,18.11
		c0.02-0.059,0.02-0.139-0.038-0.158c-0.021,0.039-0.061,0.059-0.061,0.138C47.307,18.09,47.307,18.11,47.345,18.11z M47.307,18.228
		c0.02,0,0.038,0,0.038-0.02C47.326,18.208,47.307,18.208,47.307,18.228z M47.345,17.499c0,0.02-0.038,0.059,0,0.059
		C47.345,17.538,47.386,17.519,47.345,17.499z M47.462,17.873c-0.076-0.118,0.12-0.315,0-0.374c0,0.177-0.156,0.296-0.117,0.415
		C47.345,17.834,47.405,17.854,47.462,17.873z M47.582,17.264c-0.019,0.078-0.041,0.118-0.079,0.177
		C47.62,17.46,47.661,17.283,47.582,17.264z M47.699,17.362c0-0.02,0-0.04,0-0.059c-0.019,0-0.038,0-0.038,0c0,0.02,0,0.039,0,0.059
		C47.661,17.362,47.681,17.362,47.699,17.362z M47.915,15.669c0,0.04-0.077,0.315,0.021,0.354
		C47.876,15.906,48.016,15.767,47.915,15.669z M47.937,16.299c0.018,0,0.037,0.02,0.037,0
		C47.974,16.259,47.937,16.259,47.937,16.299z M47.974,16.358c0.02,0.098,0.02,0.078,0,0.177c0.119,0,0.062-0.158,0.099-0.217
		c0.08,0-0.019-0.098,0,0C47.994,16.279,48.054,16.397,47.974,16.358z M48.054,16.692c-0.019-0.078,0.099-0.157,0-0.157
		c0,0.019,0,0.058-0.038,0.039C48.016,16.614,48.016,16.672,48.054,16.692z"/>
	<path fill="#070793" d="M47.469,37.891c-0.019,0,0,0.019,0,0.019c0.019,0.079,0.06-0.019,0.099,0c0.02,0.119,0,0.198-0.039,0.276
		c0.02,0.038,0.136,0,0.178,0.019c-0.139,0.217-0.062,0.472-0.178,0.629c0.079,0.08-0.041,0.08,0.039,0.177
		c-0.02,0.019-0.08,0.019-0.099,0.059c0.019,0.039,0.04,0.039,0.079,0.021c-0.059,0.137-0.079,0.373-0.257,0.314
		c0,0.078,0.139,0.04,0.159,0.098c0,0.138-0.079,0.236-0.177,0.275c0.098,0.098-0.08,0.098,0,0.235
		c-0.061,0.04-0.138,0.04-0.178,0.099c0.04,0.06,0.158-0.059,0.215,0.02c-0.057,0.196-0.098,0.395-0.136,0.591
		c-0.039-0.138-0.118,0.039-0.197,0.079c0.02,0.059,0.137-0.06,0.178,0.019c-0.197,0.098-0.02,0.374-0.219,0.512
		c0,0.06,0.041,0.099,0.021,0.177c-0.06-0.079-0.177-0.099-0.198-0.217c-0.038,0,0,0.098-0.038,0.117
		c0.079,0,0.099,0.02,0.158,0.079c-0.021,0.059-0.06,0.098-0.021,0.177c-0.019,0.04-0.118,0.019-0.118,0.079
		c0,0.058,0.118-0.02,0.079,0.058c0.079,0.04,0-0.098,0.099-0.058c0.078,0.099-0.06,0.118-0.06,0.217c0.021,0.038,0.04-0.02,0.078,0
		C46.919,42.04,46.899,42,46.802,42c0,0.06,0.039,0.1,0.019,0.158c-0.139,0.157-0.275,0.019-0.433,0.157
		c0.018-0.079,0.018-0.059,0-0.118c-0.02,0.099-0.099-0.079-0.137,0.039c0.019-0.669,0.354-1.161,0.256-1.87
		c0.058,0,0.038,0.059,0.076,0.059c0.041-0.275,0.198-0.492,0.16-0.826c0.059-0.02,0.04-0.08,0.116-0.06
		c-0.098-0.06,0.101-0.237-0.058-0.275c0.058-0.079,0.08-0.158,0.02-0.198c0.038,0,0.02-0.078,0.098-0.039
		c0.14-0.59,0.295-1.319,0.472-1.968c0.021-0.079-0.078-0.02-0.057-0.099c0.156-0.078,0.156-0.255,0.098-0.374
		c0-0.019,0-0.019,0-0.039c-0.078-0.019-0.078,0.06-0.078,0.137c0.059,0,0.019-0.098,0.078-0.098
		c-0.139,0.158-0.177,0.531-0.158,0.807c-0.039,0-0.039-0.02-0.079-0.02c-0.039,0.078,0.019,0.078,0.019,0.157
		c-0.117,0.02-0.077,0.119-0.058,0.217c-0.158,0.197-0.119,0.472-0.236,0.611c0.019,0.019,0.041,0.038,0.06,0.059
		c0,0.059-0.06,0.059-0.099,0.08c0.02,0.038,0.039,0.059,0.08,0.059c-0.041,0.058-0.101,0.079-0.08,0.177c-0.021,0-0.039,0-0.059,0
		c-0.139,0.688-0.335,1.279-0.433,1.988c-0.02,0-0.02,0.039-0.02,0.058c0.02,0,0.02-0.039,0.02-0.058c0.098,0,0,0.058,0.019,0.119
		c-0.039,0-0.039-0.02-0.077-0.02c-0.139,0.866-0.354,1.594-0.452,2.44c-0.14,0.335-0.101,0.729-0.256,1.023
		c-0.178,1.536-0.494,3.149-0.631,4.803c-0.079,1.083-0.199,2.284-0.041,3.189c0.019-0.257,0.08-0.473,0-0.729
		c0.12-0.276,0-0.552,0.08-0.807c0-0.06-0.019-0.08-0.08-0.08c0.019-0.137,0.12-0.196,0.08-0.374
		c-0.019-0.059,0.04-0.039,0.04-0.099c0-0.452,0.057-0.669,0.098-1.102c0.02-0.02,0.038-0.02,0.057-0.02
		c-0.037-0.118-0.098-0.314,0.042-0.433c-0.079-0.099-0.061-0.179-0.042-0.354c0.08-0.019,0.14-0.019,0.179-0.039
		c0.019-0.119-0.117,0.039-0.137-0.059c0-0.098,0.156-0.04,0.234-0.08c-0.037,0.02-0.019,0.098-0.058,0.139
		c0.099,0.02,0.058-0.119,0.099-0.139c-0.06-0.018-0.06-0.117-0.119-0.156c-0.058,0.019,0,0.117-0.02,0.156
		c-0.058,0-0.058-0.059-0.117-0.039c0.06-0.373,0-0.688,0.157-0.905c-0.059-0.099,0-0.216,0.08-0.296c0-0.019-0.08-0.019-0.08,0
		c-0.021-0.235,0.118-0.669,0.118-0.942c0.02,0,0.061,0,0.08,0c0.018-0.08-0.08-0.021-0.08-0.101
		c0.118-0.512,0.177-0.904,0.236-1.317c0.039,0,0.058,0,0.099,0c-0.041-0.179,0.08-0.297-0.041-0.354
		c0.041-0.14,0.121-0.396,0.06-0.492c0.136-0.138,0.039-0.354,0.177-0.571c0.061,0,0.039,0.1,0.039,0.177
		c0.04,0.02,0.139-0.117,0.274-0.077c-0.117,0-0.076-0.178-0.177-0.217c-0.039,0.02-0.019,0.058-0.019,0.097
		c-0.079,0-0.159,0.02-0.159-0.078c0.061,0.019,0.102,0,0.12-0.02c-0.138-0.197,0.019-0.473,0.08-0.729
		c0.196,0.059-0.041,0.374-0.022,0.492c0.041,0.059,0.061,0.098,0.022,0.177c0.097-0.02,0.079-0.158,0.038-0.217
		c0.158,0.02,0.041-0.06,0.099-0.098c0.098,0,0.078,0.117,0.119,0.157c0.099-0.04-0.021-0.217,0.099-0.275
		c0.019,0,0.019-0.02,0.019-0.039c-0.019,0-0.019,0.02-0.019,0.039c-0.041,0-0.061-0.02-0.08-0.02c-0.019,0.02-0.04,0.06-0.04,0.119
		c-0.058,0.02-0.08-0.059-0.098,0c-0.058,0-0.04-0.098-0.04-0.177c0.118,0,0,0.098,0.058,0.118c0.041-0.079,0.041-0.177,0.101-0.235
		c0.118,0,0.118,0.117,0.216,0.117c0.02,0.098-0.098,0.039-0.079,0.118c0.038,0.098,0.099-0.079,0.099,0
		c0.04,0.117-0.099,0.196,0,0.217c0,0.039,0.018,0.059,0.018,0.078c0,0.099-0.079,0.099-0.155,0.139
		c0.019,0.077,0.058-0.039,0.117,0c0.019,0.158-0.196,0.06-0.196,0.217c-0.02,0-0.041,0-0.041,0.02c0.021,0.04,0.06,0.02,0.041-0.02
		c0.057,0,0.057-0.04,0.098-0.019c-0.041,0.079,0.039,0.157-0.041,0.235c-0.038,0-0.019-0.04-0.057-0.058
		c-0.08,0.058,0.117,0.234-0.041,0.176c-0.039,0.138,0.139,0.078,0.098,0.255c-0.038-0.117-0.137-0.019-0.235-0.078
		c0.019,0.139,0.159,0.119,0.235,0.099c-0.019,0.118-0.098,0.157-0.178,0.235c0.022,0.02,0.08,0.04,0.102,0
		c0.076,0.06-0.021,0.138,0,0.217c-0.061,0.02-0.061-0.04-0.12-0.02c0-0.058,0.041-0.078,0.018-0.157
		c-0.116,0-0.076,0.098-0.116,0.157c-0.061,0.059-0.039-0.038-0.118-0.038c-0.041,0.038,0.039,0.117,0,0.195
		c0.058,0,0.058-0.058,0.058-0.118c0.06,0.02,0.256-0.039,0.217,0.138c-0.079,0.02-0.079-0.04-0.117,0
		c-0.059,0.178,0.178,0.474-0.04,0.452c0.098-0.039,0.04-0.157-0.06-0.138c-0.099,0.119,0.1,0.099,0.06,0.237
		c-0.06,0.058-0.019-0.061-0.079,0c0.059,0.058-0.02,0.137,0.079,0.156c-0.019,0.08-0.06,0.08,0.04,0.12
		c-0.119,0.038-0.1,0.177-0.218,0.195c0,0.059,0.059,0.059,0.059,0.099c-0.097,0.04-0.018,0.157-0.039,0.198
		c0,0.117-0.058,0.019-0.099,0c-0.019,0.098-0.155,0.058-0.136,0.196c0.078,0.021,0.038-0.079,0.078-0.098
		c0.02,0.059,0.137,0.019,0.156,0.098c-0.079,0.097-0.176,0.178-0.098,0.314c-0.057,0-0.057-0.039-0.117-0.058
		c-0.019-0.079,0.039-0.079,0.019-0.16c-0.117,0.021-0.038,0.258-0.117,0.337c-0.06,0-0.099-0.04-0.159-0.061
		c0-0.077,0.04-0.116,0.02-0.215c0.098-0.02,0.04,0.099,0.098,0.117c0.1-0.058-0.02-0.177-0.077-0.235
		c-0.139,0.235-0.079,0.63-0.157,0.924c0.037,0.08,0.195,0.1,0.234,0.021c-0.058-0.021-0.117-0.039-0.077-0.138
		c-0.059,0,0,0.138-0.12,0.117c0.061-0.117,0.02-0.156,0.099-0.216c-0.058-0.02-0.058-0.215-0.019-0.274
		c0.059,0.06,0.078,0,0.158,0.039c0,0.039,0.018,0.099-0.041,0.08c0.1,0.038,0.021,0.118,0.1,0.136c0.078-0.136-0.021-0.234,0-0.394
		c0.138,0.06,0.197,0.415,0.058,0.454c0.06,0.058,0.019,0.138,0,0.196c-0.019,0-0.038-0.039-0.058-0.039
		c-0.1,0.098-0.021,0.195-0.078,0.335c0.098,0.02,0.019-0.14,0.078-0.14c0.039,0,0.039,0.021,0.099,0.021
		c-0.021,0.06-0.041,0.139-0.079,0.177c-0.061-0.02-0.12,0-0.139-0.058c-0.039,0.077-0.098,0.077-0.178,0.038
		c0,0.039,0.02,0.06,0.041,0.08c0.02,0,0.137,0.039,0.137-0.02c0.119,0.118-0.079,0.178,0,0.314c-0.039,0.06-0.098-0.039-0.117,0.06
		c0.117,0.078,0.158-0.06,0.236-0.139c0.076,0.098-0.101,0.079-0.021,0.197c-0.057,0.02-0.137,0.079-0.197,0.039
		c0,0.158,0.159,0.04,0.197,0.177c-0.02,0.06-0.098,0.099,0,0.119c-0.02,0.041-0.038,0.059-0.098,0.059
		c0.119,0.079,0.019,0.197,0,0.314c-0.117,0.021-0.058-0.156-0.137-0.177c-0.021-0.079,0.058-0.079,0.079-0.118
		c-0.199-0.099-0.059,0.275-0.139,0.491c0.06,0.039,0.139,0.039,0.196,0.079c-0.019,0.079-0.038,0.138-0.116,0.159
		c0-0.08-0.041-0.1-0.06-0.139c-0.08,0.02-0.02,0.275-0.159,0.177c0,0.06,0.041,0.06,0.041,0.078
		c0.098,0.021,0.079-0.078,0.158-0.078c-0.04,0.118-0.158,0.256-0.098,0.394c0.155,0.02-0.021-0.295,0.136-0.275
		c0.04,0.098-0.019,0.138,0.04,0.217c-0.099,0.019,0.02,0.235-0.04,0.315c-0.038,0.019-0.158,0.058-0.196,0.019
		c0,0.079-0.02,0.177-0.02,0.276c0.039,0,0.02-0.061,0.099-0.04c0.039-0.099-0.06-0.079-0.041-0.138
		c0.041-0.02,0.041-0.079,0.12-0.06c0,0.198,0,0.354-0.04,0.59c-0.058,0.021-0.058-0.018-0.08-0.058
		c-0.099,0.04-0.079,0.177-0.058,0.274c0,0.021,0,0.039,0,0.06c0.039-0.021,0.039-0.06,0-0.06c0-0.039,0-0.078,0-0.117
		c0.058,0,0.118,0,0.118-0.039c-0.018,0.314,0.039,0.511-0.06,0.808c0,0.039,0.06,0,0.06,0.039c0.039,0.157-0.098,0.118-0.139,0.197
		c0.021,0.019,0.079,0.019,0.101,0.058c-0.021,0.354,0.038,0.631-0.06,0.926c-0.019,0.079,0.098,0.019,0.08,0.079
		c0,0.058-0.042,0.078-0.099,0.058c0.019,0.058,0.117,0.019,0.117,0.058c0,0.08,0.039,0.199-0.06,0.179
		c0.219,0.058,0.157,0.374,0.177,0.571c-0.057-0.021-0.155-0.099-0.215-0.041c-0.513-0.354-0.788-1.219-0.708-2.007
		c-0.039-1.397,0.195-2.696,0.315-3.878c0-0.471,0.098-0.905,0.156-1.377c0.04,0,0.059,0,0.078,0
		c-0.098-0.295,0.098-0.669,0.098-1.004c0.02,0,0.061,0,0.099,0c-0.019-0.04-0.038-0.04-0.079-0.04
		c0.139-0.786,0.277-1.514,0.396-2.322c0-0.079,0.079-0.079,0.098-0.099c-0.06-0.255,0.039-0.394,0.059-0.649
		c0.058,0,0.039,0.039,0.077,0c0-0.039-0.058,0-0.058-0.059c0.02-0.413,0.217-0.768,0.217-1.142c0.04-0.059,0.119-0.197,0.06-0.275
		c0.215-0.669,0.312-1.574,0.551-2.125c-0.02-0.039-0.039-0.059-0.02-0.119c0.275-0.924,0.491-1.909,0.669-2.932
		c0.019-0.117,0-0.197-0.039-0.275c-0.118,0.098-0.315,0.138-0.354,0.315c-0.099,0.039,0-0.098-0.079-0.079
		c-0.039-0.019-0.079,0.118,0,0.079c-0.02,0.079-0.098,0.138-0.158,0.058c0,0.06-0.08,0.06-0.08,0.119
		c0.021,0.058,0.061-0.039,0.098,0c-0.057,0.098-0.195,0.098-0.253,0.217c0.019,0.039,0.038-0.02,0.077,0
		c-0.02,0.098-0.117,0.098-0.117,0.196c0.098,0.02,0.176-0.196,0.274-0.256c-0.099,0.237-0.295,0.394-0.435,0.591
		c0.061,0.099,0.061-0.06,0.121-0.039c-0.019,0.077-0.041,0.158-0.14,0.158c0-0.019,0-0.039,0-0.059
		c-0.057,0.059-0.078,0.138-0.157,0.177c-0.019,0.079,0.079,0.06,0.041,0.138c-0.06,0.019-0.08,0-0.06-0.058
		c-0.099,0.058,0.019,0.157-0.039,0.215c-0.08-0.038-0.158,0.039-0.158-0.079c-0.079-0.02-0.039,0.099-0.117,0.079
		c-0.02-0.098,0.057-0.138,0-0.196c-0.041,0-0.02,0.079-0.079,0.079c0-0.079,0.079-0.079,0.06-0.177c0.019,0,0.019-0.02,0.019-0.039
		c0.038-0.019,0-0.039,0,0c-0.019,0-0.019,0.019-0.019,0.039c-0.06,0.02-0.08,0.098-0.121,0.138c0,0.039,0.041,0.019,0.061,0.039
		c-0.041,0.079-0.099,0.217-0.197,0.177c0,0.059,0.02,0.117,0.058,0.138c0.098-0.177,0.218-0.138,0.373-0.158
		c0.04,0.079,0.021,0.06,0,0.138c-0.037,0-0.076,0-0.117,0c0.041,0.217-0.136,0.217-0.136,0.414
		c-0.08,0.019-0.021-0.079-0.099-0.079c0.038,0.177,0,0.177-0.04,0.315c-0.039,0-0.08,0-0.117,0c0,0.04,0,0.079,0,0.137
		c-0.08,0.019-0.099-0.039-0.14-0.058c-0.079,0.078-0.02,0.117,0.02,0.177c-0.02,0.196-0.176,0.255-0.217,0.453
		c-0.059,0-0.079,0.098-0.137,0.038c-0.235,0.689-0.63,1.201-0.907,1.87c-0.038,0-0.038,0.079-0.117,0.059
		c-0.019,0.256-0.079,0.472-0.274,0.552c0,0.215-0.215,0.393-0.237,0.688c-0.156,0.058-0.156,0.414-0.313,0.472
		c0.06,0.118-0.138,0.177-0.117,0.394c-0.256,0.275-0.297,0.787-0.611,1.023c0,0.04,0,0.098,0,0.137
		c-0.452,0.906-0.867,1.891-1.576,2.56c-0.076-0.021-0.098,0.039-0.196,0.019c-0.019,0.021-0.019,0.08-0.057,0.099
		c-0.158,0-0.237-0.078-0.354-0.039c-0.12-0.198-0.256-0.257-0.335-0.491c-0.256,0.018-0.177-0.296-0.295-0.415
		c-0.041-2.5,0.532-4.96,1.004-7.44c-1.241,1.615-2.009,3.721-2.776,5.806c0,0.059,0,0.099,0,0.159
		c-0.04,0.037-0.04,0.117-0.117,0.137c0.019,0.059,0.077,0.039,0.058,0.098c-0.098,0.119-0.079,0.354-0.196,0.493
		c-0.275,1.356-0.669,2.559-0.924,3.956c-0.098,0.354-0.079,0.865-0.294,1.181c-0.079,0.039-0.158,0.098-0.218,0.176
		c-0.038-0.019-0.098-0.019-0.079-0.078c0,0.059-0.079,0.059-0.117,0.117c-0.079-0.039-0.079-0.157-0.197-0.157
		c-0.019-0.039-0.06-0.078-0.06-0.157c-0.019,0-0.038,0.02-0.038,0.04c-0.041-0.079-0.139-0.099-0.12-0.256
		c-0.039-0.04-0.058,0.019-0.117-0.019c-0.019-0.041-0.06-0.101-0.079-0.14c0.139-1.691,0.414-3.562,0.57-5.294
		c0.139-0.473,0.079-1.043,0.277-1.397c0-1.378,0.472-2.755,0.57-4.075c0.237-0.57,0.256-1.339,0.669-1.731
		c0.414,0.059,0.531,0.413,0.689,0.729c0,0.117-0.139,0.157-0.038,0.217c-0.12,0.078-0.139,0.275-0.139,0.471
		c-0.393,0.887-0.471,2.146-0.708,3.09c0.041,0.079-0.08,0.019-0.061,0.079c-0.019,0-0.019,0-0.038,0.019
		c-0.019,0-0.019,0-0.019,0.019c0.019,0.039,0.038,0,0.019-0.019c0.038,0,0.038,0,0.038-0.019c0.022,0,0.022,0.019,0.042,0.019
		c0,0.098-0.042,0.158-0.02,0.256c-0.041,0.039-0.079-0.02-0.12,0.058c0,0.099,0.06-0.019,0.098,0.04
		c-0.038,0.196-0.038,0.334-0.076,0.571c-0.079,0.02-0.041,0.02-0.12,0c0.098,0.117,0.079,0.294,0.021,0.453
		c-0.021-0.02-0.021-0.039-0.021-0.079c-0.079,0.02,0,0.079-0.039,0.138c0,0.039,0.039,0.039,0.06,0.019
		c0,0.06-0.04,0.079-0.021,0.158c-0.019,0.019-0.058,0.019-0.118,0.019c0.216,0.02,0,0.275,0.08,0.375
		c0.294-0.768,0.589-1.574,0.845-2.283c0.789-1.615,1.38-3.425,2.776-4.41c0.218,0.059,0.471,0.059,0.63,0.079
		c0.041,0.04-0.019,0.04-0.04,0.098c0.473-0.079,0.532,0.571,0.394,0.807c0.177,0.295-0.118,0.847-0.098,1.062
		c0,0.039-0.019,0.039-0.079,0.039c0.041,0.217-0.136,0.631-0.118,0.945c-0.059,0.02-0.079,0.06-0.12,0.1
		c-0.019,0.077,0.101,0.019,0.079,0.117c-0.156,0,0,0.079-0.018,0.158c-0.04,0-0.08,0-0.099,0c0,0.099,0.019,0.196,0.059,0.236
		c-0.12,0.079-0.021,0.374-0.12,0.472c-0.057,0-0.038-0.078-0.117-0.02c0,0.06,0.059,0.06,0.117,0.08
		c-0.038,0.137-0.275-0.041-0.253,0.137c0.019,0.04,0.076-0.06,0.174-0.02c-0.038,0.1-0.076,0.138,0.041,0.158
		c0,0.019,0,0.059-0.019,0.079c0,0.098-0.041,0-0.079,0c0,0.019,0,0.038-0.019,0.038c0,0.079,0.099,0.06,0.099,0.119
		c-0.041,0.079-0.041,0.177-0.079,0.256c-0.019,0-0.019-0.06-0.019-0.098c-0.06,0.078-0.06,0.177,0.019,0.197
		c0.038,0.256-0.117,0.294-0.158,0.472c0.019,0.1,0.098,0.119,0.06,0.256c-0.06,0-0.019-0.08-0.079-0.099
		c-0.041,0.099,0.019,0.119,0.06,0.157c0,0.06-0.079,0.039-0.101,0.119c0.041,0.058,0.079-0.039,0.101,0.019
		c0,0.079-0.06,0.119-0.041,0.237c-0.039,0-0.06-0.02-0.06-0.061c-0.156,0.198-0.057,0.375-0.057,0.631
		c-0.079-0.038-0.098-0.019-0.12,0.04c0,0.039,0.06,0.02,0.1,0.02c-0.12,0.078-0.041,0.295-0.158,0.313
		c0.079,0.06,0.098,0.158,0,0.236c0.038,0.059,0.079-0.04,0.158,0c0,0.197-0.139,0.119-0.218,0.217c0,0.019,0.177,0.039,0.139-0.039
		c0.057,0.118-0.06,0.177,0.019,0.294c-0.06,0-0.06-0.038-0.117,0c0,0.119,0.057,0.177,0.098,0.236
		c-0.06-0.02-0.177-0.06-0.158,0.039c0.019,0.06,0.079-0.019,0.137,0.02c-0.039,0.099-0.099,0.158-0.118,0.275
		c0.079,0,0.098-0.04,0.098-0.118c0.217-0.137,0.433-0.669,0.63-1.023c0.098-0.178,0.236-0.335,0.256-0.551c0.019,0,0.06,0,0.08,0
		c0.197-0.434,0.393-0.847,0.648-1.222c0.197-0.569,0.551-0.983,0.709-1.554c0.374-0.492,0.61-1.122,0.924-1.653
		c0.079-0.019-0.019,0.099,0.06,0.099c0.099-0.06-0.039-0.118,0-0.236c0.037-0.02,0.079-0.059,0.117-0.079
		c0.158-0.472,0.474-0.807,0.67-1.22c0.02,0,0.02,0,0.039,0c0,0.02,0.019,0.02,0.041,0.02c0-0.02-0.021-0.02-0.041-0.02
		c0.434-0.747,0.924-1.417,1.457-2.066c0.02,0.04,0.039,0,0,0c0.354-0.335,0.61-0.768,1.141-0.924
		c0.158,0.138,0.354,0.078,0.532,0.177c0.038,0.058-0.039,0.039-0.099,0.039c0.178,0.039,0.294,0.118,0.393,0.236
		c-0.019,0.078-0.079,0-0.117,0c0,0.177,0.256,0.276,0.158,0.414c0.235,0.256,0,0.827-0.021,1.241
		c-0.039,0.019-0.039,0.038-0.099,0.019c0.158,0.236-0.118,0.492-0.019,0.669c-0.118,0-0.019,0.217-0.138,0.217
		c0.078,0.117,0,0.255-0.097,0.334c0.02,0.04,0.038-0.039,0.057,0.02c0,0.079-0.019,0.138-0.019,0.236
		c-0.139-0.021-0.019,0.235-0.216,0.177c0.019-0.256,0.119-0.394,0.119-0.65c-0.02,0.118-0.099,0.198-0.08,0.354
		c-0.039,0.039-0.099,0.039-0.159,0.058C47.469,37.91,47.469,37.91,47.469,37.891z M35.661,48.105
		c0.196-1.357,0.335-2.676,0.512-4.072c0.038-0.454,0.156-0.887,0.137-1.32C36.053,44.543,35.817,46.158,35.661,48.105
		C35.601,48.105,35.699,48.203,35.661,48.105z M36.075,46.236c0,0.038-0.06,0.177,0,0.256
		C36.075,46.413,36.132,46.295,36.075,46.236z M36.132,45.666c0.04,0.197-0.117,0.414-0.019,0.551
		C36.094,46.099,36.23,45.764,36.132,45.666z M36.192,45.33c-0.041,0.061-0.019,0.178-0.06,0.237
		C36.271,45.567,36.173,45.371,36.192,45.33z M36.211,45.174c0.041,0.059-0.06,0.097,0,0.118
		C36.23,45.271,36.271,45.174,36.211,45.174z M36.23,44.878c0.021,0.078-0.057,0.176,0,0.217
		C36.23,45.036,36.309,44.938,36.23,44.878z M36.35,45.193c0.019,0,0.057,0,0.057-0.02C36.388,45.174,36.35,45.174,36.35,45.193z
		 M36.407,43.578c0.06,0.04,0.06-0.078,0.021-0.059c0,0.021,0,0.021-0.021,0.021C36.407,43.56,36.407,43.578,36.407,43.578z
		 M36.467,43.146c-0.019,0.019-0.019,0.079-0.019,0.137C36.527,43.324,36.505,43.146,36.467,43.146z M36.448,46.02
		c0.019,0,0.038,0,0.038,0C36.505,46,36.505,46,36.526,46c0-0.019,0-0.039,0-0.059c-0.021,0-0.041,0-0.06,0
		c0,0.02,0,0.04-0.019,0.04C36.448,45.98,36.448,45.998,36.448,46.02z M36.821,44.8c-0.06,0.059-0.04,0.156-0.019,0.235
		C36.802,44.956,36.9,44.858,36.821,44.8z M39.321,38.383c-0.199,0.196-0.275,0.512-0.434,0.749c-0.041-0.039-0.098-0.039-0.117,0
		c-0.021,0.078,0.076,0.038,0.076,0.117c-0.038,0,0,0.079-0.057,0.059c0.019-0.118-0.139,0.019-0.061,0.019
		c0.019-0.019,0.042-0.019,0.061-0.019c0.019,0.099-0.061,0.119-0.099,0.079c0,0.079-0.021,0.118-0.041,0.158
		c0.019,0,0.06,0,0.06,0.02c-0.019,0.079-0.079,0.079-0.139,0.06c0.098,0.158-0.058,0.235-0.137,0.294
		c-0.019,0.079,0.079,0.058,0.038,0.158c-0.019,0.019-0.057,0.019-0.117,0.019c0.079,0.079,0.019,0.197-0.099,0.217
		c0.08,0.177-0.217,0.414-0.139,0.531c-0.019,0.059-0.058,0.078-0.117,0.099c0.098,0.157-0.079,0.236-0.139,0.275
		c0.1,0.119-0.038,0.453-0.156,0.414c0.098,0.256-0.218,0.55-0.177,0.827c-0.079-0.02-0.06,0.079-0.139,0.06
		c0,0.472-0.313,0.944-0.354,1.377c0-0.02,0.021-0.02,0.021,0c-0.06,0.019-0.1,0.078-0.04,0.138c-0.039,0-0.039,0.02-0.08,0.02
		c0,0.196-0.057,0.334-0.117,0.472c0.02,0,0.02,0.04,0.02,0.06c0,0,0,0-0.02,0c0,0.058,0,0.138,0.06,0.138
		c-0.021-0.04,0.019-0.04,0.019-0.08h0.019c-0.019-0.235,0.196-0.491,0.158-0.786c0.136,0,0.098-0.099,0.057-0.158
		c0.139-0.099,0.199-0.373,0.177-0.551c0.059,0.04,0.04-0.021,0.079-0.039c0-0.06-0.039-0.06-0.039-0.119
		c0.039-0.04,0.039,0.019,0.08-0.02c0.019-0.08-0.022-0.119-0.022-0.177c0.041-0.019,0.06,0.019,0.101,0.019
		c0.019-0.078,0-0.138-0.021-0.196c0.041,0,0.079-0.039,0.12-0.059c0.019-0.335,0.254-0.552,0.235-0.828
		c0.12-0.019,0.12-0.177,0.098-0.275c0.021,0,0.06-0.02,0.079-0.039c0.019-0.393,0.316-0.57,0.354-0.984
		c0.117-0.176,0.237-0.374,0.237-0.649c0.137,0.019,0.158-0.119,0.117-0.217c0.117,0.02,0.117-0.098,0.098-0.197
		c0.177-0.061,0.237-0.315,0.237-0.434c0.158-0.098,0.158-0.275,0.235-0.432c0,0.038,0.021,0.059,0.021,0.059
		c0.057-0.059,0.038-0.079,0.038-0.177c0.06-0.039,0.079-0.098,0.158-0.138c-0.04-0.059,0-0.098,0.019-0.158
		c0.019,0,0.04,0.02,0.079,0.02c0.098-0.275,0.237-0.394,0.374-0.669c-0.079,0-0.06,0.059-0.137,0.04
		c-0.021,0.157-0.177,0.354-0.335,0.471c0.019,0.217-0.196,0.217-0.158,0.434C39.341,38.383,39.341,38.383,39.321,38.383z
		 M36.9,43.066c0,0.041-0.06,0.02-0.06,0.08C36.9,43.166,36.958,43.087,36.9,43.066z M36.9,44.642c-0.041,0-0.06-0.019-0.06-0.058
		C36.9,44.582,36.9,44.603,36.9,44.642z M36.938,43.324c-0.019,0.039-0.079,0.137,0,0.137
		C36.919,43.402,37.019,43.363,36.938,43.324z M37.038,42.437c0.041-0.059-0.079-0.079-0.079-0.039c0.021,0,0.04,0.02,0.04,0.039
		C36.999,42.437,37.019,42.437,37.038,42.437z M37.059,44.052c-0.021,0-0.04,0-0.04-0.019
		C37.038,44.033,37.059,44.033,37.059,44.052z M37.727,42.103c-0.038-0.02,0-0.04,0-0.079
		C37.765,42.044,37.727,42.064,37.727,42.103z M38.198,41.631c0.02,0,0.041,0,0.041-0.019
		C38.218,41.612,38.198,41.612,38.198,41.631z M38.474,41.079c-0.019,0-0.019-0.02-0.057-0.02c0,0.061-0.041,0.061-0.041,0.119
		C38.455,41.178,38.474,41.139,38.474,41.079z M38.474,40.981c0.019,0,0.06,0,0.06-0.02C38.514,40.961,38.474,40.961,38.474,40.981z
		 M38.534,40.844c0,0.02,0,0.059,0,0.078C38.594,40.961,38.594,40.804,38.534,40.844z M38.651,40.548
		c0.019,0.059-0.038,0.079-0.038,0.138C38.691,40.725,38.691,40.548,38.651,40.548z M38.927,40.077
		C39.025,40.077,38.927,39.977,38.927,40.077C38.829,40.056,38.927,40.154,38.927,40.077z M38.888,38.915
		c0,0.039-0.019,0.079,0.019,0.098C38.927,38.974,38.927,38.915,38.888,38.915z M39.025,39.781
		c-0.077-0.039-0.099,0.098-0.058,0.098C38.987,39.839,39.006,39.82,39.025,39.781z M39.774,38.147
		c0.019-0.039,0.057-0.06,0.057-0.118c0.021,0,0-0.019,0,0C39.753,38.01,39.734,38.126,39.774,38.147z M39.793,38.207
		c0,0.019-0.041,0.058,0,0.058C39.812,38.245,39.853,38.226,39.793,38.207z M39.892,44.642c0,0.059-0.019,0-0.039-0.019
		c-0.021,0.157-0.06,0.394,0.02,0.492C39.911,44.996,39.99,44.74,39.892,44.642z M39.911,44.621c0.02-0.059,0.041-0.078,0.041-0.157
		c-0.158,0.021,0-0.119-0.06-0.177c-0.079,0.078-0.039,0.158-0.06,0.314C39.911,44.582,39.873,44.582,39.911,44.621z M40.088,42.004
		c0,0.296-0.136,0.65-0.136,1.023c0,0.021,0.057,0,0.057,0.041c-0.177,0.296-0.098,0.767-0.156,1.2c0.039,0,0.039-0.019,0.098-0.019
		c0.019-0.099-0.079-0.079-0.06-0.158c0.117-0.217,0.079-0.473,0.117-0.747c0,0.039-0.038,0.059-0.038,0.039
		c0.177-0.177,0.019-0.532,0.158-0.827c-0.041-0.02-0.041-0.039-0.041-0.099c0.041,0,0.041-0.019,0.06-0.019
		c0.098-0.551,0.196-1.064,0.216-1.535c0.079-0.02-0.019-0.099,0,0C40.129,41.217,40.265,41.631,40.088,42.004z M40.009,44.7
		c0.06,0,0.06,0.02,0.098,0.02c0.022-0.099,0.022-0.313-0.077-0.197C40.167,44.562,40.009,44.642,40.009,44.7z M40.009,45.213
		c0.04,0,0.079,0,0.079-0.02C40.049,45.193,40.009,45.193,40.009,45.213z M40.03,44.858c0.019,0,0.058,0,0.058-0.02
		C40.068,44.839,40.049,44.839,40.03,44.858z M40.107,44.996c-0.077,0-0.098,0.099-0.019,0.099
		C40.088,45.054,40.107,45.054,40.107,44.996z M40.107,44.17c-0.019,0.098-0.019,0.138-0.039,0.236
		C40.129,44.406,40.167,44.229,40.107,44.17z M40.129,43.854c0.019,0.059-0.061,0.119,0,0.158
		C40.129,43.953,40.227,43.874,40.129,43.854z M40.148,43.796c-0.019-0.119,0.079-0.099,0.098-0.158
		c-0.139-0.079,0.039-0.235-0.06-0.296c-0.038,0.04,0,0.158-0.079,0.158C40.227,43.599,40.068,43.697,40.148,43.796z M40.208,37.164
		c-0.06,0-0.12,0.098-0.079,0.117C40.148,37.222,40.208,37.241,40.208,37.164z M40.227,43.205c-0.019,0-0.06,0-0.079,0.021
		c0.06,0,0,0.117,0.079,0.078C40.227,43.264,40.227,43.244,40.227,43.205z M40.187,43.166c0.06,0.039,0.06-0.079,0.021-0.079
		c0,0.021,0,0.039-0.021,0.021C40.187,43.126,40.187,43.146,40.187,43.166z M40.227,44.091c0,0.019-0.04,0.04,0,0.06
		C40.227,44.131,40.265,44.111,40.227,44.091z M40.246,37.124c0.08,0,0.08-0.059,0.099-0.098
		C40.265,37.004,40.284,37.084,40.246,37.124C40.227,37.124,40.246,37.143,40.246,37.124z M40.265,42.614
		c-0.019,0.059-0.038,0.256,0.041,0.256C40.265,42.772,40.306,42.694,40.265,42.614z M40.265,43.343
		c0.061,0.039,0.08-0.079,0.041-0.06c0,0.021,0,0.021-0.041,0.021C40.265,43.324,40.265,43.343,40.265,43.343z M40.325,43.027
		c-0.041,0.02-0.08,0.138,0.019,0.138C40.325,43.126,40.383,43.027,40.325,43.027z M40.325,42.339c-0.02,0.019-0.061,0.157,0,0.177
		C40.364,42.478,40.383,42.398,40.325,42.339z M40.344,44.15c0-0.06,0.098-0.08,0-0.119c0,0.02-0.019,0.039-0.039,0.02
		C40.306,44.111,40.306,44.131,40.344,44.15z M40.344,42.162c0,0.039-0.039,0.059-0.019,0.098
		C40.383,42.3,40.383,42.162,40.344,42.162z M40.344,42.713c0,0.04-0.019,0.119,0.038,0.098
		C40.404,42.752,40.383,42.713,40.344,42.713z M40.383,42.083c0.041-0.039,0.041-0.059-0.019-0.079c0,0.04,0,0.06-0.019,0.079
		C40.364,42.083,40.383,42.083,40.383,42.083z M40.364,40.725c0.158-0.275,0.196-0.847,0.196-1.201
		c0.177-0.217,0.158-0.67,0.277-1.043c-0.079,0.04-0.101,0.138-0.139,0.217c-0.019,0.433-0.256,0.905-0.237,1.378
		C40.442,40.312,40.325,40.548,40.364,40.725z M40.383,42.497c0.041,0.06-0.057,0.099,0,0.119
		C40.404,42.614,40.442,42.517,40.383,42.497z M40.383,37.478C40.364,37.478,40.404,37.497,40.383,37.478
		c0.041,0,0.041-0.02,0.041-0.04c0.019,0,0-0.02,0,0C40.404,37.438,40.404,37.458,40.383,37.478z M40.383,44.996
		C40.424,44.996,40.383,44.976,40.383,44.996C40.364,45.015,40.404,45.036,40.383,44.996z M40.483,44.268
		c0.019-0.06-0.079-0.039-0.101-0.098c0,0.038,0,0.078,0,0.098C40.424,44.268,40.461,44.268,40.483,44.268z M40.442,43.697
		c-0.038,0.039-0.019,0.099,0.019,0.118C40.461,43.776,40.521,43.716,40.442,43.697z M40.483,41.926
		c0,0.039-0.022,0.058-0.041,0.099C40.502,42.044,40.541,41.945,40.483,41.926z M40.561,40.921c0,0.039-0.058,0.158,0,0.177
		C40.581,41.04,40.639,40.961,40.561,40.921z M40.581,41.217c-0.04,0.079,0.098,0.079,0.098,0.039
		C40.639,41.236,40.639,41.217,40.581,41.217z M40.679,40.863c0.038-0.059-0.079-0.059-0.079-0.02c0.019,0,0.038,0,0.019,0.02
		C40.639,40.863,40.66,40.863,40.679,40.863z M40.66,43.54c-0.06,0.019-0.06-0.04-0.06-0.079C40.639,43.48,40.66,43.5,40.66,43.54z
		 M40.66,43.796c-0.079-0.041-0.022-0.099-0.041-0.178C40.679,43.638,40.639,43.736,40.66,43.796z M40.718,42.555
		c0,0.02,0,0.039,0,0.059C40.797,42.654,40.797,42.517,40.718,42.555z M40.797,38.068c0.019,0.039-0.038,0.157,0.041,0.138
		C40.857,38.126,40.838,38.087,40.797,38.068z M40.816,38.245c0.021,0.058-0.019,0.157,0.021,0.177
		C40.876,38.383,40.896,38.245,40.816,38.245z M40.896,42.044c-0.058,0-0.019-0.117-0.039-0.177
		C40.974,41.867,40.857,41.966,40.896,42.044z M40.915,39.072c0,0.04-0.019,0.098,0.021,0.098
		C40.974,39.132,40.974,39.092,40.915,39.072z M41.092,37.674c-0.038,0-0.097,0-0.118,0.06
		C41.013,37.753,41.113,37.753,41.092,37.674z M41.034,38.659h0.02c0-0.02,0.06-0.098,0-0.098
		C41.034,38.58,41.034,38.619,41.034,38.659C40.993,38.659,41.034,38.678,41.034,38.659z M41.073,40.844
		c-0.019,0-0.019,0.02-0.019,0.02c-0.02,0-0.02-0.04-0.02-0.059C41.073,40.783,41.073,40.823,41.073,40.844z M41.092,44.445
		c0,0.019-0.019,0.04-0.019,0.078C41.151,44.543,41.17,44.445,41.092,44.445z M41.291,44.111c-0.041,0.059-0.199,0.197-0.08,0.274
		C41.21,44.268,41.367,44.208,41.291,44.111z M41.31,44.091c0.118-0.058,0.197-0.178,0.197-0.354c0.038,0,0.079,0,0.117,0
		c0.042-0.099-0.057-0.158,0-0.196c0.042,0,0.019,0.059,0.042,0.078c0.079-0.216,0.216-0.452,0.256-0.63
		c0.019,0.039,0,0.078,0.039,0.078c0.018-0.098,0.079-0.157,0.117-0.235c-0.079,0.019-0.058-0.039-0.117-0.02
		C41.762,43.166,41.506,43.638,41.31,44.091z M41.446,37.518c0-0.039,0.098-0.099,0.041-0.119c0,0.039-0.079,0.02-0.079,0.079
		C41.446,37.478,41.427,37.518,41.446,37.518z M44.637,37.616c0.078,0.04,0,0.177-0.06,0.098c0,0.217-0.099,0.315-0.197,0.433
		c-0.019,0,0-0.06-0.041-0.06c-0.02,0.039-0.057,0.06-0.057,0.119c-0.02,0-0.06,0-0.08,0c-0.019,0.118,0.099,0.079,0.08,0.177
		c-0.158,0.019-0.099,0.235-0.236,0.275c0.018,0.138-0.039,0.217-0.137,0.256c-0.198,0.57-0.552,0.984-0.75,1.555
		c-0.256,0.394-0.472,0.806-0.649,1.279c-0.038,0-0.018,0.059-0.079,0.04c0.02,0.157-0.117,0.334-0.215,0.452
		c-0.019,0.078,0.058,0.04,0.038,0.117c-0.156,0.02-0.136,0.217-0.235,0.315c0.079-0.02,0.019,0.119,0.079,0.138
		c0.077-0.138,0.175-0.255,0.235-0.413c-0.118,0.02,0.019-0.079-0.06-0.117c0.158-0.06,0.277-0.315,0.396-0.493
		c0-0.039-0.041-0.039-0.041-0.099c0.12-0.098,0.236-0.197,0.218-0.414c0.079,0,0.057,0.039,0.097,0
		c-0.019-0.157,0.118-0.157,0.019-0.254c0.06-0.02,0.06-0.1,0.139-0.079c0.038-0.079-0.06-0.02-0.041-0.099
		c0.041-0.04,0.041,0,0.099,0c0.041-0.158,0.059-0.315,0.217-0.394c0-0.08-0.059-0.119,0.02-0.138c0,0.079,0.019,0,0.06,0.019
		c0.057-0.098,0.038-0.138,0-0.236c0.156-0.158,0.235-0.453,0.354-0.55c-0.04,0.019-0.04-0.02-0.04-0.04
		c0.059-0.058,0.02,0,0.079,0.02c-0.02-0.118,0.079-0.078,0.079-0.217c0.02,0,0.02,0,0.038,0c0.099-0.236,0.218-0.472,0.354-0.747
		c0.019,0,0.041,0.019,0.06,0.019c0-0.138,0.06-0.235,0.177-0.275c-0.02-0.235,0.257-0.374,0.275-0.649
		c0.038,0,0.038,0.019,0.079,0.019c-0.02-0.079,0-0.177,0.057-0.117c0-0.119,0.041-0.139-0.019-0.198
		c0.079,0.02,0.06-0.019,0.121,0.02c0.019-0.138,0.076-0.177,0.135-0.217c-0.097-0.098,0.14-0.098,0.08-0.236
		c0.019,0.019,0.039,0.019,0.06,0.019c0.058-0.236,0.354-0.334,0.295-0.611c0.117-0.038,0.098-0.157,0.235-0.215
		c0-0.039-0.04-0.039-0.02-0.099c0.157-0.02,0.138-0.276,0.274-0.177c-0.019-0.099,0.041-0.158,0-0.198
		c-0.039,0.02-0.117,0.02-0.137,0.059c0.057,0.118-0.138,0.198-0.176,0.295c-0.041,0-0.041-0.059-0.08-0.059
		c-0.018,0.059,0.039,0.059,0.039,0.117c-0.057,0.079-0.118,0-0.197,0.06c0.04,0.038,0.12,0.019,0.12,0.078
		c-0.041,0.06-0.101,0.06-0.158,0.02c0.078,0.196-0.079,0.275-0.159,0.275c0.08,0.019,0.039,0.177-0.06,0.157
		c0-0.058,0.021-0.078,0.021-0.098c-0.059,0.02-0.099,0.08-0.119,0.138c0.059,0,0.078-0.04,0.078,0
		c0.02,0.098-0.038,0.098-0.098,0.119c0-0.039-0.019-0.059-0.038-0.079c0.038,0.217-0.219,0.395-0.257,0.669
		c-0.04,0-0.059,0-0.078,0c0-0.039,0.038-0.058,0.018-0.098c-0.079,0.02-0.06,0.118-0.038,0.177
		c-0.021,0.019-0.059,0.019-0.12,0.019C44.693,37.557,44.655,37.576,44.637,37.616C44.616,37.635,44.655,37.635,44.637,37.616z
		 M42.49,41.906c0,0.02,0,0.039,0,0.06c-0.019,0-0.019,0-0.041,0c0-0.02,0-0.039,0-0.06C42.47,41.906,42.47,41.906,42.49,41.906z
		 M43.021,41.651c-0.06,0-0.079,0.038-0.098,0.078C42.962,41.709,43.021,41.709,43.021,41.651z M43.08,41.178
		c0,0.019-0.099,0.098-0.02,0.118C43.061,41.275,43.157,41.197,43.08,41.178z M43.376,40.783c0.019-0.019,0.038,0,0.038-0.039
		C43.396,40.764,43.376,40.744,43.376,40.783z M43.434,40.921c0-0.039,0-0.058-0.038-0.058c0,0.039,0,0.079,0.019,0.079
		C43.414,40.921,43.414,40.921,43.434,40.921z M43.611,40.193C43.531,40.193,43.633,40.292,43.611,40.193
		c0.021,0,0.021-0.039,0.021-0.058h0.018c0.02-0.02,0.058-0.119,0-0.138c0.02,0.079-0.018,0.079-0.018,0.138
		C43.611,40.135,43.611,40.174,43.611,40.193z M43.611,39.721c0-0.039,0-0.079,0-0.098C43.69,39.604,43.69,39.742,43.611,39.721z
		 M43.73,40.331c0-0.02,0-0.039,0-0.059c-0.021,0-0.04,0-0.059,0c0,0.019,0,0.04,0,0.059C43.69,40.331,43.709,40.331,43.73,40.331z
		 M43.749,39.859c0.02,0,0.02,0,0.039,0c0.021,0,0.04,0,0.021-0.02c-0.021,0-0.021-0.039-0.04-0.058c0,0.019,0,0.039-0.02,0.019
		C43.749,39.82,43.749,39.839,43.749,39.859z M43.809,39.662c0.039,0,0.039,0.039,0.058,0
		C43.867,39.643,43.828,39.643,43.809,39.662z M43.885,39.918c-0.037,0.019-0.076,0-0.076,0.058
		C43.867,39.977,43.885,39.958,43.885,39.918z M43.885,39.288c0.022,0,0.042,0,0.042,0.02
		C43.927,39.308,43.885,39.308,43.885,39.288z M43.987,39.407c-0.041,0.04-0.041,0.078,0.019,0.098
		C44.006,39.446,44.045,39.426,43.987,39.407z M44.161,39.505c-0.019-0.098,0.121-0.039,0.08-0.138
		c-0.099,0.019-0.099,0.039-0.156,0.079C44.124,39.446,44.104,39.524,44.161,39.505z M44.28,39.249
		c-0.041-0.019-0.078,0-0.078,0.039C44.222,39.328,44.301,39.308,44.28,39.249z M44.28,38.955c-0.059-0.02-0.098,0.098-0.041,0.117
		C44.262,39.032,44.301,39.013,44.28,38.955z M44.28,38.226c0.039,0,0.02-0.019,0-0.019V38.226z M44.36,38.343
		c0,0.02,0,0.039,0,0.039c-0.021,0-0.041,0-0.041,0s0-0.019,0-0.039C44.319,38.343,44.339,38.343,44.36,38.343z M44.319,38.974
		c0.019,0,0.041,0,0.041-0.019C44.339,38.955,44.319,38.955,44.319,38.974z M44.458,37.852c0.019,0.079-0.12,0.118-0.059,0.177
		C44.418,37.97,44.557,37.852,44.458,37.852z M44.496,38.126c0,0.02,0,0.04,0,0.061c-0.019,0-0.019,0-0.038,0
		c0-0.021,0-0.04,0-0.061C44.478,38.126,44.478,38.126,44.496,38.126z M44.478,38.599C44.438,38.619,44.478,38.639,44.478,38.599
		c0.019,0,0.019-0.02,0.019-0.039c0.02,0,0.02,0,0.02,0c0.021-0.02,0.06-0.098,0-0.098c0,0.019-0.02,0.059-0.02,0.098
		C44.478,38.561,44.478,38.58,44.478,38.599z M44.693,38.422c-0.057-0.119-0.02-0.119,0.021-0.217c-0.041,0-0.06,0.02-0.099,0.02
		C44.616,38.324,44.616,38.402,44.693,38.422z M44.715,38.481c-0.041-0.019-0.099,0.059-0.041,0.079
		C44.674,38.521,44.715,38.521,44.715,38.481z M44.693,37.596c0.021-0.098,0.158-0.078,0.158,0.02
		C44.832,37.576,44.754,37.596,44.693,37.596z M44.791,38.304c-0.019,0-0.057,0.079,0,0.079
		C44.791,38.383,44.852,38.304,44.791,38.304z M44.832,38.207c0.117-0.06,0.178-0.196,0.216-0.335c0.04-0.02,0-0.02,0,0
		C44.93,37.95,44.893,38.068,44.832,38.207z M44.911,37.183c-0.019,0.02-0.099,0.079-0.041,0.098
		C44.87,37.241,44.969,37.202,44.911,37.183z M44.911,37.852c0.019,0,0.038,0,0.038-0.019C44.93,37.833,44.911,37.833,44.911,37.852
		z M45.107,37.655c-0.038,0-0.019-0.079-0.059-0.098c-0.038,0.058-0.08,0.138-0.099,0.196
		C45.028,37.733,45.048,37.674,45.107,37.655z M45.069,51.334c0.019,0.059-0.021,0.196,0.019,0.217
		C45.107,51.491,45.146,51.353,45.069,51.334z M45.088,51.196c0.02,0.078-0.06,0.099,0.02,0.117
		C45.107,51.274,45.186,51.176,45.088,51.196z M45.088,37.537c0.02-0.04,0.079-0.04,0.058-0.119c0.021,0,0.04-0.019,0.059-0.019
		c0,0.119-0.097,0.158-0.059,0.315c0.059-0.098,0.1-0.196,0.158-0.295c0-0.059-0.079-0.038-0.079-0.117
		c-0.058,0-0.079,0.058-0.079,0.117C45.107,37.438,45.048,37.518,45.088,37.537z M45.088,50.961c0.058,0.038,0.079-0.08,0.02-0.08
		c0,0.019,0,0.04-0.02,0.019C45.088,50.921,45.088,50.94,45.088,50.961z M45.107,50.408c0.02,0.119-0.059,0.198,0.039,0.256
		C45.205,50.645,45.186,50.446,45.107,50.408z M45.186,50.054c-0.04,0.04-0.098,0.198,0.019,0.198
		C45.186,50.173,45.225,50.094,45.186,50.054z M45.225,49.7c-0.02,0.058-0.098,0.039-0.079,0.139
		C45.225,49.858,45.345,49.739,45.225,49.7z M45.186,49.996c0.019-0.02,0.039,0,0.039-0.04
		C45.225,49.976,45.186,49.956,45.186,49.996z M45.266,49.543c0-0.059,0-0.138,0.058-0.138c0.041-0.118-0.078-0.275,0.059-0.275
		c-0.038,0.157,0.061,0.059,0,0c-0.059-0.158-0.059-0.434,0.08-0.531c0-0.078-0.02,0.039-0.061,0.019
		c-0.078-0.117,0.02-0.216,0.099-0.275c-0.079,0.021-0.079-0.039-0.118-0.059c0,0.04-0.018,0.059-0.059,0.08
		c0.021,0.117,0.021,0.117-0.02,0.217c0,0.137,0.02,0.196-0.018,0.313c0.059,0.276-0.119,0.513-0.081,0.689
		C45.205,49.543,45.225,49.543,45.266,49.543C45.247,49.642,45.323,49.543,45.266,49.543z M45.266,47.595
		c0,0.039-0.041,0.019-0.061,0.039C45.205,47.595,45.247,47.614,45.266,47.595z M45.225,37.202c0,0.02,0,0.039,0,0.058
		c0.06,0,0.06-0.019,0.06-0.058c0.039,0,0.117-0.098,0.06-0.138c-0.021,0.059-0.06,0.078-0.06,0.138
		C45.266,37.202,45.247,37.202,45.225,37.202z M45.266,50.173c0,0.059,0,0.098,0.038,0.118
		C45.304,50.252,45.345,50.153,45.266,50.173z M45.345,51.216c0,0.059,0.02,0.158-0.021,0.197
		C45.401,51.432,45.383,51.237,45.345,51.216z M45.462,47.751c0.02-0.059,0.098-0.156,0-0.177c0.02,0.06-0.079,0.021-0.117,0.021
		C45.383,47.672,45.462,47.653,45.462,47.751z M45.383,50.9c0,0.04-0.019,0.04-0.038,0.061C45.383,51.02,45.442,50.921,45.383,50.9z
		 M45.345,51.059c0,0.019,0,0.039,0,0.058C45.422,51.156,45.422,51.02,45.345,51.059z M45.501,37.28
		c-0.079,0.02-0.058-0.038-0.118-0.019c0,0.04-0.079,0.099,0,0.119C45.383,37.32,45.481,37.341,45.501,37.28z M45.462,50.527
		c-0.059,0-0.098,0.018-0.079,0.098C45.422,50.625,45.481,50.606,45.462,50.527z M45.442,50.645c-0.021,0.06-0.098,0.139,0.02,0.139
		C45.442,50.724,45.56,50.645,45.442,50.645z M45.422,47.812c0,0.019-0.019,0-0.019,0.019
		C45.422,47.948,45.542,47.712,45.422,47.812z M45.442,49.956c-0.041,0.059,0,0.04,0,0.098
		C45.542,50.075,45.542,49.937,45.442,49.956z M45.678,47.457c-0.177-0.021-0.136-0.237-0.118-0.395
		c0.039-0.039,0.14-0.02,0.118-0.098c-0.079,0.039-0.058,0.039-0.156,0c-0.021,0.197-0.021,0.334-0.079,0.513
		C45.579,47.495,45.62,47.476,45.678,47.457z M45.462,37.143c0,0.099,0.178,0.118,0.178,0.02
		C45.62,37.143,45.542,37.164,45.462,37.143z M45.501,49.326c-0.02,0.059,0.021,0.079,0.078,0.079
		C45.62,49.326,45.56,49.326,45.501,49.326z M45.542,49.484c0,0,0-0.02,0-0.04c-0.02,0-0.041,0-0.041,0c0,0.019,0,0.04,0,0.04
		S45.521,49.484,45.542,49.484z M45.579,37.044c0-0.019,0-0.039,0-0.039s-0.02,0-0.039,0c0,0,0,0.02,0,0.039
		C45.56,37.044,45.579,37.044,45.579,37.044z M45.678,48.459c0,0.02-0.019,0-0.038,0C45.64,48.42,45.678,48.42,45.678,48.459z
		 M45.776,48.539c0,0.06-0.077,0.06-0.137,0.06c0-0.02,0-0.06,0-0.08c0.018-0.019,0.06-0.019,0.118-0.019
		C45.758,48.521,45.758,48.539,45.776,48.539z M45.678,47.948c-0.019,0.039-0.019,0.098,0.021,0.098
		C45.699,48.008,45.719,47.968,45.678,47.948z M45.975,45.449c0.039,0.019,0.058-0.019,0.076-0.019
		c0.022-0.079-0.037-0.079-0.117-0.079c-0.037-0.04,0.041-0.079,0-0.158c-0.079-0.02-0.079,0.02-0.157-0.02
		c0.021,0.257-0.099,0.395-0.099,0.729c0.12-0.079,0.06,0.079,0.139,0.098c0-0.078,0.038-0.098,0.038-0.177
		c-0.078,0-0.117-0.059-0.097-0.178c0.059,0.021,0.059-0.039,0.118-0.019c-0.118-0.099,0.021-0.158-0.099-0.234
		c0.078,0.018,0.099-0.04,0.158-0.04C45.953,45.371,45.975,45.41,45.975,45.449z M45.776,36.808c0,0.019-0.039,0.058,0,0.079
		C45.776,36.848,45.816,36.827,45.776,36.808z M45.776,46.629c-0.019,0.04-0.019,0.099,0.021,0.099
		C45.835,46.689,45.835,46.649,45.776,46.629z M45.816,47.357c0-0.019,0-0.038,0-0.059C45.896,47.259,45.896,47.397,45.816,47.357z
		 M45.934,44.917c-0.019-0.039-0.038-0.098-0.079-0.117c0.021,0.098,0,0.117,0,0.235C45.914,45.015,45.934,44.956,45.934,44.917z
		 M45.896,46.709c0-0.019,0-0.04,0-0.06c-0.02,0-0.041,0-0.041,0c0,0.02,0,0.041,0,0.06C45.854,46.709,45.876,46.709,45.896,46.709z
		 M45.876,45.508c0.019,0,0.038,0.02,0.038,0C45.914,45.468,45.876,45.468,45.876,45.508z M45.993,44.562
		c-0.04,0-0.079-0.02-0.098-0.039c0,0.039,0,0.079,0,0.118C45.953,44.642,45.993,44.621,45.993,44.562z M46.032,44.17
		c-0.019,0.02-0.079,0-0.099,0.038c0.14,0.079-0.019,0.198,0.041,0.277C46.131,44.504,46.092,44.248,46.032,44.17z M46.014,36.552
		c0.117,0,0.098-0.117,0.139-0.197c-0.079-0.02-0.061,0.059-0.139,0.059c0-0.039,0-0.059,0-0.079c0.037,0,0.098,0,0.098-0.077
		c-0.038,0.019-0.098,0.019-0.098,0.077C45.914,36.375,45.993,36.494,46.014,36.552z M45.975,42.93
		c-0.021-0.059,0-0.098,0.019-0.118C46.032,42.811,46.032,42.97,45.975,42.93z M46.014,44.878c0,0,0-0.02,0-0.039
		c-0.02,0-0.039,0-0.039,0c0,0.02,0,0.039,0,0.039S45.993,44.878,46.014,44.878z M46.014,46.335c-0.02-0.02-0.02-0.04-0.02-0.079
		c0.02-0.02,0.079-0.02,0.137-0.02C46.092,46.256,46.092,46.335,46.014,46.335z M46.152,44.582
		c-0.021-0.137,0.117-0.078,0.098-0.197c-0.061,0-0.08,0.04-0.119,0c0.02,0.119-0.039,0.158-0.119,0.197
		C46.073,44.621,46.092,44.562,46.152,44.582z M46.014,45.627c0.019,0,0.037,0.018,0.037,0
		C46.051,45.586,46.014,45.586,46.014,45.627z M46.032,44.033c0.019,0.039,0,0.098,0.019,0.098
		C46.092,44.091,46.092,44.052,46.032,44.033z M46.25,43.677c-0.021-0.099,0.018-0.137,0.018-0.216
		c-0.157,0.059-0.04-0.158-0.137-0.158c0.02,0.197-0.099,0.354-0.08,0.492C46.131,43.716,46.111,43.638,46.25,43.677z
		 M46.131,44.052h0.02c-0.02-0.158,0.059-0.139,0.117-0.059c0-0.04,0.039-0.119-0.018-0.119c-0.041,0.02-0.119-0.02-0.199,0.039
		C46.073,43.993,46.131,43.993,46.131,44.052C46.092,44.072,46.131,44.091,46.131,44.052z M46.051,44.878
		c0.021,0.059-0.019,0.176,0.06,0.158C46.111,44.956,46.131,44.897,46.051,44.878z M46.152,42.122c0,0.02,0,0.039,0,0.039
		c-0.021,0-0.021,0-0.041,0c0,0,0-0.019,0-0.039C46.131,42.122,46.131,42.122,46.152,42.122z M46.229,45.213c0-0.02,0-0.02,0-0.039
		c0-0.059-0.098,0-0.117,0.02C46.17,45.193,46.17,45.232,46.229,45.213z M46.131,35.469c0,0.02-0.039,0.04,0,0.059
		C46.131,35.509,46.17,35.49,46.131,35.469z M46.209,43.52c-0.02,0.079,0.041,0.079,0,0.118c-0.078,0-0.078-0.059-0.078-0.118
		C46.152,43.52,46.17,43.52,46.209,43.52z M46.229,36.198c0,0.06-0.058,0.079-0.076,0.137
		C46.209,36.335,46.329,36.198,46.229,36.198z M46.17,35.646c0.098-0.019,0.118-0.196,0.198-0.137
		c-0.039-0.119,0.117-0.157,0.037-0.217c0,0.04-0.037,0.04-0.057,0.06C46.368,35.509,46.111,35.509,46.17,35.646z M46.209,36.021
		c0.019,0,0.041,0.039,0.041,0C46.25,36.001,46.209,36.001,46.209,36.021z M46.25,43.304c0,0.021,0,0.039,0,0.078
		C46.329,43.402,46.329,43.264,46.25,43.304z M46.405,36.001c-0.097,0-0.097,0.098-0.136,0.177
		C46.348,36.139,46.405,36.1,46.405,36.001z M46.288,43.54c-0.019,0.059,0.117,0.059,0.099,0.019
		C46.368,43.56,46.348,43.54,46.288,43.54z M46.485,43.423c-0.08-0.02-0.08-0.098-0.157-0.098c-0.021,0.078,0.038,0.098,0.058,0.136
		C46.387,43.423,46.485,43.52,46.485,43.423z M46.368,43.066c0.019-0.098,0.157,0.02,0.157-0.098c-0.12,0.059-0.019-0.04-0.12-0.04
		c0.022,0.099-0.057-0.019-0.076,0.04C46.329,43.009,46.329,43.048,46.368,43.066z M46.466,35.588c-0.02,0-0.02,0-0.02,0
		c-0.019,0.019-0.041,0.039-0.041,0.058c-0.018,0-0.018,0.02-0.018,0.02c-0.058,0.019-0.058,0.157,0.018,0.117
		c0.061-0.04-0.018-0.04-0.018-0.117c0.018,0.019,0.018,0,0.018-0.02C46.446,35.646,46.466,35.627,46.466,35.588
		c0.02,0,0.02-0.02,0.02-0.039c0.039,0,0-0.02,0,0C46.466,35.549,46.466,35.568,46.466,35.588z M46.506,42.122
		c-0.04-0.039-0.078,0.058-0.101,0c0.041-0.059,0.041-0.079,0-0.138c0.101,0,0.08-0.079,0.041-0.098
		c0.079-0.02,0.02-0.158,0.079-0.198c-0.04,0.02-0.04-0.019-0.079-0.019c0,0.197-0.098,0.275-0.078,0.473
		C46.405,42.181,46.506,42.181,46.506,42.122z M46.524,35.863c-0.078-0.019-0.097,0.039-0.078,0.119
		C46.506,35.982,46.524,35.922,46.524,35.863z M46.466,35.175c0,0.058,0.059,0.118,0.097,0.077
		C46.562,35.194,46.506,35.194,46.466,35.175z M46.506,35.766c0-0.021,0-0.021,0-0.039c-0.021,0-0.021,0-0.04,0
		c0,0.019,0,0.019,0,0.039C46.485,35.766,46.485,35.766,46.506,35.766z M46.582,41.612c-0.076,0.019-0.038-0.08-0.116-0.06
		c0,0.138,0.177,0.099,0.236,0.02c-0.08,0-0.098-0.079-0.14-0.119c-0.019-0.117,0.08-0.098,0.14-0.157
		c-0.021-0.039,0.039-0.158-0.06-0.138c0.038,0.098,0.019,0.059-0.061,0.038C46.506,41.335,46.506,41.512,46.582,41.612z
		 M46.643,42.004c0.019,0,0.019-0.177-0.019-0.215c0,0.038-0.06,0.019-0.099,0.019C46.604,41.847,46.582,41.985,46.643,42.004z
		 M46.604,42.083c0.038-0.059-0.08-0.079-0.08-0.039c0.019,0,0.038,0.02,0.038,0.039C46.562,42.083,46.582,42.083,46.604,42.083z
		 M46.582,35.391c0,0.02-0.038,0.06,0,0.079C46.582,35.43,46.624,35.411,46.582,35.391z M46.582,35.155
		c0.12-0.059,0.199-0.157,0.276-0.256c-0.019-0.059-0.099,0.02-0.156-0.019c0,0.039,0.039,0.059,0.019,0.138
		C46.624,35.017,46.582,35.057,46.582,35.155z M46.643,35.982c-0.08-0.02,0-0.079,0-0.118
		C46.702,35.863,46.663,35.961,46.643,35.982z M46.681,42.733c0-0.039,0-0.079-0.057-0.06c0,0,0,0.02,0,0.039
		C46.663,42.713,46.663,42.733,46.681,42.733z M46.643,41.059c0.019-0.019,0.038-0.019,0.079-0.019
		c-0.02-0.275,0.02-0.373,0.137-0.571c-0.099,0-0.038,0.198-0.156,0.079C46.643,40.725,46.643,40.981,46.643,41.059z M46.702,42.143
		c0.019-0.02,0.019-0.06-0.021-0.06c0,0.02-0.018,0.039-0.038,0.06C46.663,42.143,46.681,42.143,46.702,42.143z M46.722,42.851
		c0-0.039,0-0.078-0.041-0.058c0,0,0,0.019,0,0.039C46.702,42.832,46.702,42.851,46.722,42.851z M46.702,41.512
		c-0.021,0.079,0.079,0.099,0.098,0.02C46.76,41.532,46.741,41.493,46.702,41.512z M46.82,41.158c0.02-0.099-0.099-0.079-0.118-0.02
		C46.781,41.12,46.76,41.217,46.82,41.158z M46.82,40.135c0,0.039-0.02,0.058-0.02,0.098C46.858,40.273,46.858,40.135,46.82,40.135z
		 M46.88,40.371c0-0.019,0-0.058-0.04-0.039c0,0.02,0,0.06,0.019,0.06C46.858,40.391,46.858,40.371,46.88,40.371z M46.958,39.742
		c-0.021,0-0.021-0.06-0.041-0.06c0,0.039,0,0.06,0,0.079c-0.077,0.039-0.077,0.138-0.039,0.197c0.02-0.119,0.156-0.119,0.198-0.059
		c0-0.118-0.042-0.158-0.042-0.237c-0.037,0.06-0.037,0.158-0.117,0.138c0,0,0-0.019,0-0.038
		C46.937,39.761,46.958,39.761,46.958,39.742z M46.978,40.567c0-0.038,0-0.077-0.041-0.098c-0.018,0.06-0.078,0.079-0.078,0.138
		C46.937,40.627,46.917,40.548,46.978,40.567z M46.917,40.804C47.017,40.783,46.88,40.667,46.917,40.804
		C46.88,40.823,46.917,40.823,46.917,40.804z M46.978,39.328c0.039,0.138-0.119,0.177-0.041,0.275
		C47.057,39.643,47.017,39.288,46.978,39.328z M46.958,34.801c0.019-0.019,0.099,0,0.076-0.078
		C46.978,34.723,46.958,34.742,46.958,34.801C46.917,34.82,46.958,34.82,46.958,34.801z M47.034,39.998
		c-0.037,0.039-0.098,0.098,0,0.117C46.997,40.056,47.096,40.017,47.034,39.998z M47.155,34.939c-0.041,0-0.02-0.059-0.079-0.04
		c0.02,0.06-0.14,0.06-0.042,0.119C47.034,34.958,47.155,35.017,47.155,34.939z M47.076,39.032c-0.02,0.02-0.06,0.158,0.02,0.137
		C47.155,39.151,47.096,39.052,47.076,39.032z M47.155,40.587c0-0.02,0-0.058-0.041-0.079c0,0.039-0.058,0.02-0.038,0.079
		C47.096,40.587,47.114,40.587,47.155,40.587z M47.096,35.253c0.019-0.058,0.06-0.077,0.079-0.117
		C47.273,35.155,47.174,35.253,47.096,35.253z M47.233,38.895c0.04-0.079-0.059-0.06-0.059-0.099s0-0.079-0.02-0.079
		c0.02,0.099-0.059,0.079-0.059,0.138C47.136,38.895,47.193,38.934,47.233,38.895z M47.155,39.387c0,0.02,0,0.039,0,0.06
		C47.213,39.484,47.213,39.347,47.155,39.387z M47.213,40.371c-0.039,0-0.058,0.02-0.058,0.06
		C47.193,40.43,47.213,40.41,47.213,40.371z M47.174,38.619c0,0.059,0.039,0.098,0.059,0.119c0.02-0.06,0.119,0.058,0.119-0.039
		c-0.02-0.02-0.041-0.02-0.061-0.04c0-0.059,0.02-0.098,0.041-0.118c0.057,0,0.039,0.099,0.118,0.06
		c0-0.079-0.039-0.138-0.099-0.177c0,0.079-0.078,0.098-0.158,0.058C47.233,38.561,47.311,38.678,47.174,38.619z M47.174,39.839
		c0.02,0,0.02,0,0.039,0c0.04-0.039,0.04-0.058-0.02-0.078c0,0.02,0,0.02-0.019,0.02C47.174,39.8,47.174,39.82,47.174,39.839z
		 M47.233,38.363c-0.021,0.059,0.099,0.078,0.077,0.019C47.291,38.383,47.273,38.363,47.233,38.363z M47.233,35.116
		c0.04-0.04,0.04-0.079,0.099-0.079C47.311,35.076,47.311,35.116,47.233,35.116z M47.389,38.226
		c-0.018-0.099,0.041-0.118,0.08-0.157c0,0-0.019-0.02-0.019-0.039c-0.019,0-0.019-0.019-0.039-0.019
		c-0.021,0.038-0.021,0.058-0.06,0.077c-0.041-0.019,0.06-0.177-0.019-0.216c-0.041,0.099-0.021,0.235-0.06,0.335
		C47.352,38.147,47.311,38.166,47.389,38.226z M47.291,40.077c-0.018-0.06,0.02-0.079,0.02-0.1
		C47.352,39.958,47.352,40.115,47.291,40.077z M47.389,34.958c0.061,0.019,0,0.098-0.057,0.079
		C47.352,34.998,47.371,34.998,47.389,34.958z M47.389,38.699c-0.018,0.058,0,0.098,0.041,0.098
		C47.43,38.738,47.43,38.699,47.389,38.699z M47.411,38.816c0,0.038-0.04,0.038-0.021,0.098
		C47.45,38.955,47.45,38.816,47.411,38.816z M47.411,36.533c0.098,0,0.137-0.158,0.098-0.217c-0.04,0.019,0,0.119-0.098,0.098
		C47.411,36.454,47.411,36.494,47.411,36.533z M47.411,37.635c0.058,0,0.098,0.06,0.118-0.019
		C47.489,37.616,47.411,37.576,47.411,37.635z M47.45,36.021c0.019,0.039,0,0.099,0.019,0.099
		C47.489,36.1,47.529,36.001,47.45,36.021z M47.469,37.379c0,0.019,0,0.039,0,0.058C47.548,37.478,47.548,37.341,47.469,37.379z
		 M47.509,37.26c-0.02,0.06,0,0.08,0.059,0.06C47.588,37.26,47.529,37.28,47.509,37.26z M47.529,36.139
		c0,0.039-0.04,0.059-0.02,0.098C47.567,36.277,47.567,36.139,47.529,36.139z M47.627,38.324c-0.06-0.02-0.039-0.099-0.118-0.099
		c-0.02,0.079,0.039,0.079,0.02,0.139C47.567,38.363,47.607,38.343,47.627,38.324z M47.745,35.844c-0.039,0-0.058,0-0.08,0
		c-0.019,0.019-0.038,0.157,0,0.177C47.645,35.943,47.725,35.943,47.745,35.844z M47.645,36.081c0,0.058,0,0.138,0.062,0.138
		C47.706,36.158,47.665,36.12,47.645,36.081z M47.786,35.824c-0.02-0.058-0.02-0.098-0.041-0.118c0,0.021-0.099,0.061-0.039,0.08
		C47.725,35.727,47.745,35.824,47.786,35.824C47.766,35.961,47.863,35.863,47.786,35.824z M47.786,37.36
		c-0.041,0-0.061-0.019-0.08-0.039c0.019,0.06-0.019,0.138,0.039,0.158C47.725,37.398,47.805,37.418,47.786,37.36z M47.745,34.939
		c-0.039,0.06,0.078,0.118,0.078,0.06C47.786,34.998,47.805,34.919,47.745,34.939z M47.805,37.124c0.059,0,0.059-0.059,0.116-0.04
		c-0.078-0.059,0.02-0.157-0.058-0.236c-0.04,0.079-0.059,0.157-0.097,0.217C47.786,37.064,47.823,37.084,47.805,37.124z
		 M47.766,37.164c0,0.039,0,0.079,0,0.117C47.843,37.32,47.843,37.124,47.766,37.164z M47.863,35.194
		c-0.021,0.02-0.059,0.119,0,0.119C47.863,35.273,47.94,35.215,47.863,35.194z M48.04,36.335c0-0.038-0.021-0.058-0.041-0.077
		c0,0.039-0.018,0.039-0.018,0.058C48.001,36.316,48.001,36.335,48.04,36.335z M48.099,34.919c0,0.019-0.038,0.019-0.057,0.019
		C48.04,34.919,48.079,34.919,48.099,34.919z"/>
	<path fill="#070793" d="M42.116,62.208c0,0.019-0.02,0.058-0.059,0.039c0.04,0.059,0.196,0.077,0.196-0.039
		c0.079-0.021,0.041,0.098,0.12,0.058c0.058,0-0.12-0.117,0.02-0.117c0,0.117,0.057,0.038,0.079,0.117
		c-0.021-0.099,0.197,0.04,0.235-0.058c0.06-0.021,0.041,0.039,0.06,0.058c0.275-0.079,0.748,0.04,0.944,0.275
		c-0.098-0.059-0.235-0.078-0.353-0.118c-0.059,0.059,0.038,0,0.038,0.078c-0.157,0-0.492,0-0.629,0c-0.08,0,0-0.078-0.039-0.078
		c-0.059,0-0.079,0.078-0.119,0.118c-0.375-0.078-0.826,0-1.22,0c-0.079-0.04-0.119-0.099-0.158-0.157
		c-0.218-0.079-0.275,0.098-0.471,0.039c-0.177,1.023-0.256,2.716-0.395,3.838c0.079,1.752-0.235,3.74,0.708,4.803
		c0.335-0.039,0.492-0.274,0.708-0.435c0.117-0.215,0.215-0.49,0.433-0.608c0,0.019,0,0.059,0.038,0.039
		c-0.057,0.492-0.313,0.886-0.313,1.357c-0.098,0.079-0.197,0.275-0.374,0.236c-0.079,0.196-0.256-0.059-0.335,0.099
		c-0.434-0.178-0.728-0.473-0.946-0.808c-0.039,0-0.077,0-0.136,0c-0.335-0.688-0.649-1.693-0.611-2.618
		c-0.117-1.653,0.02-3.523,0.216-5.313c-0.118,0.078-0.254,0.059-0.374,0.039c-0.708,0.117-1.083,0.236-1.633,0.255
		c-0.354,0.138-0.668,0.138-1.064,0.256c-0.354,1.043-0.827,1.93-1.022,3.131c-0.117,0.273-0.158,0.629-0.354,0.826
		c-0.313,0.019-0.49,0.176-0.63,0.374c-0.136-0.04-0.373,0.019-0.55-0.079c0.196-1.221,0.728-2.323,1.064-3.464
		c0.235-0.059,0.156-0.452,0.332-0.571c-0.629,0.04-1.26,0.276-1.928,0.335c-0.098,0-0.079,0.079-0.158,0.098
		c-0.294-0.137-0.511-0.631-0.294-0.924c0.294-0.019,0.414-0.059,0.629-0.039c0.769-0.217,1.731-0.197,2.244-0.552
		c-0.019-0.274,0.158-0.413,0.099-0.669c0.139-0.119,0.294-0.218,0.315-0.474c-0.021,0.453-0.237,0.886-0.354,1.28
		c0.039,0.058,0.098-0.079,0.177-0.058c0.177-0.593,0.509-1.104,0.608-1.715c0.041,0,0.021,0.06,0.06,0.079
		c0.079-0.196,0.216-0.413,0.158-0.609c0.057-0.059,0.038,0,0.079,0.02c0.137-0.099-0.021-0.374,0.177-0.413
		c0-0.178,0.057-0.315,0.177-0.375c0.057-0.296,0.275-0.433,0.353-0.709c-0.019-0.295,0.177-0.373,0.217-0.63
		c0.019-0.02,0.08-0.02,0.118-0.059c0.041-0.295,0.275-0.374,0.237-0.747c0.019,0,0.019,0.019,0.057,0.019
		c0.12-0.452,0.354-0.808,0.553-1.2c0.039-0.02,0.058-0.02,0.098,0c0-0.393,0.256-0.552,0.354-0.847
		c0.038-0.098,0.177-0.119,0.136-0.315c0.019,0,0.06,0,0.098,0c0.158-0.412,0.395-0.728,0.55-1.121
		c0.139-0.021,0.12-0.178,0.237-0.197c0.177-0.394,0.275-0.787,0.788-0.787c0.057,0.079,0.197,0.058,0.197,0.197
		c0.098-0.06,0.117,0.078,0.275,0.099c0.452,1.141-0.079,2.362-0.197,3.581c-0.019,0.06-0.041,0.119-0.059,0.178
		c-0.138,1.18-0.375,2.558-0.552,3.681c0,0.079-0.038,0.138-0.06,0.216c0.041,0.395-0.058,0.729-0.157,1.103
		c0.432,0.039,0.786,0,1.061,0C41.92,62.208,41.997,62.247,42.116,62.208z M35.384,64.825c0.158-0.334,0.374-0.768,0.452-1.141
		c-0.019,0.039-0.06,0.019-0.098,0.039C35.641,64.097,35.444,64.392,35.384,64.825z M36.015,63.192
		c0.038-0.061-0.079-0.061-0.06-0.02c0,0,0.02,0,0.02,0.02C35.995,63.192,35.995,63.192,36.015,63.192z M36.663,61.382
		c-0.079,0-0.06-0.178-0.038-0.217C36.723,61.185,36.625,61.282,36.663,61.382z M36.723,61.145
		c-0.019-0.019-0.019-0.058-0.019-0.099C36.782,61.027,36.742,61.125,36.723,61.145z M36.782,61.007
		c-0.078-0.079,0-0.217,0.04-0.236C36.881,60.829,36.782,60.908,36.782,61.007z M37.844,62.816c-0.313,0.06-0.708,0.021-1.003,0.217
		c0.04,0.039,0,0.159,0.079,0.159c0.038-0.04,0.038-0.12,0.139-0.12c0,0.041-0.021,0.059-0.021,0.08
		c0.12-0.039,0.196,0.019,0.256-0.08c0.098,0.159,0.294-0.039,0.434,0.059c0.06-0.117,0.275-0.078,0.354-0.038
		c0.06-0.021-0.061-0.06,0.019-0.079c0.117,0.117,0.373-0.098,0.512,0.019c0.02-0.058,0.058-0.097,0.138-0.078
		c0.06,0.039-0.039,0.118,0.079,0.118c0-0.079,0.019-0.137,0.041-0.178c0.079,0.06,0.136-0.019,0.215,0.06
		c0.139-0.118,0.237-0.019,0.452-0.06c0,0.021,0,0.06,0.019,0.06c0.041-0.099,0.06,0.039,0.177-0.019
		c0.041-0.119,0.079-0.258,0.06-0.435c-0.67,0.08-1.181,0.177-1.889,0.237C37.844,62.74,37.885,62.816,37.844,62.816z
		 M37.136,62.149c0,0.098-0.117,0.156-0.058,0.215c0.02-0.04,0.039-0.059,0.079-0.059c-0.041,0.159-0.079,0.257-0.12,0.374
		c0.926-0.117,1.655-0.235,2.815-0.335c0.177-1.849,0.551-3.502,0.748-5.312c0.177-0.688,0.313-1.457,0.394-2.244
		c0.059-0.158,0.177-0.414,0.079-0.57c-0.256,0.393-0.57,0.708-0.728,1.18c-0.039,0-0.061,0-0.099,0
		c-0.117,0.236-0.177,0.531-0.374,0.669c-0.098,0.572-0.493,0.868-0.61,1.418c-0.06,0.04-0.118,0.059-0.196,0.099
		c0.057,0.492-0.335,0.729-0.433,1.142c-0.06,0-0.039-0.039-0.079,0c0,0.118-0.039,0.176-0.039,0.295
		c-0.041,0-0.06,0.039-0.12,0.059c-0.235,0.945-0.786,1.692-1.004,2.578c0.019-0.059,0.079-0.176,0.12-0.137
		c-0.12,0.256-0.218,0.552-0.354,0.786C37.136,62.247,37.175,62.167,37.136,62.149z M37.255,63.054c0,0.019-0.041,0.019-0.06,0.019
		C37.196,63.054,37.234,63.054,37.255,63.054z M37.372,61.716c-0.117,0.039-0.196,0.256-0.158,0.373
		C37.255,61.951,37.313,61.835,37.372,61.716z M37.53,60.2c0-0.02-0.019-0.04-0.041-0.02c-0.08,0.099-0.137,0.236-0.177,0.394
		C37.49,60.554,37.452,60.318,37.53,60.2z M37.609,59.059c0,0.099-0.04,0.176-0.12,0.196c-0.019-0.078,0-0.138,0.021-0.196
		C37.53,59.059,37.569,59.059,37.609,59.059z M37.609,62.975c0,0.02,0,0.04,0,0.059c-0.021,0-0.04,0-0.06,0c0-0.019,0-0.039,0-0.059
		C37.569,62.975,37.588,62.975,37.609,62.975z M37.569,61.382c-0.057-0.178,0.12-0.316,0.158-0.453
		C37.786,61.085,37.588,61.204,37.569,61.382z M37.727,60.023c-0.079,0-0.079,0.039-0.079,0.099
		C37.708,60.141,37.708,60.082,37.727,60.023z M37.727,59.708c0.06,0,0.079-0.041,0.06-0.099c0.038-0.019,0.058-0.04,0.077-0.079
		c-0.057,0-0.077,0.02-0.077,0.079C37.727,59.591,37.708,59.63,37.727,59.708z M37.806,60.811c-0.079-0.099,0.099-0.178,0.08-0.275
		C37.942,60.612,37.825,60.712,37.806,60.811z M37.885,62.955c0,0.02-0.021,0.02-0.041,0.02
		C37.844,62.955,37.863,62.955,37.885,62.955z M37.923,59.472c0.04,0.078-0.06,0.059-0.038,0.138
		C37.942,59.609,38.002,59.472,37.923,59.472z M40.483,54.335c-0.06,0.138-0.199,0.197-0.199,0.374
		c-0.077,0.02-0.196,0.098-0.177,0.296c-0.215,0.216-0.294,0.551-0.53,0.746c0,0.06,0,0.1,0,0.138
		c-0.297,0.237-0.335,0.749-0.61,1.024c0,0.06,0,0.119,0,0.198c-0.079,0-0.06-0.1-0.12-0.04c-0.177,0.61-0.354,1.221-0.747,1.614
		c-0.06,0.039,0.019,0.098,0.019,0.157c-0.019,0.097-0.098,0.118-0.098,0.216c0.079,0.02,0.06-0.158,0.12-0.098
		c0,0.157-0.139,0.314-0.12,0.433c0.019-0.039,0.041-0.078,0.12-0.078c-0.04-0.178,0.156-0.354,0.117-0.532
		c0.038,0,0.038,0.02,0.079,0.02c0.215-0.335,0.294-0.786,0.531-1.082c-0.021-0.098-0.079-0.197,0-0.257
		c0.117,0.02,0.156-0.019,0.177-0.116c-0.041-0.021-0.098,0-0.098-0.041c0.117-0.099,0.098-0.334,0.253-0.373
		c-0.057-0.08,0.022-0.257,0.098-0.139c0-0.177,0.079-0.216,0.021-0.374c0.098-0.04,0.156-0.099,0.294-0.138
		c0-0.452,0.275-0.609,0.433-0.886c-0.04-0.02-0.079,0.077-0.079,0c-0.019-0.138,0.039-0.198,0.117-0.236
		c0,0.039-0.019,0.099,0.019,0.099c-0.038-0.334,0.276-0.433,0.354-0.708c0.237-0.061,0.158-0.415,0.335-0.552
		c-0.038,0-0.038-0.02-0.079-0.02c-0.057,0.119-0.158,0.236-0.137,0.433C40.521,54.413,40.561,54.313,40.483,54.335z M38.081,60.122
		c0.06-0.158,0.098-0.354,0.237-0.474C38.258,59.846,38.198,60.003,38.081,60.122z M38.198,58.842c0,0.02,0,0.039,0,0.058
		c-0.019,0-0.038,0-0.057,0c0-0.019,0-0.038,0-0.058C38.16,58.842,38.179,58.842,38.198,58.842z M38.396,59.393
		c0.04,0.06-0.038,0.217-0.077,0.256C38.296,59.53,38.375,59.491,38.396,59.393z M38.474,58.251c0,0.02,0,0.041,0,0.06
		c-0.019,0-0.038,0-0.038,0c0-0.019,0-0.04,0-0.06C38.436,58.251,38.455,58.251,38.474,58.251z M38.829,56.322
		c0-0.059,0-0.138,0.019-0.157C38.888,56.165,38.907,56.342,38.829,56.322z M39.066,62.855c-0.019,0.041-0.019,0-0.041,0
		C39.025,62.838,39.066,62.838,39.066,62.855z M39.104,57.247c0-0.02,0-0.039,0-0.06c0,0-0.019,0-0.038,0c0,0.021,0,0.04,0,0.06
		C39.085,57.247,39.104,57.247,39.104,57.247z M39.144,62.838c-0.021,0.039-0.021,0-0.06,0
		C39.085,62.816,39.144,62.816,39.144,62.838z M39.144,57.11c-0.021,0.019-0.06,0.038,0,0.059
		C39.144,57.148,39.183,57.11,39.144,57.11z M39.873,63.408c-0.079,0.769-0.098,1.516-0.196,2.105
		c0.019,1.359-0.139,2.5,0.117,3.681c-0.079-0.452,0-0.924-0.117-1.339c0.136-0.354,0-0.747,0.098-1.16
		c0-0.08-0.06,0.059-0.041-0.06c-0.02-0.274,0.119-0.552,0.019-0.768c0.158-0.708,0.177-1.691,0.237-2.48
		c0.041-0.137,0.079-0.413,0.041-0.433c-0.041,0-0.041-0.019-0.1-0.019c-0.02,0.217-0.039,0.354,0.041,0.551
		C39.892,63.507,39.93,63.408,39.873,63.408z M39.676,62.779c-0.06-0.021,0-0.101,0.058-0.081
		C39.734,62.759,39.676,62.74,39.676,62.779z M39.774,65.16c0.038-0.06,0.019-0.216,0.019-0.315
		C39.832,64.865,39.892,65.121,39.774,65.16z M39.853,64.589c-0.079-0.039,0.02-0.098,0-0.198
		C39.911,64.431,39.873,64.53,39.853,64.589z M39.99,63.152c-0.06-0.021-0.019-0.119,0-0.119
		C40.049,63.033,39.99,63.132,39.99,63.152z M40.088,62.838c-0.039-0.079,0.041-0.235,0.041-0.374
		c-0.237,0.038-0.061,0.255-0.139,0.315C40.03,62.759,40.03,62.917,40.088,62.838z M40.383,59.865
		c-0.137,0.808-0.295,1.692-0.334,2.459c0.235-0.077,0.099-0.489,0.216-0.668c-0.019-0.06-0.019-0.118-0.019-0.217
		c0.019-0.078,0.06-0.119,0.038-0.235c0-0.039-0.057,0.039-0.057-0.039c0.256-0.08-0.04-0.395,0.099-0.553
		c0.057,0.06-0.042,0.1,0.038,0.119c0.06-0.649,0.256-1.279,0.275-1.909c-0.019,0-0.038,0-0.057,0
		c-0.098,0.296-0.12,0.57-0.098,0.925C40.483,59.807,40.364,59.768,40.383,59.865z M40.148,54.177c0-0.079,0.079-0.059,0.06-0.138
		C40.306,54.039,40.227,54.198,40.148,54.177z M40.148,61.716c0-0.06,0.038-0.06,0.019-0.119
		C40.246,61.597,40.227,61.716,40.148,61.716z M40.167,66.676c0,0.039,0,0.078,0,0.117C40.246,66.812,40.246,66.636,40.167,66.676z
		 M40.167,67.404c0,0.038,0,0.077,0,0.118C40.246,67.562,40.246,67.364,40.167,67.404z M40.167,67.699
		c0.019,0.079-0.019,0.197,0.041,0.217C40.227,67.896,40.265,67.699,40.167,67.699z M40.167,68.349c0,0.06,0,0.099,0,0.158
		C40.284,68.524,40.246,68.349,40.167,68.349z M40.227,69.039c-0.04,0.116,0,0.354,0.058,0.432
		C40.265,69.332,40.284,69.136,40.227,69.039z M40.265,65.79c-0.019,0.059-0.057,0.197,0.02,0.215
		C40.246,65.908,40.364,65.79,40.265,65.79z M40.344,53.98c-0.08-0.019,0.019-0.039,0-0.098
		C40.404,53.901,40.344,53.962,40.344,53.98z M40.502,53.803c-0.06-0.018-0.06-0.097-0.019-0.118
		C40.541,53.685,40.541,53.764,40.502,53.803z M40.561,60.829c-0.039,0.039-0.058,0.198,0,0.217
		C40.541,60.987,40.62,60.889,40.561,60.829z M40.639,60.24c-0.038,0.097,0,0.256-0.038,0.353
		C40.679,60.554,40.679,60.298,40.639,60.24z M40.857,57.387c0-0.021-0.019-0.021-0.041-0.021c0,0.394-0.256,0.867-0.117,1.219
		C40.758,58.212,40.778,57.818,40.857,57.387z M40.797,54.118c0.06,0.019,0.079-0.019,0.06-0.079c0.098-0.02-0.019-0.138,0,0
		C40.816,54.059,40.778,54.059,40.797,54.118z M40.915,56.913c-0.038,0.119-0.058,0.256-0.077,0.394
		C40.896,57.188,40.993,57.011,40.915,56.913z M40.915,53.823c0,0.078-0.058,0.099,0.021,0.118
		C40.896,53.883,41.013,53.823,40.915,53.823z M40.993,62.582c0,0.02-0.019,0.02-0.038,0.02
		C40.955,62.582,40.974,62.582,40.993,62.582z M41.151,55.595c-0.06,0.059-0.019,0.195-0.06,0.256
		C41.189,55.87,41.189,55.575,41.151,55.595z M41.189,62.679c-0.038,0-0.057-0.039-0.098-0.019
		C41.092,62.602,41.23,62.602,41.189,62.679z M41.151,62.542c0-0.04,0-0.058,0-0.078C41.21,62.425,41.21,62.562,41.151,62.542z
		 M41.21,55.182c-0.021,0.039-0.04,0.177,0,0.196C41.23,55.319,41.31,55.2,41.21,55.182z M41.31,62.679c-0.018,0-0.041,0-0.079,0
		c0-0.019,0-0.039,0-0.058C41.291,62.621,41.31,62.64,41.31,62.679z M41.427,62.464c0.018-0.08-0.118-0.1-0.118-0.021
		C41.348,62.542,41.348,62.384,41.427,62.464z M41.8,62.384c-0.117-0.02-0.294-0.039-0.354,0.059
		C41.584,62.464,41.743,62.502,41.8,62.384z M41.86,62.208c0,0-0.019,0.019-0.041,0.019C41.819,62.208,41.841,62.208,41.86,62.208z
		 M41.819,62.425c0.041,0.018,0.079,0.018,0.12,0.018C41.978,62.364,41.819,62.384,41.819,62.425z M42.174,62.208
		c0,0.019-0.019,0.019-0.038,0.019C42.136,62.208,42.154,62.208,42.174,62.208z M43.278,62.443c0.019-0.018,0.038,0,0.038-0.018
		C43.297,62.425,43.278,62.425,43.278,62.443z M43.531,62.582c-0.057,0-0.076-0.04-0.117-0.04
		C43.434,62.484,43.553,62.523,43.531,62.582z"/>
</g>
</svg>
