<?xml version="1.0" encoding="utf-8"?>
<!-- Generator: Adobe Illustrator 16.0.0, SVG Export Plug-In . SVG Version: 6.00 Build 0)  -->
<!DOCTYPE svg PUBLIC "-//W3C//DTD SVG 1.1//EN" "http://www.w3.org/Graphics/SVG/1.1/DTD/svg11.dtd">
<svg version="1.1" id="Layer_1" xmlns="http://www.w3.org/2000/svg" xmlns:xlink="http://www.w3.org/1999/xlink" x="0px" y="0px"
	 width="85px" height="85px" viewBox="0 0 85 85" enable-background="new 0 0 85 85" xml:space="preserve">
<g>
	<path fill="#FFFFFF" d="M42.5,0C65.973,0,85,19.028,85,42.5C85,65.973,65.973,85,42.5,85C19.028,85,0,65.973,0,42.5
		C0,19.028,19.028,0,42.5,0z"/>
</g>
<g>
	<path fill-rule="evenodd" clip-rule="evenodd" fill="#070793" d="M42.023,72.295c-0.065-0.882-0.205-1.767-0.177-2.646
		c0.032-1.034,0.233-2.061,0.321-3.094c0.133-1.561,0.119-3.283-1.361-4.082c-1.442-0.778-3.227-0.517-4.544,0.496
		c-1.138,0.875-2.083,2.063-2.925,3.247c-1.084,1.523-1.848,3.285-3.004,4.742c-0.783,0.987-1.955,1.705-3.052,2.382
		c-0.385,0.236-1.194,0.182-1.585-0.077c-0.704-0.468-0.402-1.195-0.012-1.791c2.159-3.295,4.15-6.722,6.544-9.837
		c2.326-3.027,5.042-5.759,7.639-8.572c1.208-1.308,2.622-1.4,3.991-0.255c1.35,1.129,2.239,2.421,1.95,4.444
		c-0.31,2.157-0.021,4.395-0.249,6.57c-0.222,2.118-0.646,4.236-1.227,6.284c-0.246,0.87-1.118,1.562-1.705,2.336
		C42.426,72.394,42.225,72.344,42.023,72.295z M39.397,59.649c0.565-0.314,1.017-0.567,1.469-0.819
		c-0.511-0.36-0.979-0.895-1.545-1.037c-0.696-0.178-1.308,0.32-1.209,1.061C38.151,59.145,38.876,59.345,39.397,59.649z"/>
	<path fill-rule="evenodd" clip-rule="evenodd" fill="#070793" d="M49.642,27.632c-2.704-0.292-5.327-0.529-7.937-0.876
		c-1.229-0.164-2.13-0.986-2.151-2.233c-0.035-2.062-0.01-4.157,0.321-6.184c0.253-1.55,0.94-3.05,1.573-4.513
		c1.154-2.665,3.568-3.657,6.32-2.659c1.913,0.694,3.36,1.96,4.33,3.758c0.479,0.887,0.339,1.558-0.576,2.112
		c-1.324,0.803-1.312,1.018-0.111,2.001c1.381,1.132,2.502,5.106,1.841,6.76C52.58,27.478,51.076,27.6,49.642,27.632z
		 M44.291,17.919c1.187-0.578,2.29-1.069,3.339-1.659c0.304-0.171,0.652-0.642,0.628-0.947c-0.076-0.957-0.958-1.515-2.13-1.498
		c-1.034,0.015-1.86,0.398-1.955,1.515C44.098,16.213,44.247,17.116,44.291,17.919z M44.006,21.406
		c-0.398,1.973-0.184,2.293,1.53,2.467c0.473,0.048,0.966,0.074,1.429-0.006c1.028-0.179,1.702-0.749,1.843-2.061
		C47.179,21.67,45.619,21.541,44.006,21.406z"/>
	<path fill-rule="evenodd" clip-rule="evenodd" fill="#070793" d="M49.883,31.592c0.072-0.08,0.146-0.159,0.219-0.239l-0.001-0.008
		c-0.07,0.083-0.14,0.165-0.21,0.248L49.883,31.592z"/>
	<path fill-rule="evenodd" clip-rule="evenodd" fill="#070793" d="M50.102,31.354c0.085-0.073,0.169-0.146,0.253-0.217H50.35
		c-0.083,0.069-0.166,0.139-0.249,0.209L50.102,31.354z"/>
	<path fill-rule="evenodd" clip-rule="evenodd" fill="#070793" d="M54.454,37.684c-0.358-2.66-0.96-5.287-1.532-8.341
		c-1.066,0.745-1.814,1.268-2.562,1.79c-0.003,0.001-0.007,0.002-0.011,0.004c-0.083,0.069-0.166,0.139-0.249,0.209
		c-0.07,0.083-0.14,0.165-0.211,0.248c0.001,0-0.007,0-0.007,0c-0.339,0.333-0.755,0.617-1.003,1.007
		c-0.834,1.313-1.572,2.687-2.417,3.991c-0.535,0.826-1.194,1.571-1.798,2.353c-0.12-0.057-0.241-0.113-0.361-0.169
		c-0.512-2.117-0.933-4.262-1.577-6.337c-0.277-0.896-0.855-1.852-1.579-2.424c-1.836-1.453-4.169-1.009-5.044,0.771l0,0
		c-0.883,1.198-1.766,2.396-2.648,3.595l0.084,0.069l0,0c0,0-0.084-0.069-0.084-0.069c-0.927,1.666-1.969,3.28-2.755,5.01
		c-1.211,2.667-1.979,5.486-2.169,8.425c-0.099,1.523,1.051,3.002,2.516,3.396c1.33,0.357,2.635-0.193,3.348-1.664
		c0.458-0.943,0.756-2.021,0.868-3.065c0.156-1.464,0.042-2.954,0.098-4.431c0.087-2.289,0.678-4.421,2.199-6.198
		c0.287-0.335,0.749-0.52,1.13-0.774c0.144,0.426,0.38,0.845,0.416,1.28c0.314,3.86,0.571,7.724,0.892,11.583
		c0.128,1.547,0.693,2.076,2.407,2.428c1.085-4.049,3.466-7.42,5.888-11.098c0.001,0,0.002,0,0.003,0c0.001,0,0.002,0,0.003,0
		c0.468,0.636,1.044,1.07,1.089,1.553c0.111,1.222-0.058,2.466-0.035,3.7c0.018,0.975-0.001,1.992,0.272,2.909
		c0.44,1.478,1.768,1.817,3.12,0.954c1.486-0.668,2.334-1.797,2.25-3.447C54.873,42.517,54.777,40.083,54.454,37.684z"/>
</g>
</svg>
